<svg width="32" height="32" viewBox="0 0 32 32" fill="none" xmlns="http://www.w3.org/2000/svg">
<path d="M22.2596 4.2651H17.811C17.0071 4.26766 17.0372 5.46574 17.811 5.4587H22.2596V6.07118H17.811C17.0116 6.06414 17.0411 7.26158 17.811 7.26478H22.2596V7.8907H17.811C17.0116 7.8907 17.0411 9.0875 17.811 9.0843H22.2596V9.68078H17.811C17.0283 9.68654 17.0411 10.8846 17.811 10.8885H22.2596V11.4862H17.811C17.0283 11.4837 17.0251 12.6798 17.811 12.6798H22.2596V13.2763H17.811C17.0283 13.2789 17.0251 14.4763 17.811 14.4705H22.2596V15.0817H17.811C17.0283 15.0747 17.0251 16.2709 17.811 16.2753H22.2596V16.8705H17.811C17.0283 16.8699 17.0411 18.0686 17.811 18.0648H22.2596V29.6865C22.2622 31.4574 24.9521 31.4254 24.9598 29.6865V2.48974C24.9521 1.68078 24.2878 0.658057 23.1947 0.654857H17.811C17.0071 0.655497 17.0372 1.85358 17.811 1.84846L22.2596 1.86318V2.45838H17.811C17.0084 2.45454 17.0385 3.65198 17.811 3.65262H22.2596V4.2651ZM17.5051 24.8693C17.5025 22.8021 15.3598 20.5787 12.7998 22.0187V14.1121L11.1441 1.07214C11.1095 0.727177 10.8171 0.645897 10.6206 0.640137C10.4177 0.645897 10.0113 0.727177 9.96715 1.07214L8.31979 14.1121V22.0187C5.75979 20.5787 3.68619 22.8161 3.68555 24.8533C3.68619 26.6657 5.08139 28.1544 6.96939 28.1499C8.87147 28.1544 10.2398 26.4859 10.2398 24.8533V16.6401H10.8798V24.8533C10.8798 26.6811 12.2955 28.0341 13.8686 28.1198C13.8423 29.1221 14.1694 30.5518 14.7851 31.1189C15.507 31.7845 16.3665 30.9333 16.0139 30.2401C15.6734 29.595 15.3393 29.2129 15.6107 27.8043C16.7447 27.2795 17.5025 26.1749 17.5051 24.8693ZM7.04235 26.4955C6.61079 26.4955 6.1969 26.3241 5.89174 26.0189C5.58658 25.7137 5.41515 25.2999 5.41515 24.8683C5.41515 24.4367 5.58658 24.0229 5.89174 23.7177C6.1969 23.4125 6.61079 23.2411 7.04235 23.2411C7.92939 23.2462 8.65195 23.9739 8.65835 24.8693C8.65652 25.2982 8.486 25.7093 8.18363 26.0136C7.88125 26.3178 7.4713 26.491 7.04235 26.4955ZM12.5278 24.8693C12.5293 24.4399 12.6997 24.0284 13.0022 23.7237C13.3048 23.419 13.7151 23.2456 14.1444 23.2411C14.5739 23.245 14.9845 23.4181 15.2871 23.723C15.5897 24.0278 15.7598 24.4397 15.7604 24.8693C15.7598 25.2986 15.5896 25.7103 15.287 26.0148C14.9844 26.3194 14.5737 26.4921 14.1444 26.4955C13.7152 26.4916 13.3048 26.3187 13.0022 26.0143C12.6996 25.7099 12.5291 25.2985 12.5278 24.8693Z" fill="#893583"/>
</svg>
