<svg width="43" height="43" viewBox="0 0 43 43" fill="none" xmlns="http://www.w3.org/2000/svg">
<path d="M26.2618 11.2164C26.2618 9.94622 25.7573 8.72808 24.8591 7.82995C23.961 6.93181 22.7429 6.42725 21.4727 6.42725C20.2026 6.42725 18.9844 6.93181 18.0863 7.82995C17.1882 8.72808 16.6836 9.94622 16.6836 11.2164C16.6836 12.4865 17.1882 13.7047 18.0863 14.6028C18.9844 15.5009 20.2026 16.0055 21.4727 16.0055C22.7429 16.0055 23.961 15.5009 24.8591 14.6028C25.7573 13.7047 26.2618 12.4865 26.2618 11.2164Z" fill="#893583"/>
<path d="M5.40947 25.7999H11.8358V19.38L11.853 18.993C11.9089 18.3544 12.1067 17.7567 12.412 17.23H6.48447L6.23292 17.245C5.70993 17.3066 5.22774 17.5581 4.87781 17.9516C4.52788 18.3451 4.33454 18.8534 4.33447 19.38V24.7249C4.33447 25.01 4.44773 25.2834 4.64933 25.485C4.85093 25.6866 5.12436 25.7999 5.40947 25.7999Z" fill="#893583"/>
<path d="M38.6781 24.7249C38.6781 25.01 38.5648 25.2834 38.3632 25.485C38.1616 25.6866 37.8882 25.7999 37.6031 25.7999H31.1187V19.38L31.1058 19.0596C31.0588 18.415 30.8662 17.7894 30.5425 17.23H36.5281C37.055 17.2301 37.5636 17.4237 37.9571 17.7741C38.3507 18.1245 38.6019 18.6072 38.663 19.1306L38.6781 19.38V24.7249Z" fill="#893583"/>
<path d="M28.9537 19.1306C28.8925 18.6068 28.641 18.1238 28.2469 17.7734C27.8529 17.423 27.3439 17.2296 26.8166 17.23H16.1354L15.8838 17.245C15.3608 17.3066 14.8786 17.5581 14.5287 17.9516C14.1788 18.3451 13.9854 18.8534 13.9854 19.38V25.7999H28.9666V19.38L28.9537 19.1306Z" fill="#893583"/>
<path d="M32.1961 7.77637C33.2872 7.77637 34.3336 8.20981 35.1051 8.98134C35.8766 9.75287 36.3101 10.7993 36.3101 11.8904C36.3101 12.9815 35.8766 14.0279 35.1051 14.7994C34.3336 15.571 33.2872 16.0044 32.1961 16.0044C31.1049 16.0044 30.0585 15.571 29.287 14.7994C28.5155 14.0279 28.082 12.9815 28.082 11.8904C28.082 10.7993 28.5155 9.75287 29.287 8.98134C30.0585 8.20981 31.1049 7.77637 32.1961 7.77637Z" fill="#893583"/>
<path d="M14.8994 11.8894C14.8994 10.7983 14.466 9.75189 13.6945 8.98036C12.9229 8.20883 11.8765 7.77539 10.7854 7.77539C9.6943 7.77539 8.64789 8.20883 7.87636 8.98036C7.10483 9.75189 6.67139 10.7983 6.67139 11.8894C6.67139 12.9802 7.10471 14.0264 7.87604 14.7977C8.64737 15.569 9.69351 16.0024 10.7843 16.0024C11.8752 16.0024 12.9213 15.569 13.6926 14.7977C14.464 14.0264 14.8973 12.9802 14.8973 11.8894H14.8994Z" fill="#893583"/>
<path d="M5.3748 27.9497C5.0897 27.9497 4.81627 28.063 4.61467 28.2646C4.41306 28.4662 4.2998 28.7396 4.2998 29.0247V31.1747C4.2998 32.6002 4.8661 33.9674 5.87411 34.9754C6.88211 35.9834 8.24927 36.5497 9.6748 36.5497H33.3248C34.7503 36.5497 36.1175 35.9834 37.1255 34.9754C38.1335 33.9674 38.6998 32.6002 38.6998 31.1747V29.0247C38.6998 28.7396 38.5865 28.4662 38.3849 28.2646C38.1833 28.063 37.9099 27.9497 37.6248 27.9497H5.3748Z" fill="#893583"/>
</svg>
