<svg width="32" height="32" viewBox="0 0 32 32" fill="none" xmlns="http://www.w3.org/2000/svg">
<path d="M27 4H1V24H27V4ZM25 22H3V6H25V22Z" fill="#893583"/>
<path d="M29 9V26H6V28H31V9H29Z" fill="#893583"/>
<path d="M14 18.9035C16.4812 18.9035 18.5 16.7075 18.5 14.0082C18.5 11.3089 16.4812 9.11279 14 9.11279C11.5187 9.11279 9.5 11.3088 9.5 14.0082C9.5 16.7075 11.5187 18.9035 14 18.9035ZM14 11.1128C15.3785 11.1128 16.5 12.4117 16.5 14.0082C16.5 15.6047 15.3785 16.9035 14 16.9035C12.6215 16.9035 11.5 15.6047 11.5 14.0082C11.5 12.4117 12.6215 11.1128 14 11.1128Z" fill="#893583"/>
<path d="M5 8.5H7V19.5H5V8.5Z" fill="#893583"/>
<path d="M21 8.5H23V19.5H21V8.5Z" fill="#893583"/>
</svg>
