<svg width="58" height="60" viewBox="0 0 58 60" fill="none" xmlns="http://www.w3.org/2000/svg">
<path fill-rule="evenodd" clip-rule="evenodd" d="M29.0666 0C21.5383 0 14.6783 2.48667 10.62 4.51833C10.2533 4.70167 9.91162 4.88167 9.59328 5.055C8.96328 5.39833 8.42662 5.71833 7.99995 6L12.6166 12.7967L14.79 13.6617C23.2833 17.9467 34.6733 17.9467 43.1683 13.6617L45.635 12.3817L50.0016 6C49.097 5.40999 48.1563 4.87728 47.185 4.405C43.1483 2.395 36.4533 0 29.0666 0ZM18.3283 7.69333C16.6935 7.38741 15.0788 6.98222 13.4933 6.48C17.295 4.79167 22.9616 3 29.065 3C33.2933 3 37.2916 3.86 40.5983 4.95C36.7233 5.495 32.5883 6.42 28.6483 7.55833C25.5483 8.455 21.925 8.35833 18.3283 7.69333ZM44.9283 16.1333L44.52 16.34C35.175 21.0533 22.7816 21.0533 13.4366 16.34L13.05 16.1433C-0.986717 31.545 -11.7034 59.995 29.0666 59.995C69.8333 59.995 58.8549 31.0133 44.9283 16.1333ZM27.3333 30C26.4492 30 25.6014 30.3512 24.9763 30.9763C24.3511 31.6014 24 32.4493 24 33.3333C24 34.2174 24.3511 35.0652 24.9763 35.6904C25.6014 36.3155 26.4492 36.6667 27.3333 36.6667V30ZM30.6666 26.6667V25H27.3333V26.6667C25.5652 26.6667 23.8695 27.369 22.6192 28.6193C21.369 29.8695 20.6666 31.5652 20.6666 33.3333C20.6666 35.1014 21.369 36.7971 22.6192 38.0474C23.8695 39.2976 25.5652 40 27.3333 40V46.6667C26.6439 46.6668 25.9715 46.4533 25.4085 46.0554C24.8456 45.6575 24.4199 45.0949 24.19 44.445C24.0428 44.0282 23.736 43.6869 23.3372 43.4962C22.9383 43.3056 22.4801 43.2811 22.0633 43.4283C21.6465 43.5755 21.3052 43.8823 21.1145 44.2811C20.9238 44.6799 20.8994 45.1382 21.0466 45.555C21.5064 46.855 22.3578 47.9804 23.4836 48.7765C24.6095 49.5725 25.9544 50 27.3333 50V51.6667H30.6666V50C32.4347 50 34.1304 49.2976 35.3807 48.0474C36.6309 46.7971 37.3333 45.1014 37.3333 43.3333C37.3333 41.5652 36.6309 39.8695 35.3807 38.6193C34.1304 37.369 32.4347 36.6667 30.6666 36.6667V30C32.1166 30 33.3516 30.925 33.8116 32.2217C33.8799 32.4338 33.99 32.6301 34.1354 32.799C34.2808 32.9678 34.4587 33.1058 34.6583 33.2047C34.858 33.3036 35.0755 33.3615 35.298 33.3749C35.5204 33.3883 35.7433 33.3569 35.9534 33.2827C36.1635 33.2085 36.3566 33.0928 36.5213 32.9427C36.686 32.7925 36.8188 32.6108 36.912 32.4084C37.0053 32.206 37.0569 31.987 37.064 31.7642C37.0711 31.5415 37.0335 31.3196 36.9533 31.1117C36.4935 29.8117 35.6421 28.6862 34.5163 27.8902C33.3904 27.0941 32.0455 26.6667 30.6666 26.6667ZM30.6666 40V46.6667C31.5507 46.6667 32.3985 46.3155 33.0236 45.6904C33.6488 45.0652 34 44.2174 34 43.3333C34 42.4493 33.6488 41.6014 33.0236 40.9763C32.3985 40.3512 31.5507 40 30.6666 40Z" fill="black"/>
</svg>
