<svg width="27" height="27" viewBox="0 0 27 27" fill="none" xmlns="http://www.w3.org/2000/svg">
<path d="M2.53125 1.6875C2.30747 1.6875 2.09286 1.77639 1.93463 1.93463C1.77639 2.09286 1.6875 2.30747 1.6875 2.53125V7.59375C1.6875 7.81753 1.59861 8.03214 1.44037 8.19037C1.28214 8.34861 1.06753 8.4375 0.84375 8.4375C0.619974 8.4375 0.405362 8.34861 0.247129 8.19037C0.0888949 8.03214 0 7.81753 0 7.59375V2.53125C0 1.85992 0.266684 1.21609 0.741386 0.741386C1.21609 0.266684 1.85992 0 2.53125 0L7.59375 0C7.81753 0 8.03214 0.0888949 8.19037 0.247129C8.34861 0.405362 8.4375 0.619974 8.4375 0.84375C8.4375 1.06753 8.34861 1.28214 8.19037 1.44037C8.03214 1.59861 7.81753 1.6875 7.59375 1.6875H2.53125ZM18.5625 0.84375C18.5625 0.619974 18.6514 0.405362 18.8096 0.247129C18.9679 0.0888949 19.1825 0 19.4062 0L24.4688 0C25.1401 0 25.7839 0.266684 26.2586 0.741386C26.7333 1.21609 27 1.85992 27 2.53125V7.59375C27 7.81753 26.9111 8.03214 26.7529 8.19037C26.5946 8.34861 26.38 8.4375 26.1562 8.4375C25.9325 8.4375 25.7179 8.34861 25.5596 8.19037C25.4014 8.03214 25.3125 7.81753 25.3125 7.59375V2.53125C25.3125 2.30747 25.2236 2.09286 25.0654 1.93463C24.9071 1.77639 24.6925 1.6875 24.4688 1.6875H19.4062C19.1825 1.6875 18.9679 1.59861 18.8096 1.44037C18.6514 1.28214 18.5625 1.06753 18.5625 0.84375ZM0.84375 18.5625C1.06753 18.5625 1.28214 18.6514 1.44037 18.8096C1.59861 18.9679 1.6875 19.1825 1.6875 19.4062V24.4688C1.6875 24.6925 1.77639 24.9071 1.93463 25.0654C2.09286 25.2236 2.30747 25.3125 2.53125 25.3125H7.59375C7.81753 25.3125 8.03214 25.4014 8.19037 25.5596C8.34861 25.7179 8.4375 25.9325 8.4375 26.1562C8.4375 26.38 8.34861 26.5946 8.19037 26.7529C8.03214 26.9111 7.81753 27 7.59375 27H2.53125C1.85992 27 1.21609 26.7333 0.741386 26.2586C0.266684 25.7839 0 25.1401 0 24.4688L0 19.4062C0 19.1825 0.0888949 18.9679 0.247129 18.8096C0.405362 18.6514 0.619974 18.5625 0.84375 18.5625ZM26.1562 18.5625C26.38 18.5625 26.5946 18.6514 26.7529 18.8096C26.9111 18.9679 27 19.1825 27 19.4062V24.4688C27 25.1401 26.7333 25.7839 26.2586 26.2586C25.7839 26.7333 25.1401 27 24.4688 27H19.4062C19.1825 27 18.9679 26.9111 18.8096 26.7529C18.6514 26.5946 18.5625 26.38 18.5625 26.1562C18.5625 25.9325 18.6514 25.7179 18.8096 25.5596C18.9679 25.4014 19.1825 25.3125 19.4062 25.3125H24.4688C24.6925 25.3125 24.9071 25.2236 25.0654 25.0654C25.2236 24.9071 25.3125 24.6925 25.3125 24.4688V19.4062C25.3125 19.1825 25.4014 18.9679 25.5596 18.8096C25.7179 18.6514 25.9325 18.5625 26.1562 18.5625Z" fill="#893583"/>
<path d="M5.0625 23.625C5.0625 23.625 3.375 23.625 3.375 21.9375C3.375 20.25 5.0625 15.1875 13.5 15.1875C21.9375 15.1875 23.625 20.25 23.625 21.9375C23.625 23.625 21.9375 23.625 21.9375 23.625H5.0625ZM18.5625 8.4375C18.5625 9.78016 18.0291 11.0678 17.0797 12.0172C16.1303 12.9666 14.8427 13.5 13.5 13.5C12.1573 13.5 10.8697 12.9666 9.92027 12.0172C8.97087 11.0678 8.4375 9.78016 8.4375 8.4375C8.4375 7.09484 8.97087 5.80717 9.92027 4.85777C10.8697 3.90837 12.1573 3.375 13.5 3.375C14.8427 3.375 16.1303 3.90837 17.0797 4.85777C18.0291 5.80717 18.5625 7.09484 18.5625 8.4375Z" fill="#893583"/>
</svg>
