<svg width="47" height="47" viewBox="0 0 47 47" fill="none" xmlns="http://www.w3.org/2000/svg">
<path fill-rule="evenodd" clip-rule="evenodd" d="M23.5001 1.95825C35.397 1.95825 45.0417 11.603 45.0417 23.4999C45.0417 35.3968 35.397 45.0416 23.5001 45.0416C11.6032 45.0416 1.95842 35.3968 1.95842 23.4999C1.95842 11.603 11.6032 1.95825 23.5001 1.95825ZM42.1042 23.4999C42.1042 18.5658 40.1442 13.8337 36.6552 10.3448C33.1663 6.85583 28.4342 4.89575 23.5001 4.89575C18.566 4.89575 13.8339 6.85583 10.345 10.3448C6.85599 13.8337 4.89592 18.5658 4.89592 23.4999C4.89592 28.434 6.85599 33.1661 10.345 36.655C13.8339 40.144 18.566 42.1041 23.5001 42.1041C28.4342 42.1041 33.1663 40.144 36.6552 36.655C40.1442 33.1661 42.1042 28.434 42.1042 23.4999V23.4999Z" fill="black"/>
<path d="M29.3749 21.0522C29.3749 21.7014 29.6328 22.324 30.0919 22.7831C30.551 23.2422 31.1736 23.5001 31.8228 23.5001C32.4721 23.5001 33.0947 23.2422 33.5538 22.7831C34.0128 22.324 34.2708 21.7014 34.2708 21.0522C34.2708 20.4029 34.0128 19.7803 33.5538 19.3212C33.0947 18.8622 32.4721 18.6042 31.8228 18.6042C31.1736 18.6042 30.551 18.8622 30.0919 19.3212C29.6328 19.7803 29.3749 20.4029 29.3749 21.0522ZM15.177 23.5001C14.5278 23.5001 13.9051 23.2422 13.4461 22.7831C12.987 22.324 12.7291 21.7014 12.7291 21.0522C12.7291 20.4029 12.987 19.7803 13.4461 19.3212C13.9051 18.8622 14.5278 18.6042 15.177 18.6042C15.8262 18.6042 16.4489 18.8622 16.9079 19.3212C17.367 19.7803 17.6249 20.4029 17.6249 21.0522C17.6249 21.7014 17.367 22.324 16.9079 22.7831C16.4489 23.2422 15.8262 23.5001 15.177 23.5001Z" fill="black"/>
<line x1="1.25" y1="-1.25" x2="14.4167" y2="-1.25" transform="matrix(-1 0 0 1 31.3333 33.2917)" stroke="black" stroke-width="2.5" stroke-linecap="round"/>
</svg>
