<svg width="47" height="47" viewBox="0 0 47 47" fill="none" xmlns="http://www.w3.org/2000/svg">
<path d="M16.5419 33.4254C16.6997 33.5446 16.8799 33.6308 17.0718 33.6787C17.2636 33.7267 17.4632 33.7353 17.6585 33.7042C17.8538 33.6732 18.0409 33.6029 18.2084 33.4978C18.3759 33.3927 18.5205 33.2548 18.6334 33.0924C18.9659 32.7266 19.3421 32.403 19.7536 32.1289C20.8579 31.3959 22.1568 31.0111 23.4822 31.0244C25.1566 31.0244 26.3943 31.5787 27.2109 32.125C27.6223 32.3991 27.9986 32.7227 28.3311 33.0885L28.3722 33.1394C28.6072 33.4503 28.9561 33.6551 29.3421 33.7087C29.7281 33.7623 30.1195 33.6604 30.4304 33.4254C30.7412 33.1903 30.946 32.8415 30.9996 32.4555C31.0532 32.0695 30.9513 31.678 30.7163 31.3672L30.6634 31.3006C30.638 31.2692 30.6047 31.2262 30.5616 31.1772C30.4754 31.0793 30.356 30.9442 30.2013 30.7894C29.785 30.3763 29.3291 30.005 28.8402 29.681C27.253 28.6275 25.3872 28.0724 23.4822 28.0869C21.5773 28.0724 19.7114 28.6275 18.1242 29.681C17.6353 30.005 17.1795 30.3763 16.7632 30.7894C16.6 30.9514 16.4457 31.122 16.301 31.3006C15.7938 31.9507 15.8643 32.9162 16.5419 33.4254Z" fill="black"/>
<path fill-rule="evenodd" clip-rule="evenodd" d="M23.5001 1.95825C35.397 1.95825 45.0417 11.603 45.0417 23.4999C45.0417 35.3968 35.397 45.0416 23.5001 45.0416C11.6032 45.0416 1.95842 35.3968 1.95842 23.4999C1.95842 11.603 11.6032 1.95825 23.5001 1.95825ZM42.1042 23.4999C42.1042 18.5658 40.1442 13.8337 36.6552 10.3448C33.1663 6.85583 28.4342 4.89575 23.5001 4.89575C18.566 4.89575 13.8339 6.85583 10.345 10.3448C6.85599 13.8337 4.89592 18.5658 4.89592 23.4999C4.89592 28.434 6.85599 33.1661 10.345 36.655C13.8339 40.144 18.566 42.1041 23.5001 42.1041C28.4342 42.1041 33.1663 40.144 36.6552 36.655C40.1442 33.1661 42.1042 28.434 42.1042 23.4999V23.4999Z" fill="black"/>
<path d="M29.3749 21.0522C29.3749 21.7014 29.6328 22.324 30.0919 22.7831C30.551 23.2422 31.1736 23.5001 31.8228 23.5001C32.4721 23.5001 33.0947 23.2422 33.5538 22.7831C34.0128 22.324 34.2708 21.7014 34.2708 21.0522C34.2708 20.4029 34.0128 19.7803 33.5538 19.3212C33.0947 18.8622 32.4721 18.6042 31.8228 18.6042C31.1736 18.6042 30.551 18.8622 30.0919 19.3212C29.6328 19.7803 29.3749 20.4029 29.3749 21.0522ZM15.177 23.5001C14.5278 23.5001 13.9051 23.2422 13.4461 22.7831C12.987 22.324 12.7291 21.7014 12.7291 21.0522C12.7291 20.4029 12.987 19.7803 13.4461 19.3212C13.9051 18.8622 14.5278 18.6042 15.177 18.6042C15.8262 18.6042 16.4489 18.8622 16.9079 19.3212C17.367 19.7803 17.6249 20.4029 17.6249 21.0522C17.6249 21.7014 17.367 22.324 16.9079 22.7831C16.4489 23.2422 15.8262 23.5001 15.177 23.5001Z" fill="black"/>
</svg>
