<svg width="24" height="23" viewBox="0 0 24 23" fill="none" xmlns="http://www.w3.org/2000/svg">
<path id="Vector" d="M20.2511 19.4209C17.1352 19.2161 14.9989 19.5674 13.7821 17.9278L13.7307 17.799L13.7988 17.8809C14.2559 17.8809 14.2255 18.1064 14.5153 18.4071C14.8051 18.7077 14.942 18.4974 15.3384 18.3471C15.6037 18.2466 15.8965 18.3374 16.1366 18.4603C16.3528 18.5709 16.6057 18.717 16.7863 18.4674C16.8814 18.3361 16.9862 18.2116 17.08 18.0794C17.1467 17.9852 17.1634 17.8894 17.2875 17.867C17.3834 17.8497 17.4861 17.8936 17.5812 17.9003C17.7631 17.9139 17.9475 17.9164 18.1273 17.8809C18.483 17.8108 18.3974 17.1576 18.5215 16.9186C18.6889 16.5964 19.2568 16.745 19.3703 16.3751C19.4631 16.0732 19.2436 15.8359 19.2427 15.5407C19.2414 15.0881 20.0144 14.825 19.6361 14.377C19.5201 14.2398 19.3801 14.1059 19.2804 13.9573C19.1819 13.8107 19.2808 13.5443 19.3553 13.3986C19.4049 13.3015 19.4242 13.1883 19.4152 13.0802C19.3989 12.8801 19.2761 12.6795 19.057 12.6622C18.676 12.6322 18.3559 12.4215 18.4017 11.9101C18.4475 11.3988 17.8542 11.3937 17.8542 11.3937C17.7014 11.4106 17.5482 11.4271 17.3954 11.444C17.2683 11.4579 17.2614 11.4431 17.1686 11.3435C17.0778 11.2459 16.9854 11.1496 16.8933 11.0534C16.9237 10.9575 16.952 10.8617 16.9785 10.765C17.7892 10.8883 18.2317 10.3647 18.4376 9.9179C19.104 8.17861 17.9433 7.64867 17.9433 7.64867L17.8949 7.64022L17.909 7.46372C18.4423 7.45105 18.3901 6.66818 18.0781 6.39877C17.8936 6.23958 17.8975 5.95793 17.9749 5.74764C18.0498 5.54496 18.2852 5.37732 18.2758 5.14846C18.2703 5.0146 18.1795 4.89003 18.0909 4.79502C17.9861 4.68228 17.8812 4.56911 17.7763 4.45637C17.6197 4.28831 17.6214 4.04044 17.7074 3.82551C17.7618 3.6887 17.8136 3.57384 17.7712 3.42394C17.7293 3.27615 17.585 3.1026 17.4275 3.06248C17.2657 3.02152 17.0239 2.83235 16.943 2.69131C16.812 2.46287 16.8929 2.17869 16.7975 1.93842C16.6977 1.68717 16.4657 1.60103 16.2051 1.61243C15.6337 1.63777 15.6333 1.40679 15.3602 0.906834C15.0229 0.289065 14.4288 1.04829 14.0012 0.651366C13.8994 0.556779 13.7971 0.462192 13.6952 0.367605C13.396 -0.0428331 12.9278 0.264996 12.9278 0.264996C12.5635 0.534399 12.1993 0.419121 11.9262 0.162386C11.6531 -0.0943491 11.3279 -0.030165 11.0287 0.239238C10.7295 0.508641 10.5215 0.457547 10.0922 0.22657C9.66287 -0.00440713 9.41591 0.278086 9.41591 0.278086C9.31918 0.388719 9.21517 0.493439 9.11501 0.601116C9.07564 0.643342 9.02855 0.718505 8.97848 0.747641C8.91556 0.783956 8.73494 0.813936 8.66175 0.791134C8.66004 0.790712 8.24571 0.662767 8.24571 0.662767C7.79031 0.521731 7.56945 0.82956 7.55618 1.09896C7.54334 1.36837 7.24416 1.6762 6.90603 1.59934C6.56789 1.52249 6.15187 1.6762 6.19081 2.20233C6.22976 2.72847 6.11291 2.84375 5.59245 3.0363C5.07198 3.22885 5.24576 3.59495 5.24576 3.59495C5.4114 3.99568 5.53167 4.26297 5.15545 4.58938C4.77922 4.91579 4.7193 5.04965 4.9149 5.49471C5.1105 5.93977 5.27615 5.89544 4.83957 6.54868C4.40342 7.20191 5.1456 7.48145 5.1456 7.48145V7.63938L5.09638 7.64825C5.09638 7.64825 3.9356 8.17861 4.60202 9.91748C4.81046 10.3697 5.26074 10.9014 6.09066 10.7603C6.11077 10.8334 6.13132 10.9056 6.15272 10.9774C6.14116 10.9609 6.13389 10.9503 6.13389 10.9503C6.00934 11.0812 5.8835 11.2113 5.76023 11.3435C5.66735 11.4435 5.6605 11.4579 5.53338 11.444C5.38058 11.4271 5.22735 11.4106 5.07455 11.3937C5.07455 11.3937 4.48132 11.3988 4.52712 11.9101C4.57291 12.4215 4.25276 12.6318 3.87183 12.6622C3.65225 12.6795 3.52984 12.8801 3.51358 13.0802C3.50502 13.1883 3.52428 13.3015 3.5735 13.3986C3.64797 13.5443 3.74685 13.8107 3.6484 13.9573C3.54868 14.1059 3.40871 14.2393 3.29272 14.377C2.91436 14.825 3.68735 15.0881 3.68607 15.5407C3.68521 15.8355 3.46564 16.0728 3.55852 16.3751C3.67237 16.745 4.23992 16.5964 4.40727 16.9186C4.53183 17.158 4.44622 17.8108 4.80148 17.8809C4.98124 17.9164 5.16572 17.9139 5.34762 17.9003C5.44264 17.8936 5.54537 17.8497 5.64124 17.867C5.76579 17.8894 5.78206 17.9848 5.84883 18.0794C5.94256 18.2116 6.047 18.3361 6.14245 18.4674C6.32307 18.7166 6.57646 18.5705 6.79218 18.4603C7.03229 18.3374 7.32505 18.2466 7.59042 18.3471C7.98677 18.4974 8.12373 18.7081 8.4135 18.4071C8.70327 18.1064 8.67245 17.8809 9.13 17.8809L9.15097 17.8556L9.13984 17.9029C9.13984 17.9029 8.92754 19.3352 5.66949 19.2655C2.15334 19.3707 0.229844 19.5949 0 23H23.0114C23.0105 23 23.0996 20.0066 20.2511 19.4209ZM18.1269 8.69546C18.2412 9.42935 17.8589 10.3989 17.0868 10.3271C17.2679 9.50789 17.3333 8.68743 17.3423 7.97466C17.5251 7.98606 18.0301 8.07431 18.1269 8.69546ZM6.69715 3.58777C6.78704 3.46743 6.89233 3.41676 7.00704 3.39185C7.13715 3.36355 7.27968 3.3682 7.42735 3.34117C7.56945 3.31542 7.67988 3.19718 7.73424 3.06502C7.81256 2.87373 7.81085 2.67738 7.9675 2.52283C8.09291 2.39911 8.26883 2.33281 8.44389 2.31888C8.57614 2.30832 8.70797 2.32352 8.83766 2.34801C8.92797 2.36533 9.08463 2.44007 9.15953 2.39531C9.23315 2.35139 9.30505 2.16095 9.35556 2.0879C9.4142 2.00303 9.48396 1.91182 9.54859 1.83961C9.80412 1.55627 10.2347 1.69773 10.2347 1.69773C10.349 1.76529 10.7877 1.96713 10.9084 1.8793C11.1742 1.68506 11.44 1.33079 11.8303 1.47731C12.005 1.54318 12.0482 1.76445 11.9138 1.89957C11.8419 1.97178 11.8299 1.92449 11.7221 1.94138C11.6014 1.96038 11.4918 2.06679 11.4156 2.1542C11.1126 2.50045 10.6178 2.43753 10.2826 2.26441C9.9475 2.09128 9.80412 2.34295 9.80412 2.34295C9.68684 2.47385 9.56957 2.60517 9.45229 2.73607C9.30505 2.90033 9.20704 2.92905 8.97848 2.88344C8.77517 2.84291 8.50766 2.68498 8.33731 2.87626C8.25856 2.96452 8.22902 3.08444 8.20762 3.20014C8.18622 3.31584 8.1691 3.43576 8.10832 3.5371C8.03428 3.66083 7.90202 3.7419 7.76334 3.78624C7.62467 3.83015 7.47786 3.84113 7.33276 3.85422C7.13887 3.87153 6.63595 4.20343 6.61455 3.82171C6.60984 3.73726 6.64622 3.65534 6.69715 3.58777ZM6.31751 6.30376C6.31751 6.30376 10.114 8.73135 16.7234 6.27547C16.7234 6.27547 17.3333 9.91706 15.8742 12.3446C15.3486 13.2187 14.7858 14.1 14.0689 14.836C13.5621 15.3562 12.8794 15.8963 12.1916 16.1416C11.4473 16.4076 10.679 16.1885 10.0656 15.732C8.4349 14.4902 5.60186 12.006 6.31751 6.30376ZM4.91148 8.69546C5.0112 8.05488 5.54579 7.98099 5.71229 7.97381C5.72642 8.83734 5.82358 9.61768 5.98194 10.3237C5.18926 10.4238 4.79548 9.43906 4.91148 8.69546ZM8.94723 21.0551C6.12961 20.7861 3.67537 19.8668 3.67537 19.8668L7.17568 19.6299C7.17568 19.6299 10.0108 19.5442 10.0571 16.2653C10.0571 16.2653 11.4862 17.2969 12.9342 16.2683C12.9355 16.2675 12.9372 16.2666 12.9385 16.2658C12.9376 16.2877 12.8276 19.5733 16.2038 19.6591L19.2423 19.8313C19.2419 19.8318 15.8781 21.6606 8.94723 21.0551Z" fill="#989898"/>
</svg>
