<svg width="335" height="559" viewBox="0 0 335 559" fill="none" xmlns="http://www.w3.org/2000/svg">
<path fill-rule="evenodd" clip-rule="evenodd" d="M-122.398 35.3217C-220.68 16.0682 -337.257 -35.193 -415.666 40.4453C-495.406 117.368 -444.328 270.006 -481.68 381.909C-515.526 483.308 -635.272 550.831 -621.376 656.736C-607.561 762.022 -492.523 793.824 -419.476 855.972C-354.964 910.857 -300.699 993.138 -219.911 998.3C-139.901 1003.41 -70.6718 936.912 -3.85588 882.526C57.8188 832.326 101.666 765.761 149.281 697.792C217.422 600.523 338.988 523.519 334.036 400.196C329.174 279.088 211.805 214.451 127.159 146.785C52.1502 86.823 -31.8676 53.0567 -122.398 35.3217Z" fill="#893583"/>
</svg>
