<svg width="179" height="148" viewBox="0 0 179 148" fill="none" xmlns="http://www.w3.org/2000/svg">
<path d="M178.996 78.3451V85.0177C176.228 89.2913 173.815 93.8938 170.565 97.728C168.29 100.413 167.076 102.363 167.924 106.253C169.99 115.737 166.608 119.77 157.3 120.76C155.57 120.942 153.375 122.273 152.452 123.777C146.723 133.086 140.802 134.691 131.679 128.985C130.78 128.418 129.857 127.875 128.798 127.227C128.16 129.694 127.632 132.002 126.967 134.264C123.012 147.674 112.445 147.32 103.406 143.319C102.45 142.899 101.403 141.549 101.256 140.501C100.426 134.573 99.7364 128.617 99.3077 122.647C99.2298 121.58 100.342 119.988 101.331 119.334C114.45 110.679 117.52 97.012 118.461 82.3389C118.533 81.2225 117.436 79.4095 116.438 78.9408C111.773 76.76 108.622 73.899 110.886 67.4152C104.569 69.3681 99.7634 68.8571 97.8418 61.9209C93.7166 62.9527 89.0039 67.2752 87.2291 59.2617C81.635 65.472 80.6067 65.6966 73.4387 62.7282C72.1286 65.3776 71.4091 68.7269 69.3975 70.3804C67.2719 72.1315 63.9173 72.265 61.0033 73.1341C61.9386 76.3304 62.4753 80.1353 58.6409 81.9223C55.2113 83.5204 54.8216 86.069 55.8289 88.8226C59.0097 97.5132 62.5622 106.054 65.9289 114.67C66.7203 116.691 67.7876 118.745 67.9585 120.854C68.4561 127.019 68.663 133.223 68.7559 139.407C68.7769 140.767 68.2313 142.62 67.2929 143.43C59.6122 150.063 46.0077 149.458 39.1724 141.803C36.7741 139.101 34.5526 138.57 31.3298 138.655C22.7858 138.873 18.5467 134.515 17.4644 125.635C17.2426 123.836 15.8426 121.697 14.3706 120.636C6.45306 114.911 4.29757 108.29 7.82913 99.2611C8.33877 97.9591 8.89938 96.6865 9.28611 95.7491C6.9927 93.1842 4.76824 90.9969 2.89154 88.5264C0.049507 84.7866 -1.00576 80.412 1.09278 76.0407C2.89154 72.2943 6.78884 69.1012 7.21754 65.3451C7.66123 61.5173 4.51942 57.3901 3.83889 53.2369C2.51381 45.2396 5.62865 40.9139 13.2074 39.1432C15.3839 38.6354 17.6023 38.3197 19.6979 37.9356C21.8174 18.7806 23.9639 16.87 41.0281 18.7806C45.1323 10.2332 50.5465 2.8544 60.2148 0.654087C69.7692 -1.52344 77.7707 2.62981 85.0136 8.21195C85.6132 7.93528 85.943 7.86368 86.1739 7.67489C98.7981 -2.77332 103.931 -2.58779 115.976 8.41701C116.924 9.28281 119.01 9.46834 120.347 9.10054C133.895 5.39321 141.207 9.59203 144.331 23.728C145.188 27.6339 146.783 29.0042 150.368 29.6747C165.94 32.5748 171.576 41.8122 167.813 57.7286C167.597 58.6498 167.04 59.5807 167.115 60.4628C167.22 61.6898 167.49 63.096 168.179 64.0431C171.687 68.8799 175.368 73.5897 178.996 78.3451Z" fill="#050205"/>
</svg>
