<svg width="151" height="27" viewBox="0 0 151 27" fill="none" xmlns="http://www.w3.org/2000/svg">
<g clip-path="url(#clip0_7_3393)">
<path d="M75.3273 13.5907C75.8284 13.5907 79.5093 13.1823 79.5093 9.21638C79.5093 5.06789 76.5559 4.86621 73.0749 4.86621H68.0659V5.09511C69.1685 5.09511 69.518 6.29005 69.518 7.86615V19.7217C69.518 21.4501 69.141 22.5422 68.0659 22.5422V22.7711H73.0749C77.4075 22.7711 80.6877 22.644 80.6877 18.2192C80.6867 13.9195 76.9546 13.5907 75.3273 13.5907ZM72.0963 5.19797H73.1989C74.7268 5.19797 76.807 5.45208 76.807 9.18915C76.807 13.0563 75.1521 13.5393 73.6006 13.5393H72.0973V5.19797H72.0963ZM73.1989 22.4433H72.0963V13.8701H73.5996C75.4533 13.8701 77.881 13.9971 77.881 18.1184C77.882 22.4928 75.602 22.4433 73.1989 22.4433Z" fill="white"/>
<path d="M85.9003 20.4336V4L82.4429 4.68772V5.01847C83.4697 5.22317 83.6961 5.57913 83.6961 6.46751V20.4336C83.6961 21.7314 83.6449 22.161 82.6939 22.4433V22.7721H86.9035V22.4433C86.0273 22.2134 85.9003 21.8302 85.9003 20.4336Z" fill="white"/>
<path d="M94.2923 21.678C92.3145 21.4733 90.8112 20.1019 90.7108 16.6684H98.7243C98.7243 12.6742 96.7219 10.7915 93.8148 10.7915C90.7108 10.7915 88.355 13.2338 88.355 16.9991C88.355 20.355 90.5838 23 93.7144 23C96.6707 23 98.047 20.9661 98.3226 19.7702L98.0234 19.6431C97.5744 20.8895 95.7955 21.8303 94.2923 21.678ZM93.739 11.1233C94.944 11.1233 96.5713 12.6217 96.5713 16.3376H90.7108C90.7108 13.133 92.3135 11.1233 93.739 11.1233Z" fill="white"/>
<path d="M110.572 20.4064V14.8613C110.572 11.7837 109.144 10.7925 107.115 10.7925C105.538 10.7925 103.808 11.9874 103.283 13.4647V10.7925L99.8286 11.5296V11.8362C100.88 12.1145 101.079 12.4462 101.079 13.3376V20.4336C101.079 21.7314 101.054 22.161 100.103 22.4433V22.7721H104.31V22.4433C103.41 22.2144 103.283 21.8302 103.283 20.4336V14.2512C103.485 13.3376 104.536 12.0651 105.838 12.0651C107.493 12.0651 108.392 13.2076 108.392 14.9379V20.4054C108.392 21.7022 108.344 22.1852 107.392 22.4675V22.7711H111.599V22.4675C110.723 22.2386 110.572 21.805 110.572 20.4064Z" fill="white"/>
<path d="M124.123 20.7896V4L120.693 4.68772V5.01847C121.72 5.22317 121.97 5.55392 121.97 6.44231V11.7333C121.143 11.1484 120.116 10.7925 118.888 10.7925C115.533 10.7925 113.002 12.8022 113.002 16.743C113.002 20.3066 114.932 23 118.287 23C119.516 23 121.194 22.4151 121.971 21.1173V22.517C121.971 22.517 121.971 23.1018 122.672 22.9748L125.402 22.517V22.1862C124.398 22.1862 124.123 22.0339 124.123 20.7896ZM121.97 19.2629C121.97 21.0427 120.717 22.2629 119.065 22.2629C116.885 22.2629 115.607 20.4326 115.607 16.386C115.607 12.3172 117.286 11.1222 118.938 11.1222C120.466 11.1222 121.969 12.3424 121.969 14.8099V19.2629H121.97Z" fill="white"/>
<path d="M132.39 21.678C130.413 21.4733 128.909 20.1019 128.809 16.6684H136.822C136.822 12.6742 134.82 10.7915 131.913 10.7915C128.809 10.7915 126.453 13.2338 126.453 16.9991C126.453 20.355 128.682 23 131.813 23C134.769 23 136.145 20.9661 136.421 19.7702L136.121 19.6431C135.673 20.8895 133.894 21.8303 132.39 21.678ZM131.838 11.1233C133.043 11.1233 134.67 12.6217 134.67 16.3376H128.81C128.809 13.133 130.413 11.1233 131.838 11.1233Z" fill="white"/>
<path d="M149.723 20.7896V4L146.293 4.68772V5.01847C147.32 5.22317 147.57 5.55392 147.57 6.44231V11.7333C146.743 11.1484 145.716 10.7925 144.49 10.7925C141.132 10.7925 138.602 12.8022 138.602 16.743C138.602 20.3066 140.531 23 143.888 23C145.114 23 146.793 22.4151 147.569 21.1173V22.517C147.569 22.517 147.569 23.1018 148.27 22.9748L151 22.517V22.1862C150 22.1862 149.723 22.0339 149.723 20.7896ZM147.57 19.2629C147.57 21.0427 146.317 22.2629 144.665 22.2629C142.485 22.2629 141.207 20.4326 141.207 16.386C141.207 12.3172 142.886 11.1222 144.538 11.1222C146.066 11.1222 147.569 12.3424 147.569 14.8099V19.2629H147.57Z" fill="white"/>
<path d="M61.847 21.678C59.8692 21.4733 58.3659 20.1019 58.2655 16.6684H66.282C66.282 12.6742 64.2776 10.7915 61.3724 10.7915C58.2655 10.7915 55.9106 13.2338 55.9106 16.9991C55.9106 20.355 58.1414 23 61.2701 23C64.2264 23 65.6056 20.9661 65.8803 19.7702L65.5781 19.6431C65.1292 20.8895 63.3502 21.8303 61.847 21.678ZM61.2966 11.1233C62.4987 11.1233 64.126 12.6217 64.126 16.3376H58.2655C58.2655 13.133 59.8692 11.1233 61.2966 11.1233Z" fill="white"/>
<path d="M41.3066 22.2173H37.0557V22.7729H41.3066V22.2173Z" fill="white"/>
<path d="M48.471 13.5907C48.972 13.5907 52.6559 13.1824 52.6559 9.21638C52.6559 5.06789 49.6996 4.86621 46.2185 4.86621H41.2332H41.2096H37.0089H37V5.42082H37.0079H40.926V6.4645H37.0079V7.02214H40.926V8.09808H37.0079V8.65572H40.926V9.62982H37.0541V10.1854H40.926V11.1979H37.0886V11.7535H40.926V11.9199L40.0203 12.7165H37.0069V13.2711H39.658C39.5527 13.5524 39.5212 13.8943 39.6856 14.2321H37.0059V14.7867H40.1473L41.0668 15.6761V15.782H37.1083V16.3376H41.0678V17.4508H37.0069V18.0055H41.0678V18.8777H37.0738V19.4333H41.0678V20.6444H37.0738V21.2H41.0678V22.636H41.2066V22.7731H46.2155C50.5482 22.7731 53.8304 22.646 53.8304 18.2213C53.8333 13.9195 50.1012 13.5907 48.471 13.5907ZM45.2399 5.19797H46.3425C47.8704 5.19797 49.9506 5.45208 49.9506 9.18915C49.9506 13.0563 48.2957 13.5393 46.7442 13.5393H45.2399V5.19797ZM42.6616 19.7217C42.6616 21.192 42.3899 22.2024 41.6437 22.4706L41.6427 15.4462L40.3777 14.223C39.9012 13.7622 40.3009 13.2449 40.3816 13.1511L41.501 12.1669V5.12738C42.3732 5.32402 42.6616 6.44131 42.6616 7.86817V19.7217ZM46.3425 22.4434H45.2399V13.8701H46.7432C48.597 13.8701 51.0246 13.9971 51.0246 18.1184C51.0256 22.4928 48.7486 22.4434 46.3425 22.4434Z" fill="white"/>
</g>
<path d="M23.7611 22.7985C20.1051 22.558 17.5986 22.9705 16.1709 21.0457L16.1106 20.8945L16.1904 20.9906C16.7268 20.9906 16.6911 21.2553 17.0311 21.6083C17.3711 21.9612 17.5318 21.7144 17.9969 21.5379C18.3082 21.4199 18.6517 21.5265 18.9335 21.6707C19.1871 21.8006 19.4839 21.9721 19.6958 21.6792C19.8073 21.525 19.9303 21.3788 20.0403 21.2236C20.1187 21.1131 20.1382 21.0006 20.2839 20.9743C20.3964 20.954 20.5169 21.0055 20.6284 21.0134C20.8418 21.0293 21.0583 21.0323 21.2692 20.9906C21.6865 20.9084 21.5861 20.1415 21.7317 19.8609C21.9281 19.4827 22.5945 19.6572 22.7276 19.223C22.8366 18.8686 22.5789 18.59 22.5779 18.2435C22.5764 17.7121 23.4834 17.4033 23.0394 16.8773C22.9034 16.7162 22.7391 16.5591 22.6221 16.3846C22.5066 16.2126 22.6226 15.8998 22.71 15.7288C22.7683 15.6148 22.7909 15.4819 22.7803 15.355C22.7612 15.1201 22.6171 14.8846 22.36 14.8643C21.913 14.8291 21.5374 14.5818 21.5911 13.9815C21.6448 13.3812 20.9488 13.3752 20.9488 13.3752C20.7695 13.3951 20.5897 13.4144 20.4104 13.4342C20.2613 13.4506 20.2532 13.4332 20.1443 13.3162C20.0378 13.2017 19.9293 13.0887 19.8213 12.9757C19.857 12.8632 19.8902 12.7506 19.9213 12.6371C20.8725 12.7819 21.3917 12.1672 21.6333 11.6428C22.4152 9.60097 21.0532 8.97887 21.0532 8.97887L20.9965 8.96896L21.0131 8.76175C21.6388 8.74688 21.5775 7.82786 21.2114 7.5116C20.995 7.32472 20.9995 6.99409 21.0904 6.74723C21.1783 6.5093 21.4545 6.31251 21.4435 6.04384C21.4369 5.8867 21.3305 5.74047 21.2265 5.62894C21.1035 5.49659 20.9804 5.36374 20.8574 5.23139C20.6736 5.0341 20.6756 4.74312 20.7765 4.49081C20.8403 4.33021 20.9011 4.19538 20.8514 4.0194C20.8021 3.84591 20.6329 3.64218 20.4481 3.59509C20.2583 3.547 19.9745 3.32493 19.8796 3.15937C19.7259 2.89119 19.8208 2.55759 19.7089 2.27554C19.5918 1.9806 19.3196 1.87947 19.0138 1.89286C18.3434 1.9226 18.3429 1.65145 18.0225 1.06454C17.6267 0.339337 16.9297 1.2306 16.428 0.764646C16.3085 0.65361 16.1884 0.542573 16.0689 0.431537C15.7179 -0.0502824 15.1685 0.311082 15.1685 0.311082C14.7411 0.627338 14.3137 0.492012 13.9933 0.190627C13.6729 -0.110758 13.2912 -0.0354111 12.9402 0.280845C12.5892 0.597101 12.3451 0.537121 11.8414 0.265974C11.3377 -0.00517359 11.0479 0.326449 11.0479 0.326449C10.9344 0.456322 10.8124 0.579255 10.6949 0.705658C10.6487 0.755228 10.5934 0.843462 10.5347 0.877666C10.4608 0.920296 10.2489 0.95549 10.163 0.928723C10.161 0.928227 9.67489 0.778031 9.67489 0.778031C9.14055 0.612467 8.88141 0.973832 8.86584 1.29009C8.85078 1.60634 8.49974 1.96771 8.103 1.87749C7.70626 1.78727 7.21813 1.96771 7.26383 2.58535C7.30953 3.20299 7.17243 3.33831 6.56175 3.56435C5.95107 3.79039 6.15497 4.22016 6.15497 4.22016C6.34932 4.69058 6.49044 5.00436 6.049 5.38753C5.60757 5.77071 5.53726 5.92785 5.76677 6.45031C5.99627 6.97278 6.19063 6.92073 5.67838 7.68758C5.16664 8.45442 6.03745 8.78258 6.03745 8.78258V8.96797L5.9797 8.97838C5.9797 8.97838 4.61773 9.60097 5.39966 11.6423C5.64423 12.1732 6.17254 12.7972 7.14631 12.6317C7.16991 12.7174 7.19402 12.8022 7.21913 12.8865C7.20557 12.8671 7.19703 12.8547 7.19703 12.8547C7.05089 13.0084 6.90325 13.1611 6.75861 13.3162C6.64964 13.4337 6.6416 13.4506 6.49245 13.4342C6.31316 13.4144 6.13337 13.3951 5.95409 13.3752C5.95409 13.3752 5.25804 13.3812 5.31177 13.9815C5.36551 14.5818 4.98986 14.8286 4.5429 14.8643C4.28527 14.8846 4.14164 15.1201 4.12256 15.355C4.11252 15.4819 4.13512 15.6148 4.19287 15.7288C4.28025 15.8998 4.39626 16.2126 4.28076 16.3846C4.16374 16.5591 3.99952 16.7157 3.86343 16.8773C3.41948 17.4033 4.32646 17.7121 4.32495 18.2435C4.32395 18.5895 4.06632 18.8681 4.17529 19.223C4.30888 19.6572 4.9748 19.4827 5.17116 19.8609C5.3173 20.142 5.21686 20.9084 5.63368 20.9906C5.84461 21.0323 6.06106 21.0293 6.27449 21.0134C6.38598 21.0055 6.50651 20.954 6.619 20.9743C6.76514 21.0006 6.78422 21.1126 6.86257 21.2236C6.97255 21.3788 7.09509 21.525 7.20708 21.6792C7.41901 21.9716 7.71631 21.8001 7.96942 21.6707C8.25115 21.5265 8.59466 21.4199 8.90602 21.5379C9.37106 21.7144 9.53176 21.9617 9.87175 21.6083C10.2117 21.2553 10.1756 20.9906 10.7124 20.9906L10.737 20.9609L10.724 21.0164C10.724 21.0164 10.4749 22.6978 6.65214 22.616C2.52657 22.7395 0.269682 23.0027 0 27H26.9998C26.9988 27 27.1033 23.486 23.7611 22.7985ZM21.2687 10.2077C21.4028 11.0692 20.9543 12.2074 20.0483 12.1231C20.2608 11.1614 20.3376 10.1983 20.3482 9.36155C20.5626 9.37494 21.1552 9.47854 21.2687 10.2077ZM7.85793 4.21174C7.96339 4.07046 8.08693 4.01098 8.22152 3.98173C8.37419 3.94852 8.54142 3.95397 8.71468 3.92225C8.88141 3.89201 9.01098 3.75321 9.07476 3.59806C9.16667 3.37351 9.16465 3.14301 9.34846 2.96158C9.4956 2.81634 9.70201 2.73852 9.90741 2.72216C10.0626 2.70977 10.2173 2.72761 10.3694 2.75636C10.4754 2.77669 10.6592 2.86443 10.7471 2.81188C10.8335 2.76033 10.9178 2.53677 10.9771 2.45101C11.0459 2.35138 11.1278 2.24431 11.2036 2.15954C11.5034 1.82693 12.0086 1.99299 12.0086 1.99299C12.1427 2.0723 12.6575 2.30924 12.7991 2.20614C13.1109 1.97812 13.4228 1.56223 13.8808 1.73423C14.0857 1.81156 14.1364 2.07131 13.9787 2.22993C13.8944 2.3147 13.8803 2.25918 13.7538 2.27901C13.6121 2.30131 13.4836 2.42623 13.3942 2.52884C13.0386 2.93531 12.4581 2.86145 12.0649 2.65822C11.6716 2.45498 11.5034 2.75042 11.5034 2.75042C11.3658 2.90408 11.2282 3.05824 11.0906 3.21191C10.9178 3.40474 10.8028 3.43845 10.5347 3.38491C10.2961 3.33732 9.98224 3.15193 9.78236 3.37648C9.68996 3.48008 9.65531 3.62086 9.6302 3.75668C9.60509 3.89251 9.585 4.03329 9.51369 4.15225C9.4268 4.29749 9.27162 4.39267 9.10891 4.44471C8.9462 4.49627 8.77394 4.50915 8.6037 4.52452C8.3762 4.54485 7.78611 4.93446 7.761 4.48635C7.75548 4.38721 7.79817 4.29105 7.85793 4.21174ZM7.41248 7.40007C7.41248 7.40007 11.867 10.2498 19.622 7.36686C19.622 7.36686 20.3376 11.6418 18.6256 14.4915C18.0089 15.5176 17.3485 16.5522 16.5073 17.4162C15.9127 18.0269 15.1117 18.6609 14.3047 18.9489C13.4313 19.2612 12.5299 19.0039 11.8102 18.468C9.89686 17.0102 6.5728 14.094 7.41248 7.40007ZM5.76275 10.2077C5.87976 9.45573 6.50701 9.36899 6.70236 9.36056C6.71894 10.3743 6.83294 11.2903 7.01875 12.1191C6.08868 12.2366 5.62665 11.0806 5.76275 10.2077ZM10.498 24.7168C7.19201 24.4011 4.31239 23.3219 4.31239 23.3219L8.41939 23.0438C8.41939 23.0438 11.746 22.9432 11.8002 19.0941C11.8002 19.0941 13.4771 20.3051 15.176 19.0976C15.1775 19.0966 15.1795 19.0956 15.181 19.0946C15.18 19.1204 15.0509 22.9774 19.0123 23.078L22.5774 23.2803C22.5769 23.2808 18.6301 25.4276 10.498 24.7168Z" fill="white"/>
<defs>
<clipPath id="clip0_7_3393">
<rect width="114" height="19" fill="white" transform="translate(37 4)"/>
</clipPath>
</defs>
</svg>
