<svg width="114" height="163" viewBox="0 0 114 163" fill="none" xmlns="http://www.w3.org/2000/svg">
<path d="M16.4279 75.5228C16.8962 72.7118 17.4249 69.8948 17.814 67.0854C18.356 63.0576 20.6583 60.7797 24.3236 59.2022C28.2932 57.4979 32.3001 55.6259 35.7912 53.1475C42.9693 48.0198 44.2458 38.6569 41.453 29.4094C39.8724 24.1957 39.4073 18.6671 38.5628 13.2483C38.4661 12.6194 38.9798 11.287 39.2593 11.2721C42.463 11.0584 43.4009 6.67001 47.4004 7.40023C50.0354 7.87995 52.9602 6.35003 55.7677 6.32066C56.9149 6.30656 58.4412 7.69014 59.1538 8.83056C59.8225 9.90229 59.6699 11.4731 59.8549 12.7681C66.6407 15.0696 68.4528 20.2182 64.6422 26.1679C56.7276 38.5882 60.5673 51.2837 74.1346 57.5891C74.3662 57.7003 74.5979 57.8115 74.842 57.8669C83.9133 59.6487 86.8009 65.9025 86.8269 74.288C86.8289 77.9105 87.538 81.6345 86.9349 85.1394C83.607 104.864 86.4555 124.755 85.5033 144.529C85.4482 145.574 85.3096 146.639 84.4138 147.65C84.3919 127.91 84.3699 108.17 84.3497 88.1559C82.7352 88.1424 81.5734 88.1336 79.8192 88.1276C79.8457 108.202 79.8617 128.234 79.8777 148.266C79.5419 148.269 79.1873 148.266 78.8556 148.25C78.8313 128.255 78.8216 108.283 78.7991 88.0139C77.2012 87.9258 76.0142 87.8526 74.4122 87.7832C74.4369 108.131 74.4634 128.205 74.4711 148.274C74.1353 148.277 73.7995 148.279 73.4637 148.281C73.4476 128.249 73.417 108.193 73.4008 87.9847C71.709 87.8754 70.6159 87.8235 69.041 87.721C69.0675 107.795 69.075 127.688 69.1013 147.586C68.7655 147.588 68.4109 147.586 68.0751 147.588C68.0531 127.848 68.027 108.127 68.0217 88.3123C66.9596 88.0325 66.4171 87.8116 65.8371 87.7585C65.2384 87.7011 64.6253 87.7971 63.3822 87.8873C63.4004 107.999 63.4206 128.012 63.4408 148.026C63.0674 148.02 62.7128 148.018 62.3394 148.011C62.3151 128.016 62.2949 108.003 62.2872 87.9329C60.6539 87.9151 59.4691 87.9207 57.8547 87.9072C57.873 108.195 57.8996 128.269 57.9261 148.342C57.6319 148.335 57.3149 148.341 57.0208 148.333C57.0047 128.301 56.9699 108.264 56.9598 87.9393C55.3327 87.8055 54.1499 87.7137 52.5269 87.5612C52.5495 107.83 52.5655 127.862 52.5815 147.895C52.2457 147.897 51.9287 147.903 51.5928 147.906C51.5665 128.008 51.559 108.115 51.5386 87.9246C49.8449 87.9127 48.7018 87.9081 47.0269 87.9005C47.0468 107.738 47.0751 127.538 47.0805 147.353C46.7447 147.355 46.3901 147.353 46.0542 147.355C46.0406 127.578 46.0123 107.778 45.9838 87.8012C44.2713 87.785 43.0865 87.7906 41.4533 87.7729C41.4695 107.982 41.4918 128.074 41.5183 148.148C41.1825 148.15 40.8467 148.152 40.515 148.136C40.4885 128.062 40.4662 107.969 40.4499 87.7608C38.7186 87.7405 37.5339 87.746 36.055 87.7437C36.0795 107.915 36.0892 127.887 36.1177 147.864C35.8006 147.87 35.4836 147.877 35.1666 147.883C35.1485 127.948 35.1264 108.032 35.1102 87.8233C33.3184 87.8087 32.1753 87.8042 30.5379 87.8051C30.5684 107.684 30.5779 127.48 30.6062 147.28C30.2516 147.278 29.9157 147.28 29.5611 147.278C29.5328 127.478 29.5275 107.664 29.499 87.6871C27.8658 87.6694 26.779 87.6776 25.0477 87.6572C25.0722 107.829 25.0821 127.977 25.1108 148.13C24.7374 148.123 24.3828 148.121 24.0095 148.115C23.983 128.041 23.9711 107.99 23.9527 87.7027C22.3382 87.6892 21.1534 87.6948 19.5994 87.6754C19.5969 107.88 19.6192 127.972 19.6457 148.046C19.3662 148.061 19.0638 148.091 18.7843 148.106C18.63 146.23 18.3588 144.348 18.363 142.469C18.3105 125.346 18.3415 108.202 18.2328 91.066C18.2251 89.7721 19.3385 87.5184 16.4412 87.5079C16.4201 83.5286 16.4219 79.5351 16.4279 75.5228ZM60.6965 75.5903C64.7711 68.8978 61.1973 60.7655 53.9482 60.1015C51.8011 66.9959 54.7705 71.8195 60.6965 75.5903ZM42.8894 75.5681C48.7652 71.7703 51.8658 66.9714 49.7074 59.9235C42.3536 60.8804 38.9495 68.3709 42.8894 75.5681ZM53.7833 80.6802C55.4617 79.9642 56.7022 79.4426 57.6195 79.0436C56.3308 77.4789 55.2154 76.1102 53.7721 74.3538C53.7705 76.6637 53.7808 78.389 53.7833 80.6802ZM50.0381 74.1145C48.1586 75.8226 46.8667 77.0177 45.0371 78.6784C47.0821 79.416 48.4343 79.8986 50.041 80.4782C50.049 78.2284 50.0492 76.5447 50.0381 74.1145Z" fill="#050205"/>
</svg>
