<svg width="202" height="159" viewBox="0 0 202 159" fill="none" xmlns="http://www.w3.org/2000/svg">
<path d="M155.28 24.506C155.28 33.6038 155.28 42.7278 155.28 51.8255C153.835 56.611 153.389 56.874 148.529 55.7433C145.588 55.0597 142.672 54.192 139.704 53.6398C138.155 53.3506 136.421 53.1928 134.898 53.5346C111.758 58.7672 88.6712 64.1048 65.5578 69.3636C57.3894 71.2305 53.2657 78.251 56.26 86.1918C57.5207 89.5049 57.3368 92.2132 55.2882 95.0003C52.005 99.4703 51.4009 104.414 53.2657 109.594C54.3689 112.644 53.8698 115.115 51.9525 117.745C49.2472 121.452 48.2491 125.607 49.5886 130.287C50.324 132.864 50.2715 135.703 50.4816 138.438C50.6918 141.357 48.9583 142.303 46.3317 142.277C42.6284 142.251 38.925 142.277 35.1953 142.277C34.6963 145.906 36.2985 148.035 38.5047 149.929C43.7315 154.425 57.4682 154.03 61.119 145.064C62.0383 142.803 63.1677 140.62 64.2446 138.438C68.0268 130.76 72.702 127.999 80.8967 130.182C86.3073 131.602 91.3765 134.441 96.4457 136.939C102.802 140.068 108.764 144.091 115.33 146.589C122.448 149.298 130.013 149.008 136.973 145.222C144.038 141.409 145.404 133.653 140.23 127.526C136.605 123.24 131.772 120.768 126.44 119.901C120.032 118.849 113.492 118.744 107.031 117.902C105.849 117.745 104.851 116.062 103.747 115.063C104.903 114.037 106.006 112.223 107.267 112.091C110.839 111.723 114.49 111.776 118.088 112.091C126.519 112.854 134.661 114.642 141.543 120.032C153.966 129.761 151.996 145.8 137.524 151.927C128.016 155.95 118.377 155.424 109.105 151.033C103.747 148.482 98.757 145.248 93.504 142.514C89.4066 140.358 85.283 138.096 80.923 136.597C75.0921 134.599 72.3342 136.045 69.7077 141.541C68.5521 143.96 67.554 146.431 66.3458 148.824C63.6405 154.188 59.2279 157.291 53.3445 158.343C52.5566 158.474 51.7949 158.763 51.0332 159C48.6956 159 46.358 159 44.0467 159C43.285 158.763 42.5496 158.5 41.7879 158.29C35.3792 156.555 30.7302 152.979 29.1806 146.169C28.8917 144.959 28.5765 143.749 28.2088 142.277C24.8206 142.277 21.59 142.33 18.3331 142.251C15.7854 142.198 14.4721 141.067 14.8923 138.28C17.8078 117.745 20.6707 97.209 23.6124 76.6734C24.0064 74.0177 23.4285 72.5452 20.8283 71.2568C11.294 66.5239 4.88532 58.9249 1.70724 48.7491C0.893015 46.1197 0.551568 43.3326 0 40.6243C0 38.5208 0 36.4172 0 34.3137C0.183856 33.6564 0.446508 33.0253 0.525303 32.3417C1.7335 22.6655 6.56629 14.9876 13.8155 8.65074C19.3049 3.86522 25.9237 1.63023 32.8314 0C35.6418 0 38.4259 0 41.2363 0C44.9397 0.946585 48.6168 1.94576 52.3465 2.81346C76.7993 8.41409 101.305 13.7781 125.679 19.7205C133.427 21.6137 140.702 22.4551 148.424 19.7994C153.704 17.9851 154.071 18.5899 155.28 24.506ZM20.2504 37.8108C20.2767 46.7771 27.4996 53.9553 36.4823 53.9291C45.1761 53.9028 52.4253 46.6193 52.4253 37.8634C52.4253 28.5816 45.2023 21.6663 35.5893 21.7189C27.0268 21.7452 20.2242 28.8971 20.2504 37.8108ZM148.319 26.3203C144.931 27.1617 141.858 27.7665 138.916 28.7657C137.971 29.0812 136.815 30.4748 136.763 31.4477C136.526 35.6284 136.553 39.8355 136.736 44.0162C136.789 44.9628 137.761 46.3827 138.601 46.6719C141.674 47.6711 144.852 48.2758 148.319 49.1172C148.319 41.4394 148.319 34.0771 148.319 26.3203ZM97.7852 33.8141C98.4156 33.3408 99.1772 32.7887 99.9127 32.2628C99.256 31.6054 98.6782 30.5011 97.9165 30.3433C89.7743 28.6079 81.5796 27.004 73.3848 25.4789C72.7545 25.3474 71.9403 26.1626 71.2048 26.5307C71.6513 27.2143 71.9928 28.3976 72.5706 28.529C80.8442 30.317 89.1177 31.9998 97.7852 33.8141ZM85.6507 39.2044C89.7218 39.2044 93.7929 39.2833 97.864 39.1255C98.6782 39.0992 99.4662 38.1789 100.254 37.6793C99.5712 37.1798 98.9146 36.2332 98.2317 36.2332C89.748 36.128 81.2644 36.128 72.807 36.2332C72.1241 36.2332 71.4412 37.1798 70.7321 37.6793C71.52 38.1789 72.2817 39.0992 73.0959 39.1255C77.2721 39.2833 81.4745 39.2044 85.6507 39.2044ZM73.5424 50.1164C81.921 48.381 89.6693 46.8297 97.3649 45.0943C98.3105 44.8839 99.0459 43.6744 99.8864 42.9381C98.757 42.6226 97.5751 41.8864 96.5507 42.0967C88.9076 43.464 81.2644 44.9891 73.6475 46.5667C72.702 46.7771 71.9403 47.75 71.0735 48.381C71.9928 49.0384 72.8858 49.6694 73.5424 50.1164Z" fill="#050205"/>
<path d="M36.0358 46.9611C30.8353 46.9611 26.9744 42.9381 27.0269 37.5478C27.0794 32.4205 31.2556 28.2923 36.351 28.3712C41.4727 28.4764 45.4913 32.3942 45.5176 37.3375C45.5438 43.2011 41.8667 46.9611 36.0358 46.9611Z" fill="#050205"/>
<path d="M194.681 55.5546C195.031 55.7907 195.354 56.0531 195.704 56.2892C196.216 56.6303 196.458 57.0764 196.108 57.5749C195.731 58.1521 195.193 58.0472 194.655 57.7323C193.389 56.9714 192.124 56.1581 190.805 55.4759C186.417 53.2719 181.734 52.0125 176.861 51.3303C176.538 51.2778 176.135 51.2516 175.973 51.0417C175.785 50.8318 175.623 50.3595 175.731 50.1233C175.865 49.861 176.323 49.5461 176.619 49.5723C177.561 49.6248 178.503 49.7822 179.419 49.9397C184.829 50.9629 189.971 52.6684 194.681 55.5546Z" fill="#050205"/>
<path d="M198.907 47.1972C198.933 47.4379 199.171 47.8711 199.039 48.184C198.854 48.6413 198.38 48.7617 197.853 48.4969C192.185 45.7531 186.042 45.4643 179.821 45.5846C179.162 45.6087 178.529 45.5846 178.503 44.8144C178.476 44.0923 179.083 44.0201 179.689 43.9961C185.726 43.8276 191.657 44.1645 197.273 46.4511C197.773 46.6436 198.195 46.8843 198.907 47.1972Z" fill="#050205"/>
<path d="M183.277 39.4989C183.25 39.1348 183.087 38.6026 183.25 38.4065C183.468 38.1264 184.039 37.9303 184.393 37.9863C186.079 38.2944 187.738 38.7706 189.425 39.0227C192.308 39.4429 195.191 39.4149 198.02 38.5465C198.808 38.2944 199.57 37.9863 200.304 37.6222C200.903 37.3421 201.42 37.258 201.746 37.9023C202.127 38.6306 201.664 39.0507 201.066 39.3309C198.564 40.5913 195.898 41.1235 193.151 41.1516C190.105 41.1796 187.113 40.7314 184.202 39.8631C183.957 39.723 183.713 39.639 183.277 39.4989Z" fill="#050205"/>
<path d="M190.801 22.5871C187.167 26.6151 182.376 28.6788 177.058 29.8723C176.452 29.9966 175.873 29.9717 175.715 29.2507C175.584 28.5047 176.163 28.3556 176.742 28.2312C180.138 27.5102 183.35 26.3664 186.141 24.4022C187.404 23.5071 188.484 22.3882 189.616 21.3439C190.09 20.8964 190.537 20.225 191.248 20.7969C191.959 21.3439 191.432 21.9158 190.985 22.4131C190.932 22.4379 190.853 22.5125 190.801 22.5871Z" fill="#050205"/>
<path d="M197.208 31.4232C195.944 32.2535 194.892 33.1696 193.707 33.7422C190.075 35.4887 186.18 35.6605 182.285 35.4887C181.733 35.4601 181.259 35.1738 181.312 34.4866C181.338 33.7136 181.864 33.5705 182.47 33.5991C185.286 33.7136 188.075 33.5991 190.812 32.8261C192.628 32.3107 194.286 31.5663 195.681 30.1348C195.918 29.8771 196.602 29.8771 196.918 30.0489C197.102 30.1921 197.076 30.8219 197.208 31.4232Z" fill="#050205"/>
</svg>
