<svg width="485" height="914" viewBox="0 0 485 914" fill="none" xmlns="http://www.w3.org/2000/svg">
<path fill-rule="evenodd" clip-rule="evenodd" d="M277.28 10.4905C181.721 26.9069 58.6777 20.8995 13.4891 115.57C-32.467 211.848 65.8588 331.176 70.2179 444.286C74.1677 546.78 -11.2191 648.34 37.4959 738.515C85.9265 828.162 200.938 817.253 288.282 847.935C365.419 875.032 442.626 930.197 517.537 907.142C591.726 884.31 631.72 800.976 673.663 729.33C712.379 663.196 729.369 588.502 749.293 511.258C777.804 400.715 861.604 290.033 815.045 181.179C769.323 74.2802 640.999 56.5542 541.269 24.8998C452.895 -3.15049 365.301 -4.63123 277.28 10.4905Z" fill="#FFFBFF" stroke="#C984C2"/>
</svg>
