<svg width="136" height="351" viewBox="0 0 136 351" fill="none" xmlns="http://www.w3.org/2000/svg">
<path fill-rule="evenodd" clip-rule="evenodd" d="M94.4675 264.642C114.215 235.753 148.197 206.017 130.152 168.467C111.801 130.279 48.5601 122.562 11.7837 92.583C-21.5407 65.4179 -31.2731 15.7199 -72.3901 3.3605C-113.267 -8.92679 -139.823 23.4108 -172.269 37.2583C-200.924 49.4876 -238.44 54.0195 -250.712 79.4659C-262.865 104.667 -247.038 137.776 -235.401 168.169C-224.66 196.224 -205.556 221.089 -186.413 247.404C-159.018 285.062 -145.998 336.863 -99.5575 354.906C-53.9512 372.626 -14.9004 344.764 21.0817 328.024C52.967 313.191 76.2771 291.253 94.4675 264.642Z" fill="#EADAF0"/>
</svg>
