<svg width="1280" height="760" viewBox="0 0 1280 760" fill="none" xmlns="http://www.w3.org/2000/svg">
<rect width="1280" height="727" fill="#796090"/>
<g clip-path="url(#clip0_308_551)">
<path d="M286.435 668.907C285.713 666.784 285.136 664.78 284.326 662.868C283.925 662.149 283.313 661.57 282.572 661.208C275.504 657.318 268.171 654.221 259.906 654.057C259.46 654.045 258.854 653.421 258.641 652.936C258.427 652.452 258.514 651.734 258.414 650.362C257.543 651.101 256.817 651.397 256.616 651.907C256.134 653.087 255.459 653.52 254.224 653.384C251.739 653.108 249.25 652.87 246.757 652.67C245.308 652.554 244.609 651.758 244.569 650.384C244.441 648.095 244.434 645.801 244.549 643.511C244.606 642.784 245.471 641.65 246.131 641.514C248.855 640.969 251.612 640.609 254.384 640.436C255.05 640.395 255.791 641.234 256.466 641.711C256.979 642.075 257.441 642.51 258.446 643.348C258.032 640.289 259.415 639.978 261.305 639.922C275.351 639.518 289.225 640.623 302.788 644.475C304.19 644.881 305.442 645.781 306.76 646.432C305.82 647.397 304.915 648.386 303.945 649.326C297.395 655.533 298.545 655.226 301.805 663.647C302.447 663.428 303.116 662.98 303.73 663.044C304.608 663.175 305.448 663.492 306.193 663.973C306.95 664.431 307.506 665.232 308.252 665.698C309.6 666.529 312.111 674.437 311.391 675.839C310.18 678.174 312.164 682.001 314.715 682.33C338.123 685.287 350.472 711.408 338.017 731.481C336.701 733.6 334.778 734.648 332.752 735.691C323.698 740.361 313.942 743.522 303.869 745.048C302.565 745.176 301.248 744.989 300.03 744.504C277.617 736.436 271.387 708.006 288.384 691.278C289.526 690.156 289.782 689.26 289.145 687.868C288.431 686.304 288.459 684.284 286.197 683.777C285.838 683.696 285.577 682.906 285.39 682.395C284.771 680.693 284.223 678.966 283.637 677.247C283.189 675.929 282.509 674.622 283.841 673.396C283.906 673.317 283.951 673.223 283.973 673.124C283.995 673.024 283.994 672.921 283.969 672.822C283.13 670.606 284.073 669.379 286.435 668.907ZM262.216 642.78C261.854 643.557 260.982 644.566 261.005 645.556C261.04 647.047 262.183 647.639 263.794 647.634C267.801 647.595 271.823 647.728 275.819 647.914C277.34 647.983 278.256 647.375 278.634 646.023C278.743 645.721 278.783 645.4 278.753 645.081C278.722 644.762 278.621 644.455 278.458 644.179C278.294 643.904 278.071 643.669 277.805 643.49C277.54 643.312 277.238 643.194 276.921 643.146C272.284 642.1 267.584 642.167 262.216 642.78ZM293.683 653.094C293.246 651.81 292.316 650.752 291.099 650.153C289.882 649.554 288.476 649.463 287.192 649.9C285.908 650.338 284.85 651.267 284.251 652.485C283.652 653.702 283.561 655.107 283.999 656.392C284.436 657.676 285.366 658.734 286.583 659.333C287.8 659.932 289.206 660.023 290.49 659.586C291.774 659.148 292.832 658.219 293.431 657.001C294.03 655.784 294.121 654.378 293.683 653.094V653.094ZM297.366 650.934L301.135 647.274L295.662 645.929L297.366 650.934ZM303.23 679.016C304.179 677.261 302.169 670.827 300.317 669.164C300.737 672.759 302.252 675.562 303.246 679.011L303.23 679.016ZM291.191 672.7L294.318 681.883C295.16 680.036 292.78 673.33 291.191 672.7ZM290.056 682.525L286.994 673.533C286.241 675.707 288.654 682.119 290.056 682.525ZM289.503 672.935C288.509 674.762 290.945 681.568 292.576 681.959L289.503 672.935ZM305.522 677.52C306.613 676.145 304.284 669.188 302.518 668.698L305.522 677.52ZM296.584 681.116C297.463 679.389 295.211 672.829 293.491 672.032L296.584 681.116ZM296.507 671.248C295.814 673.393 298.039 679.396 299.508 680.062L296.507 671.248ZM301.807 679.222L298.754 670.258C297.779 671.884 300.142 678.733 301.807 679.222ZM307.906 676.814C308.606 674.808 306.409 668.526 304.782 667.64L307.906 676.814ZM309.976 675.782C310.651 673.613 308.557 667.631 306.895 666.734L309.976 675.782ZM284.884 674.446L284.154 674.743C284.945 677.611 285.786 680.457 287.096 683.135L287.765 682.908L284.884 674.446Z" fill="white" fill-opacity="0.15"/>
<path d="M253.79 693.915C258.524 681.49 258.812 668.503 259.352 655.27L264.253 655.391L263.568 668.951L264.122 669.098L268.163 656.428L271.919 657.544C272.724 665.034 258.656 693.544 253.79 693.915Z" fill="white" fill-opacity="0.15"/>
<path d="M283.397 663.72L271.013 667.937C271.703 665.32 272.221 662.753 273.122 660.325C273.347 659.687 274.981 658.906 275.572 659.151C278.137 660.195 280.543 661.59 282.991 662.89C283.184 662.988 283.228 663.353 283.397 663.72Z" fill="white" fill-opacity="0.15"/>
<path d="M263.149 643.337C267.66 643.609 272.063 643.837 276.461 644.218C276.862 644.254 277.19 645.18 277.555 645.692C277.031 646.047 276.507 646.703 275.981 646.701C271.836 646.707 267.684 646.627 263.528 646.461C263.222 646.4 262.937 646.263 262.697 646.064C262.458 645.865 262.273 645.608 262.158 645.319C262.075 644.856 262.671 644.243 263.149 643.337Z" fill="white" fill-opacity="0.15"/>
<path d="M290.196 658.475C289.71 658.665 289.19 658.756 288.668 658.743C288.146 658.73 287.631 658.612 287.155 658.397C286.679 658.182 286.25 657.874 285.895 657.491C285.539 657.109 285.264 656.658 285.085 656.167C284.716 655.143 284.769 654.013 285.232 653.027C285.694 652.041 286.53 651.279 287.554 650.908C288.563 650.613 289.646 650.705 290.591 651.168C291.536 651.63 292.273 652.429 292.66 653.407C292.995 654.406 292.925 655.497 292.464 656.445C292.004 657.393 291.189 658.122 290.196 658.475V658.475Z" fill="white" fill-opacity="0.15"/>
</g>
<g clip-path="url(#clip1_308_551)">
<path d="M1199.43 571.103C1199.9 568.909 1200.42 566.891 1200.7 564.834C1200.72 564.01 1200.49 563.199 1200.04 562.51C1195.95 555.558 1191.22 549.152 1184.2 544.794C1183.82 544.556 1183.62 543.71 1183.68 543.185C1183.74 542.66 1184.18 542.086 1184.8 540.856C1183.67 541.046 1182.9 540.93 1182.46 541.266C1181.45 542.036 1180.65 542.064 1179.65 541.316C1177.66 539.811 1175.64 538.336 1173.6 536.892C1172.41 536.052 1172.21 535.011 1172.88 533.809C1173.94 531.775 1175.1 529.799 1176.37 527.888C1176.79 527.293 1178.11 526.758 1178.75 526.978C1181.37 527.899 1183.93 528.997 1186.4 530.262C1186.99 530.567 1187.2 531.667 1187.54 532.421C1187.79 532.997 1187.97 533.606 1188.41 534.839C1189.61 531.998 1190.96 532.436 1192.61 533.352C1204.9 540.172 1216.27 548.201 1225.96 558.436C1226.96 559.501 1227.58 560.913 1228.38 562.146C1227.08 562.496 1225.8 562.885 1224.48 563.198C1215.68 565.194 1216.83 565.516 1215.34 574.422C1216 574.561 1216.8 574.517 1217.3 574.886C1217.99 575.446 1218.55 576.147 1218.94 576.942C1219.36 577.722 1219.43 578.694 1219.83 579.476C1220.57 580.879 1218.69 588.96 1217.36 589.799C1215.13 591.189 1214.88 595.493 1216.9 597.077C1235.53 611.565 1232.82 640.331 1211.86 651.238C1209.65 652.389 1207.46 652.309 1205.19 652.172C1195.02 651.569 1185.01 649.309 1175.57 645.481C1174.39 644.925 1173.35 644.093 1172.55 643.054C1157.39 624.678 1166.54 597.05 1189.69 591.336C1191.25 590.954 1191.93 590.314 1192.09 588.792C1192.27 587.083 1193.33 585.36 1191.64 583.77C1191.37 583.517 1191.55 582.704 1191.65 582.169C1191.99 580.389 1192.4 578.625 1192.77 576.848C1193.06 575.485 1193.14 574.015 1194.91 573.639C1195.01 573.604 1195.09 573.548 1195.16 573.473C1195.23 573.399 1195.29 573.309 1195.31 573.211C1195.72 570.878 1197.16 570.304 1199.43 571.103ZM1191.94 536.275C1191.23 536.758 1189.96 537.181 1189.48 538.045C1188.75 539.344 1189.43 540.436 1190.82 541.254C1194.28 543.266 1197.67 545.432 1201.02 547.631C1202.29 548.467 1203.39 548.412 1204.4 547.441C1204.65 547.238 1204.85 546.982 1204.98 546.692C1205.12 546.403 1205.19 546.086 1205.19 545.766C1205.19 545.446 1205.12 545.13 1204.98 544.841C1204.84 544.552 1204.64 544.296 1204.4 544.093C1200.94 540.828 1196.87 538.487 1191.94 536.275ZM1213.74 561.202C1214.02 559.875 1213.76 558.49 1213.01 557.354C1212.27 556.218 1211.11 555.422 1209.78 555.143C1208.46 554.864 1207.07 555.124 1205.94 555.865C1204.8 556.606 1204 557.769 1203.72 559.096C1203.45 560.424 1203.7 561.808 1204.45 562.945C1205.19 564.081 1206.35 564.876 1207.68 565.155C1209 565.435 1210.39 565.175 1211.52 564.434C1212.66 563.692 1213.46 562.53 1213.74 561.202V561.202ZM1218.01 561.224L1223.11 559.999L1219.09 556.05L1218.01 561.224ZM1208.72 588.367C1210.43 587.342 1211.98 580.783 1211.24 578.408C1209.77 581.714 1209.64 584.897 1208.73 588.37L1208.72 588.367ZM1201.59 576.792L1199.59 586.284C1201.26 585.126 1202.63 578.144 1201.59 576.792ZM1195.6 584.662L1197.55 575.366C1195.8 576.852 1194.6 583.597 1195.6 584.662ZM1200.02 576.132C1198.23 577.197 1196.85 584.293 1198.05 585.461L1200.02 576.132ZM1211.45 588.249C1213.09 587.624 1214.64 580.452 1213.37 579.129L1211.45 588.249ZM1201.93 586.781C1203.57 585.745 1204.98 578.954 1203.91 577.391L1201.93 586.781ZM1206.9 578.256C1205.21 579.747 1204.06 586.045 1204.98 587.367L1206.9 578.256ZM1207.39 587.818L1209.34 578.551C1207.67 579.452 1206.21 586.548 1207.39 587.818ZM1213.86 588.859C1215.49 587.491 1216.81 580.968 1215.86 579.375L1213.86 588.859ZM1216.17 589.028C1217.86 587.507 1219.11 581.294 1218.14 579.675L1216.17 589.028ZM1195.27 575.075L1194.49 574.958C1193.71 577.828 1192.98 580.705 1192.74 583.677L1193.43 583.822L1195.27 575.075Z" fill="white" fill-opacity="0.15"/>
<path d="M1158.6 575.951C1169.01 567.682 1175.88 556.659 1183.1 545.555L1187.25 548.16L1179.74 559.472L1180.15 559.882L1190.09 551.047L1192.75 553.923C1189.62 560.775 1162.97 578.115 1158.6 575.951Z" fill="white" fill-opacity="0.15"/>
<path d="M1199.47 565.091L1186.66 562.398C1188.59 560.5 1190.35 558.557 1192.36 556.928C1192.88 556.495 1194.69 556.656 1195.07 557.169C1196.74 559.376 1198.1 561.803 1199.54 564.17C1199.66 564.353 1199.51 564.689 1199.47 565.091Z" fill="white" fill-opacity="0.15"/>
<path d="M1192.45 537.23C1196.19 539.765 1199.87 542.208 1203.45 544.78C1203.78 545.015 1203.59 545.98 1203.64 546.606C1203.01 546.644 1202.23 546.941 1201.77 546.67C1198.21 544.561 1194.68 542.373 1191.19 540.109C1190.95 539.901 1190.78 539.638 1190.67 539.344C1190.57 539.051 1190.54 538.736 1190.59 538.428C1190.76 537.988 1191.58 537.764 1192.45 537.23Z" fill="white" fill-opacity="0.15"/>
<path d="M1207.99 564.05C1207.48 563.966 1206.98 563.779 1206.54 563.501C1206.1 563.223 1205.71 562.86 1205.41 562.432C1205.11 562.004 1204.9 561.52 1204.79 561.01C1204.68 560.499 1204.68 559.971 1204.77 559.458C1204.98 558.388 1205.6 557.444 1206.5 556.832C1207.4 556.22 1208.51 555.991 1209.58 556.194C1210.6 556.455 1211.48 557.088 1212.06 557.967C1212.64 558.847 1212.86 559.911 1212.69 560.949C1212.47 561.979 1211.86 562.882 1210.98 563.462C1210.1 564.042 1209.02 564.253 1207.99 564.05V564.05Z" fill="white" fill-opacity="0.15"/>
</g>
<g clip-path="url(#clip2_308_551)">
<path d="M476.341 32.9449C475.438 30.8926 474.691 28.9453 473.72 27.1106C473.258 26.4284 472.598 25.9037 471.83 25.607C464.453 22.3396 456.88 19.8848 448.632 20.4325C448.187 20.4592 447.529 19.8892 447.275 19.4253C447.021 18.9614 447.045 18.2378 446.828 16.8804C446.023 17.691 445.326 18.0479 445.169 18.574C444.791 19.7914 444.156 20.2807 442.914 20.2512C440.414 20.1901 437.913 20.1671 435.413 20.1822C433.959 20.191 433.194 19.4583 433.036 18.0927C432.711 15.8232 432.507 13.5381 432.425 11.247C432.419 10.5182 433.183 9.31415 433.829 9.12132C436.496 8.34421 439.212 7.74814 441.959 7.33721C442.619 7.23872 443.43 8.01105 444.143 8.42837C444.685 8.74733 445.183 9.14085 446.257 9.88873C445.581 6.87745 446.932 6.44787 448.81 6.22973C462.769 4.6193 476.686 4.52576 490.531 7.19677C491.963 7.48101 493.288 8.26937 494.656 8.8052C493.803 9.84748 492.987 10.9103 492.101 11.9303C486.109 18.6783 487.228 18.2729 491.201 26.3821C491.821 26.1094 492.449 25.6047 493.067 25.6165C493.953 25.6712 494.817 25.9144 495.601 26.3298C496.395 26.7211 497.017 27.471 497.8 27.8712C499.215 28.5834 502.397 36.2453 501.801 37.7048C500.795 40.1349 503.101 43.7773 505.67 43.8855C529.246 44.8178 543.797 69.7793 533.114 90.8499C531.986 93.0735 530.16 94.2831 528.231 95.497C519.613 100.929 510.165 104.917 500.261 107.304C498.972 107.544 497.644 107.471 496.389 107.093C473.365 100.983 464.712 73.1941 480.207 55.0657C481.248 53.8492 481.426 52.9346 480.672 51.6032C479.826 50.1061 479.68 48.0912 477.382 47.781C477.018 47.7312 476.69 46.9658 476.46 46.4731C475.696 44.8303 475.002 43.1572 474.271 41.4955C473.71 40.2204 472.921 38.9772 474.143 37.6403C474.2 37.5561 474.237 37.4595 474.251 37.3583C474.264 37.2572 474.254 37.1543 474.22 37.0579C473.194 34.9227 474.028 33.6192 476.341 32.9449ZM449.964 8.99867C449.669 9.80446 448.887 10.884 448.996 11.8689C449.159 13.3509 450.348 13.8423 451.953 13.6986C455.942 13.3151 459.961 13.1016 463.957 12.9431C465.479 12.8816 466.339 12.1974 466.6 10.8168C466.682 10.5074 466.695 10.1836 466.637 9.86878C466.579 9.55391 466.452 9.25577 466.265 8.99582C466.078 8.73586 465.836 8.52054 465.556 8.36534C465.276 8.21014 464.965 8.11892 464.646 8.09823C459.936 7.45541 455.259 7.92671 449.964 8.99867ZM482.201 16.5675C481.655 15.3255 480.638 14.3514 479.374 13.8594C478.109 13.3673 476.701 13.3978 475.46 13.9439C474.218 14.4901 473.244 15.5072 472.752 16.7716C472.26 18.036 472.29 19.444 472.837 20.686C473.383 21.928 474.4 22.9021 475.664 23.3941C476.929 23.8861 478.337 23.8557 479.578 23.3096C480.82 22.7634 481.794 21.7463 482.286 20.4819C482.778 19.2175 482.748 17.8094 482.201 16.5675V16.5675ZM485.685 14.0988L489.124 10.1277L483.556 9.25892L485.685 14.0988ZM493.943 41.5719C494.737 39.742 492.181 33.5045 490.193 32.0072C490.921 35.553 492.672 38.2147 493.958 41.5652L493.943 41.5719ZM481.405 36.3153L485.31 45.1947C485.991 43.2824 483.042 36.8064 481.405 36.3153ZM481.12 46.2014L477.296 37.5058C476.732 39.7367 479.688 45.9171 481.12 46.2014ZM479.744 36.694C478.91 38.6006 481.923 45.1716 483.582 45.4202L479.744 36.694ZM496.097 39.8841C497.067 38.4206 494.147 31.6894 492.346 31.3531L496.097 39.8841ZM487.502 44.2354C488.229 42.4397 485.422 36.098 483.639 35.4518L487.502 44.2354ZM486.576 34.4113C486.071 36.6076 488.804 42.3969 490.325 42.9346L486.576 34.4113ZM492.543 41.8998L488.73 33.231C487.899 34.9355 490.842 41.5555 492.543 41.8998ZM498.412 38.9758C498.937 36.9172 496.208 30.8472 494.51 30.1041L498.412 38.9758ZM500.385 37.7698C500.871 35.55 498.27 29.771 496.538 29.0206L500.385 37.7698ZM475.272 38.597L474.57 38.9556C475.605 41.7449 476.688 44.5085 478.223 47.064L478.87 46.7795L475.272 38.597Z" fill="white" fill-opacity="0.15"/>
<path d="M445.967 60.6693C449.615 47.8834 448.784 34.9194 448.184 21.6895L453.077 21.3881L453.562 34.9569L454.126 35.0559L457.062 22.085L460.9 22.8739C462.346 30.2665 450.784 59.8809 445.967 60.6693Z" fill="white" fill-opacity="0.15"/>
<path d="M472.868 28.0387L460.892 33.3056C461.355 30.6389 461.65 28.0371 462.338 25.5408C462.507 24.8862 464.068 23.9668 464.678 24.1599C467.323 24.9798 469.84 26.1623 472.392 27.2473C472.592 27.3283 472.668 27.6879 472.868 28.0387Z" fill="white" fill-opacity="0.15"/>
<path d="M450.94 9.47411C455.458 9.35637 459.864 9.20508 464.279 9.20586C464.681 9.20701 465.088 10.1018 465.496 10.5807C465.004 10.9797 464.539 11.6778 464.014 11.7212C459.885 12.0841 455.742 12.3614 451.586 12.5532C451.277 12.5189 450.981 12.4075 450.725 12.2294C450.47 12.0512 450.263 11.8119 450.123 11.5333C450.002 11.0796 450.542 10.4171 450.94 9.47411Z" fill="white" fill-opacity="0.15"/>
<path d="M479.19 22.2286C478.722 22.4603 478.212 22.596 477.69 22.6277C477.169 22.6594 476.646 22.5866 476.153 22.4134C475.66 22.2402 475.207 21.9702 474.82 21.6192C474.433 21.2682 474.12 20.8434 473.899 20.3697C473.443 19.3804 473.399 18.2506 473.775 17.2284C474.151 16.2062 474.918 15.3751 475.906 14.9176C476.886 14.5365 477.974 14.5355 478.955 14.9149C479.936 15.2943 480.739 16.0266 481.208 16.9681C481.628 17.9345 481.652 19.0273 481.275 20.0112C480.898 20.9951 480.149 21.7914 479.19 22.2286V22.2286Z" fill="white" fill-opacity="0.15"/>
</g>
<g clip-path="url(#clip3_308_551)">
<path d="M51.0661 535.414C51.9209 535.577 53.4636 533.8 54.3792 536.048C55.3906 538.537 52.6777 537.693 51.7568 538.64C51.868 539.911 51.9086 541.18 51.8783 542.443C51.6259 545.827 50.2602 548.545 46.6871 549.466C43.1139 550.387 40.2676 548.641 37.8635 546.139C33.3177 541.399 32.5265 533.494 37.0166 529.673C38.0516 528.79 38.4389 526.68 38.2785 525.149C37.6241 518.755 36.9424 512.338 35.7194 505.979C33.569 494.817 33.4394 494.818 25.4311 486.223C16.5249 476.668 7.55633 467.174 -1.34384 457.618C-1.86236 457.062 -1.99922 456.197 -2.31531 455.445L-1.54692 455.051C0.673447 456.965 2.91029 458.87 5.1193 460.801C17.0641 471.244 28.8845 481.822 40.9868 492.088C48.2859 498.281 55.9731 504.052 64.4458 508.663C67.2904 510.213 69.954 511.209 73.3248 510.547C80.2775 509.19 88.4178 516.985 87.6814 524.031C87.5408 525.354 87.9039 526.235 88.899 526.948C91.0135 528.453 93.2142 529.83 95.3445 531.311C95.7734 531.602 96.4268 532.23 96.3514 532.453C96.1132 533.133 95.6882 533.725 95.1184 534.171C94.9037 534.328 94.0779 533.955 93.6737 533.652C91.7013 532.097 89.8384 530.396 87.8002 528.938C87.1642 528.507 85.8579 528.278 85.2764 528.603C81.3415 530.776 77.5737 529.746 73.8979 527.257C70.9103 525.21 69.0462 522.428 68.0076 519.055C67.5079 517.301 66.618 515.641 65.4027 514.196C60.1826 508.413 53.7279 504.43 46.3895 501.887C45.8981 501.731 45.3992 501.605 44.8963 501.512C41.6018 500.803 41.2372 500.903 40.5587 504.072C38.8646 512.015 40.1796 519.903 43.6358 527.67C44.0656 528.504 44.6473 529.266 45.3506 529.917C47.1021 531.655 48.9203 533.35 51.0661 535.414ZM48.5404 545.215C51.1009 541.433 48.668 534.241 44.1002 532.082C41.0718 530.653 38.0523 531.768 37.0614 534.681C35.7984 538.403 37.5391 543.352 40.9928 545.841C43.7391 547.823 46.956 547.555 48.5404 545.215V545.215ZM76.3827 526.064C77.2331 526.298 78.9007 527.021 80.5656 527.15C83.7316 527.396 85.6917 525.241 85.4491 522.182C85.0937 517.888 80.3155 513.284 75.878 512.965C72.449 512.717 70.1957 514.986 70.7345 518.285C71.2042 521.351 73.0354 523.656 76.3827 526.064V526.064ZM33.7089 489.528L37.1258 491.841C36.9106 489.427 36.2376 488.971 33.7237 489.538L33.7089 489.528Z" fill="white" fill-opacity="0.1"/>
<path d="M37.8526 488.099C35.0782 485.673 32.2775 483.278 29.5491 480.8C28.9724 480.246 28.5489 479.564 28.3237 478.827C24.9273 467.843 21.5656 456.851 18.2389 445.849C18.0802 445.287 18.3077 444.624 18.3581 444.008C18.8654 444.43 19.6253 444.773 19.847 445.29C25.8876 459.25 31.8976 473.223 37.8768 487.211C38.0263 487.473 38.2107 487.718 38.4248 487.938L37.8526 488.099Z" fill="white" fill-opacity="0.1"/>
</g>
<g clip-path="url(#clip4_308_551)">
<path d="M780.642 64.0432C780.987 64.8425 783.323 65.1238 781.975 67.1422C780.48 69.375 779.658 66.6555 778.359 66.4233C777.368 67.2279 776.34 67.9732 775.277 68.6561C772.333 70.3441 769.317 70.737 766.551 68.2944C763.785 65.8517 763.636 62.5159 764.36 59.1221C765.737 52.7006 771.839 47.6144 777.52 49.1907C778.832 49.5524 780.796 48.6906 781.975 47.6992C786.903 43.573 791.835 39.4111 796.414 34.8339C804.452 26.7959 804.379 26.6887 807.007 15.239C809.927 2.50772 812.761 -10.2415 815.685 -22.9683C815.855 -23.7096 816.494 -24.308 816.94 -24.9912L817.697 -24.5759C817.357 -21.6644 817.033 -18.7439 816.673 -15.8323C814.721 -0.0867725 812.587 15.632 810.87 31.4088C809.833 40.9249 809.364 50.5259 810.295 60.1269C810.607 63.351 811.275 66.1152 813.713 68.5355C818.734 73.5325 816.843 84.6428 810.595 87.983C809.42 88.6082 808.894 89.4031 808.862 90.6266C808.801 93.2211 808.894 95.8156 808.862 98.4101C808.862 98.9281 808.708 99.8212 808.481 99.8837C807.784 100.068 807.055 100.048 806.367 99.8257C806.116 99.7364 805.962 98.8433 805.987 98.3387C806.169 95.8335 806.533 93.3372 806.598 90.832C806.598 90.064 806.056 88.8538 805.46 88.5546C801.456 86.5139 800.196 82.8164 800.196 78.3776C800.216 74.756 801.476 71.6525 803.687 68.9017C804.859 67.5046 805.734 65.8374 806.25 64.0208C808.113 56.4562 807.793 48.8781 805.784 41.376C805.639 40.8811 805.463 40.3977 805.258 39.9291C803.998 36.8032 803.711 36.5576 800.706 37.7723C793.179 40.8222 787.384 46.3327 782.89 53.5491C782.441 54.3723 782.136 55.2811 781.991 56.2284C781.533 58.6532 781.149 61.1093 780.642 64.0432ZM771.111 67.4459C775.678 67.4459 780.27 61.3995 779.496 56.407C778.982 53.0981 776.366 51.2225 773.398 52.0353C769.608 53.0757 766.486 57.2912 766.361 61.5469C766.26 64.9318 768.284 67.4459 771.111 67.4459V67.4459ZM802.577 79.7664C802.861 80.6015 803.197 82.3877 804.023 83.839C805.594 86.5987 808.477 87.014 810.874 85.0983C814.231 82.3966 815.365 75.859 813.142 72.0052C811.425 69.0267 808.283 68.4328 805.853 70.7281C803.577 72.8358 802.695 75.6447 802.577 79.7664V79.7664ZM808.91 23.9469V28.0731C810.789 26.5414 810.789 25.7286 808.91 23.9647V23.9469Z" fill="white" fill-opacity="0.1"/>
<path d="M812.417 26.5772C812.871 22.9199 813.284 19.2581 813.806 15.6097C813.942 14.8212 814.269 14.0882 814.753 13.4886C821.945 4.51878 829.163 -4.42722 836.409 -13.3494C836.785 -13.796 837.462 -13.9791 838 -14.2827C837.935 -13.6263 838.077 -12.8046 837.773 -12.3313C829.599 0.496803 821.397 13.307 813.166 26.0994C813.032 26.3704 812.933 26.6604 812.871 26.9612L812.417 26.5772Z" fill="white" fill-opacity="0.1"/>
</g>
<g clip-path="url(#clip5_308_551)">
<path d="M579.238 628.994C579.073 629.849 580.846 631.396 578.596 632.306C576.104 633.312 576.955 630.601 576.011 629.678C574.739 629.786 573.47 629.823 572.207 629.79C568.823 629.53 566.108 628.158 565.196 624.583C564.283 621.007 566.036 618.165 568.544 615.767C573.294 611.232 581.201 610.459 585.011 614.958C585.892 615.995 588.001 616.388 589.533 616.231C595.928 615.591 602.347 614.925 608.708 613.716C619.875 611.592 619.875 611.462 628.489 603.474C638.064 594.59 647.579 585.644 657.155 576.766C657.713 576.249 658.578 576.114 659.331 575.799L659.723 576.569C657.804 578.785 655.894 581.017 653.958 583.222C643.487 595.142 632.881 606.938 622.587 619.016C616.377 626.301 610.588 633.975 605.957 642.436C604.401 645.277 603.399 647.939 604.053 651.311C605.393 658.267 597.58 666.389 590.535 665.636C589.213 665.492 588.33 665.854 587.615 666.847C586.106 668.958 584.723 671.155 583.237 673.282C582.946 673.71 582.316 674.362 582.093 674.286C581.413 674.047 580.822 673.62 580.379 673.049C580.221 672.834 580.596 672.009 580.9 671.606C582.46 669.637 584.166 667.778 585.628 665.743C586.06 665.108 586.293 663.803 585.969 663.22C583.806 659.281 584.844 655.515 587.341 651.845C589.395 648.862 592.182 647.005 595.557 645.974C597.312 645.478 598.974 644.592 600.422 643.38C606.217 638.174 610.216 631.728 612.775 624.396C612.933 623.905 613.06 623.406 613.154 622.904C613.871 619.611 613.771 619.246 610.604 618.56C602.665 616.847 594.774 618.144 586.999 621.582C586.164 622.01 585.401 622.59 584.748 623.292C583.006 625.039 581.306 626.853 579.238 628.994ZM569.443 626.446C573.219 629.015 580.417 626.599 582.586 622.036C584.022 619.011 582.914 615.989 580.003 614.991C576.284 613.72 571.332 615.449 568.834 618.897C566.846 621.638 567.106 624.856 569.443 626.446V626.446ZM588.529 654.333C588.293 655.183 587.566 656.848 587.433 658.513C587.179 661.679 589.33 663.644 592.389 663.408C596.684 663.063 601.299 658.295 601.629 653.859C601.885 650.43 599.621 648.172 596.321 648.703C593.254 649.165 590.944 650.991 588.529 654.333V654.333ZM625.164 611.744L622.843 615.156C625.258 614.946 625.715 614.274 625.154 611.759L625.164 611.744Z" fill="white" fill-opacity="0.1"/>
<path d="M626.583 615.891C629.015 613.123 631.417 610.328 633.901 607.605C634.457 607.03 635.14 606.608 635.877 606.384C646.869 603.013 657.869 599.677 668.879 596.376C669.441 596.219 670.103 596.448 670.719 596.5C670.296 597.006 669.951 597.765 669.434 597.986C655.46 603.994 641.472 609.971 627.471 615.918C627.208 616.067 626.963 616.25 626.742 616.464L626.583 615.891Z" fill="white" fill-opacity="0.1"/>
</g>
<g clip-path="url(#clip6_308_551)">
<path d="M1218.99 366.982C1218.82 367.836 1220.6 369.383 1218.34 370.293C1215.85 371.299 1216.7 368.588 1215.76 367.665C1214.49 367.773 1213.22 367.811 1211.96 367.778C1208.57 367.517 1205.86 366.145 1204.94 362.57C1204.03 358.995 1205.78 356.152 1208.29 353.754C1213.04 349.219 1220.95 348.447 1224.76 352.946C1225.64 353.983 1227.75 354.375 1229.28 354.218C1235.68 353.579 1242.1 352.912 1248.46 351.704C1259.62 349.579 1259.62 349.45 1268.24 341.461C1277.81 332.578 1287.33 323.631 1296.9 314.753C1297.46 314.236 1298.33 314.101 1299.08 313.787L1299.47 314.556C1297.55 316.772 1295.64 319.004 1293.71 321.209C1283.24 333.129 1272.63 344.925 1262.34 357.003C1256.13 364.288 1250.34 371.962 1245.71 380.424C1244.15 383.265 1243.15 385.926 1243.8 389.298C1245.14 396.254 1237.33 404.376 1230.28 403.623C1228.96 403.48 1228.08 403.841 1227.36 404.834C1225.85 406.945 1224.47 409.143 1222.99 411.27C1222.69 411.698 1222.07 412.35 1221.84 412.274C1221.16 412.034 1220.57 411.608 1220.13 411.037C1219.97 410.822 1220.35 409.997 1220.65 409.593C1222.21 407.624 1223.91 405.766 1225.38 403.731C1225.81 403.096 1226.04 401.79 1225.72 401.208C1223.55 397.268 1224.59 393.502 1227.09 389.832C1229.14 386.85 1231.93 384.992 1235.31 383.961C1237.06 383.466 1238.72 382.58 1240.17 381.368C1245.97 376.161 1249.96 369.716 1252.52 362.383C1252.68 361.892 1252.81 361.394 1252.9 360.891C1253.62 357.598 1253.52 357.233 1250.35 356.547C1242.41 354.835 1234.52 356.131 1226.75 359.569C1225.91 359.997 1225.15 360.577 1224.5 361.279C1222.76 363.026 1221.06 364.841 1218.99 366.982ZM1209.19 364.433C1212.97 367.002 1220.17 364.586 1222.33 360.024C1223.77 356.998 1222.66 353.976 1219.75 352.979C1216.03 351.707 1211.08 353.436 1208.58 356.884C1206.6 359.626 1206.85 362.843 1209.19 364.433V364.433ZM1228.28 392.32C1228.04 393.17 1227.32 394.836 1227.18 396.5C1226.93 399.666 1229.08 401.631 1232.14 401.395C1236.43 401.05 1241.05 396.283 1241.38 391.846C1241.63 388.417 1239.37 386.159 1236.07 386.69C1233 387.153 1230.69 388.978 1228.28 392.32V392.32ZM1264.91 349.731L1262.59 353.143C1265.01 352.933 1265.46 352.261 1264.9 349.746L1264.91 349.731Z" fill="white" fill-opacity="0.1"/>
<path d="M1266.33 353.879C1268.76 351.11 1271.17 348.315 1273.65 345.592C1274.21 345.017 1274.89 344.595 1275.63 344.371C1286.62 341.001 1297.62 337.665 1308.63 334.364C1309.19 334.206 1309.85 334.435 1310.47 334.487C1310.05 334.993 1309.7 335.752 1309.18 335.973C1295.21 341.981 1281.22 347.958 1267.22 353.905C1266.96 354.054 1266.71 354.238 1266.49 354.451L1266.33 353.879Z" fill="white" fill-opacity="0.1"/>
</g>
<g clip-path="url(#clip7_308_551)">
<path d="M882.909 702.746C881.666 702.922 881.235 702.481 881.902 701.337C882.875 699.812 883.707 698.202 884.385 696.526L880.167 701.428L879.393 700.817L881.667 697.33L881.28 696.864C880.535 697.517 879.755 698.13 878.945 698.701C877.817 699.432 877.59 698.719 877.655 697.732L883.205 694.06C882.219 693.234 881.587 692.711 880.731 691.985L877.644 697.715L875.775 697.933L878.828 692.545L878.532 692.317L874.776 696.599L874.044 696.065L876.685 691.928C875.053 692.905 873.897 693.611 872.707 694.313L872.116 693.595L877.571 689.141L875.596 687.166L871.586 693.142L870.713 692.675L873.448 687.553L873.252 687.4L869.412 691.737L868.622 691.176L871.536 686.991L871.12 686.368L867.297 689.437L866.746 688.737L872.232 684.25C871.555 683.62 870.943 683.068 870.205 682.362L866.081 688.211C865.812 688.013 865.543 687.815 865.273 687.622L868.127 682.715L867.97 682.56L863.89 686.905C863.61 686.67 863.334 686.437 863.068 686.2L866.376 682.085L866.188 681.846L862.004 684.74C861.852 684.567 861.705 684.39 861.553 684.212C862.578 682.003 865.195 681.26 866.808 679.351L864.787 677.43L860.882 683.302L860.061 682.914L862.504 677.905L858.505 682.096C858.234 681.883 857.969 681.667 857.702 681.44L861.547 676.536L856.472 679.823L855.943 679.021L861.31 674.66C856.063 670.182 856.443 671.681 859.277 665.726C862.492 658.964 867.813 654.248 874.39 650.887C874.75 650.763 875.133 650.719 875.512 650.761C875.891 650.802 876.255 650.927 876.58 651.126C877.73 651.91 878.688 652.978 879.871 654.065L883.581 648.399L884.46 648.834L881.957 653.738L882.099 653.938C882.786 653.225 883.454 652.484 884.173 651.802C884.892 651.121 885.621 650.548 886.352 649.922L887.033 650.582L883.697 654.424L884.254 655.3L887.61 651.593L888.487 652.79L883.047 657.247L885.134 659.197L888.937 653.279C889.241 653.45 889.548 653.628 889.855 653.805L887.116 658.974L891.557 654.779L892.325 655.511L888.823 659.469L889.03 659.707L893.223 656.77L893.842 657.49L888.511 662.14L890.523 664.103L894.321 658.164C894.614 658.314 894.907 658.469 895.196 658.618L892.815 663.451L896.927 659.754L897.535 660.505L893.969 664.444L894.218 664.755C894.968 664.201 895.701 663.614 896.471 663.104C897.24 662.593 897.917 662.223 898.642 661.785L899.23 662.585L893.767 666.965L895.799 668.99L899.566 663.059L900.447 663.485L898.196 668.19L902.232 664.71L902.904 665.436L899.243 669.433L899.376 669.675L904.152 666.673L904.664 667.486L899.136 671.896L901.266 673.806L904.948 667.93L905.813 668.43L903.633 672.937L907.594 669.562L908.267 670.191C907.591 670.969 906.933 671.776 906.22 672.522C905.394 673.261 904.695 674.131 904.15 675.095L909.454 671.371L910.115 672.143L904.602 676.736L906.61 678.717L910.272 672.779L911.125 673.223L909.181 677.508L913.004 674.439L913.695 675.164L908.758 680.088L908.969 680.395C910.489 679.262 912.026 678.206 913.511 677.052C914.642 676.171 915.319 676.277 915.571 677.763C913.677 678.918 911.792 680.079 909.677 681.361L912.039 683.505L915.522 677.675C915.717 678.173 916.19 678.759 916.055 679.143C915.716 680.138 915.109 681.048 914.33 682.513L918.256 679.257L918.896 679.879C917.816 681.984 915.496 683.087 914.261 685.232L920.545 680.833L920.802 682.727C918.944 683.875 917.085 685.023 915.013 686.31C916.076 687.182 916.709 687.7 917.47 688.328L920.74 682.651C920.994 683.079 921.542 683.609 921.44 683.927C921.132 684.871 920.57 685.732 919.841 687.12L923.741 684.101L924.39 684.774L919.412 689.84L919.629 690.143L925.768 685.854L926.434 686.651L920.922 691.171C923.664 693.605 926.262 695.984 928.956 698.258C930.032 699.162 930.266 699.935 929.696 701.285C927.319 706.968 928.485 711.003 933.272 714.815C946.619 725.335 959.33 736.636 971.339 748.658C972.301 749.596 973.198 750.598 974.024 751.658C975.395 753.503 975.408 755.836 974.087 757.356C972.587 759.085 970.666 759.341 968.704 758.398C967.296 757.689 965.97 756.827 964.752 755.827C951.585 745.325 939.149 733.938 927.532 721.747C922.803 716.797 917.985 717.125 913.439 719.326C912.06 720.003 911.253 719.938 910.167 718.876C907.696 716.466 905.09 714.192 902.345 711.68L898.538 717.728L897.685 717.284C898.215 716.212 898.718 715.13 899.278 714.075C899.895 712.915 900.559 711.78 900.823 710.36L896.526 715.838L895.71 715.334L898.079 711.333L894.211 713.519L893.634 712.692L899.246 708.548C898.502 707.865 897.84 707.277 897.06 706.538L893.188 712.825C892.877 712.662 892.562 712.498 892.251 712.339L895.746 705.724L895.463 705.523L891.146 711.002L890.296 710.432L892.666 706.655L892.266 706.114L888.931 708.83L888.307 708.042L893.786 703.68C893.099 703.048 892.403 702.458 891.664 701.801L887.677 707.898L886.74 707.276L890.367 701.044L890.075 700.816L885.639 706.264C885.348 706.076 885.062 705.894 884.785 705.709L887.733 701.205C886.348 702.182 885.462 702.736 884.676 703.37C883.673 704.156 883.115 703.853 882.873 702.709L888.576 698.934L886.14 696.842L882.909 702.746ZM883.191 661.312C884.472 659.75 883.062 659.343 882.204 659.374L877.75 660.254C878.235 661.921 878.744 662.064 880.79 660.718C881.774 660.073 882.995 658.697 883.19 661.317C880.132 661.986 877.889 666.144 878.86 668.909C879.136 669.846 879.029 670.853 878.564 671.71C878.236 672.247 877.028 672.577 876.288 672.473C874.678 672.226 873.032 672.552 871.639 673.395C870.246 674.238 869.194 675.543 868.667 677.082C869.954 676.492 871.09 676.04 872.164 675.473C876.058 673.414 877.334 673.628 879.075 677.431C879.533 674.165 881.306 672.528 883.18 671.854C882.252 670.598 880.747 669.452 880.893 668.58C881.278 666.094 882.371 663.725 883.191 661.312V661.312ZM871.606 660.028L865.907 666.134C864.157 668.188 862.358 670.266 861.952 673.059C864.216 672.172 865.715 670.657 868.155 670.041C870.483 669.449 871.894 669.099 873.258 671.182L877.27 666.497C876.753 666.023 875.817 665.561 875.81 665.089C875.78 662.767 875.762 660.389 876.228 658.134C876.448 657.103 877.788 656.311 878.618 655.405L878.111 654.841C875.373 655.762 873.366 657.723 871.606 660.028V660.028ZM909.172 704.959L909.076 705.021C912.761 701.277 916.461 697.551 920.085 693.75C920.285 693.541 919.888 692.737 919.668 691.855C917.26 695.857 913.507 694.814 910.39 695.548C907.615 692.835 906.134 695.612 904.327 696.975C904.269 697.021 904.113 697.021 904.112 697.05C904.063 697.647 903.774 698.634 904.033 698.791C907.032 700.678 904.88 703.709 906.01 705.975C902.586 702.818 902.363 702.77 901.688 704.568C902.853 705.399 904.371 705.936 904.746 706.914C905.094 707.809 904.21 709.179 903.791 710.595C903.904 710.589 904.721 710.793 904.934 710.547C906.397 708.742 907.757 706.833 909.153 704.955L909.172 704.959ZM896.996 693.315C899.223 693.95 900.505 694.752 900.167 697.069C900.039 697.92 900.458 698.849 900.628 699.74C901.158 698.824 901.724 697.925 902.188 696.98C902.297 696.765 902.018 696.385 902.028 696.087C902.077 694.99 901.773 693.498 902.359 692.914C902.945 692.33 904.429 692.782 905.519 692.685C906.401 692.606 907.469 692.654 908.083 692.168C908.573 691.787 908.488 690.657 908.788 689.25C907.413 689.841 906.794 690.306 906.126 690.338C905.191 690.391 903.838 690.467 903.389 689.93C902.835 689.268 902.925 687.981 902.918 686.965C902.962 685.875 903.067 684.789 903.232 683.711L902.502 683.556C902.211 683.897 901.984 684.416 901.617 684.542C900.561 684.933 899.23 685.659 898.341 685.339C896.841 684.806 897.027 683.365 897.506 681.913C898.102 680.098 898.357 678.148 898.761 676.253L897.8 675.932C897.292 676.848 896.844 677.797 896.46 678.773C896.01 680.133 895.176 681.217 893.754 680.686C892.852 680.353 891.815 679.2 891.704 678.307C891.544 677.006 892.167 675.61 892.5 674.05C894.973 676.742 894.973 676.742 898.927 673.536C898.683 673.494 898.433 673.503 898.192 673.561C897.951 673.62 897.725 673.728 897.528 673.878C896.391 675.015 895.023 675.32 893.999 674.155C893.326 673.39 893.341 672.02 892.842 670.142C892.095 671.662 891.369 672.741 891.034 673.902C890.483 675.804 887.947 676.827 887.098 675.199C886.338 673.751 886.776 671.674 886.678 669.668C887.669 669.966 888.168 670.111 889.456 670.498C887.319 668.212 887.393 666.499 889.444 664.97L887.858 663.792C887.59 664.634 887.253 665.452 886.85 666.238C886.537 666.749 885.64 667.038 885.561 667.522C885.165 669.928 884.89 672.36 884.702 674.791C884.566 676.524 883.735 677.162 882.039 677.413C879.63 677.768 877.133 678.173 874.954 679.165C873.835 679.669 873.315 681.495 872.523 682.725L873.039 683.267C874.302 680.716 876.076 680.856 878.111 681.954L877.118 680.592C878.341 680.1 879.382 679.618 880.468 679.262C881.961 678.78 883.135 679.224 883.692 680.76C884.249 682.297 883.466 683.625 882.151 683.66C879.332 683.749 879.512 686.35 878.085 687.619C879.556 686.622 880.873 684.956 882.689 686.697C884.355 688.3 883.184 689.779 881.898 691.092L883.644 692.571C883.659 691.725 883.376 690.771 883.733 690.26C885.148 688.183 885.451 686.577 881.849 685.737C883.483 685.114 884.519 684.815 885.494 684.368C887.041 683.654 888.372 683.84 889.049 685.451C889.727 687.061 889.002 688.111 887.371 688.763C886.461 689.133 885.68 689.859 884.862 690.433L885.321 691.2C887.177 690.586 889.015 689.832 890.894 689.407C891.912 689.188 893.439 689.163 893.984 689.751C894.53 690.338 894.226 691.807 894.121 692.872C894.063 693.418 893.619 693.926 893.352 694.451L893.868 695.129C894.604 694.732 895.87 694.449 895.97 693.931C896.276 692.496 895.8 690.9 896.135 689.486C896.302 688.998 896.574 688.552 896.932 688.18C897.29 687.809 897.726 687.52 898.207 687.335C899.279 687.005 900.574 687.383 901.672 687.452C901.401 690.457 899.592 692.15 896.996 693.315ZM888.788 691.396L887.744 696.295L888.92 697.298C889.34 696.174 889.688 695.131 890.117 694.121C890.788 692.526 890.29 691.648 888.791 691.382L888.788 691.396ZM894.444 696.577L893 701.071C893.278 701.295 893.831 701.733 894.032 701.907C894.481 700.872 894.877 699.883 895.331 698.917C896.044 697.35 895.807 696.863 894.447 696.563L894.444 696.577ZM866.215 671.686C867.682 673.493 867.769 675.158 865.716 676.652C866.562 677.24 867.234 677.694 867.887 678.139L868.535 677.768C865.952 676.732 867.685 675.601 868.13 674.604C868.92 672.84 868.509 672.053 866.223 671.673L866.215 671.686ZM909.326 683.029L904.532 684.998C905.196 685.373 906.038 686.188 906.436 686.011C907.666 685.457 908.73 684.529 909.967 683.671L909.326 683.029ZM899.366 680.004C900.13 681.666 900.13 681.666 904.621 678.861C904.277 678.535 903.948 678.232 904.026 678.298L899.366 680.004ZM915.521 688.146C914.68 688.01 914.148 687.747 913.789 687.903C912.545 688.473 911.366 689.193 910.1 689.889C910.666 691.223 910.666 691.223 915.528 688.133L915.521 688.146ZM899.825 701.2L898.379 706.048C901.383 701.872 901.383 701.872 899.825 701.2Z" fill="white" fill-opacity="0.1"/>
<path d="M890.194 688.632C890.393 686.925 890.685 685.231 891.067 683.556C891.206 683.061 892.104 682.611 892.731 682.454C893.773 682.252 894.827 682.12 895.886 682.058C896.397 686.187 893.35 687.28 890.194 688.632Z" fill="white" fill-opacity="0.1"/>
<path d="M890.274 676.832C889.488 682.296 889.237 682.563 884.453 683.005C885.146 679.866 885.935 676.757 890.274 676.832Z" fill="white" fill-opacity="0.1"/>
<path d="M909.153 704.955C908.816 704.577 908.329 704.26 908.166 703.817C907.731 702.702 907.41 701.546 907.21 700.366C907.093 699.574 907.065 698.519 907.494 697.965C907.773 697.651 908.12 697.406 908.51 697.248C908.899 697.09 909.32 697.024 909.739 697.055C911.231 697.373 912.643 698.091 914.416 698.78C911.471 700.007 909.393 701.821 909.057 705.017L909.153 704.955Z" fill="white" fill-opacity="0.1"/>
<path d="M865.87 666.053C869.532 665.678 870.835 663.097 871.571 659.986C872.326 661.803 873.345 663.568 873.753 665.461C874.056 666.89 872.331 667.916 870.828 667.624C869.67 667.402 868.442 667.417 867.325 667.14C866.784 667.01 866.354 666.428 865.87 666.053Z" fill="white" fill-opacity="0.1"/>
</g>
<g clip-path="url(#clip8_308_551)">
<path d="M1062.42 211.932C1063.64 211.635 1064.11 212.033 1063.56 213.237C1062.74 214.848 1062.07 216.531 1061.55 218.265L1065.28 212.978L1066.11 213.512L1064.18 217.202L1064.61 217.628C1065.29 216.906 1066.01 216.221 1066.76 215.574C1067.81 214.738 1068.1 215.426 1068.13 216.414L1062.96 220.605C1064.03 221.332 1064.7 221.792 1065.63 222.432L1068.15 216.43L1069.99 216.032L1067.47 221.69L1067.78 221.889L1071.11 217.264L1071.89 217.725L1069.66 222.097C1071.19 220.967 1072.27 220.153 1073.39 219.339L1074.05 219.997L1069.05 224.957L1071.2 226.732L1074.62 220.396L1075.53 220.777L1073.3 226.139L1073.51 226.273L1076.92 221.585L1077.76 222.068L1075.26 226.515L1075.74 227.094L1079.24 223.67L1079.86 224.314L1074.83 229.309C1075.57 229.871 1076.23 230.362 1077.03 230.993L1080.57 224.773C1080.86 224.944 1081.15 225.115 1081.43 225.281L1079.07 230.441L1079.24 230.58L1082.88 225.862C1083.18 226.068 1083.48 226.274 1083.77 226.483L1080.87 230.899L1081.08 231.119L1084.97 227.834C1085.13 227.991 1085.3 228.153 1085.47 228.316C1084.66 230.613 1082.13 231.606 1080.71 233.662L1082.9 235.379L1086.22 229.157L1087.08 229.464L1085.13 234.686L1088.7 230.127C1088.99 230.313 1089.28 230.503 1089.57 230.703L1086.21 235.956L1090.95 232.194L1091.55 232.941L1086.63 237.8C1092.29 241.751 1091.76 240.296 1089.52 246.496C1086.97 253.537 1082.13 258.745 1075.91 262.725C1075.56 262.884 1075.18 262.964 1074.8 262.959C1074.42 262.955 1074.05 262.866 1073.7 262.699C1072.48 262.029 1071.43 261.059 1070.15 260.091L1067 266.089L1066.08 265.741L1068.1 260.618L1067.94 260.432C1067.32 261.208 1066.73 262.011 1066.08 262.759C1065.43 263.507 1064.76 264.147 1064.09 264.841L1063.35 264.25L1066.3 260.103L1065.66 259.285L1062.68 263.299L1061.69 262.192L1066.68 257.231L1064.41 255.491L1061.2 261.749C1060.88 261.608 1060.56 261.461 1060.23 261.314L1062.46 255.905L1058.44 260.509L1057.61 259.855L1060.71 255.577L1060.48 255.36L1056.59 258.688L1055.91 258.032L1060.77 252.888L1058.57 251.129L1055.37 257.406C1055.06 257.285 1054.75 257.16 1054.45 257.039L1056.36 251.999L1052.62 256.076L1051.94 255.387L1055.11 251.122L1054.83 250.837C1054.14 251.46 1053.47 252.115 1052.75 252.698C1052.03 253.28 1051.4 253.714 1050.72 254.22L1050.05 253.481L1055.07 248.594L1052.85 246.774L1049.67 253.041L1048.76 252.702L1050.54 247.802L1046.86 251.655L1046.12 250.997L1049.38 246.666L1049.22 246.438L1044.76 249.887L1044.17 249.127L1049.25 244.204L1046.94 242.508L1043.85 248.712L1042.94 248.298L1044.67 243.602L1041.06 247.344L1040.32 246.783C1040.92 245.943 1041.5 245.076 1042.14 244.265C1042.89 243.449 1043.5 242.516 1043.95 241.503L1039.03 245.723L1038.3 245.018L1043.34 239.915L1041.15 238.136L1038.08 244.401L1037.19 244.041L1038.71 239.588L1035.2 243.012L1034.44 242.357L1038.88 236.98L1038.64 236.694C1037.24 237.968 1035.81 239.168 1034.44 240.46C1033.4 241.446 1032.72 241.406 1032.32 239.952C1034.1 238.619 1035.86 237.281 1037.84 235.801L1035.28 233.895L1032.38 240.035C1032.14 239.558 1031.61 239.02 1031.71 238.625C1031.95 237.601 1032.47 236.637 1033.1 235.103L1029.51 238.723L1028.81 238.166C1029.68 235.967 1031.88 234.645 1032.91 232.391L1027.08 237.376L1026.64 235.515C1028.38 234.193 1030.12 232.872 1032.05 231.391C1030.91 230.625 1030.23 230.17 1029.41 229.619L1026.71 235.585C1026.41 235.184 1025.82 234.71 1025.89 234.383C1026.1 233.414 1026.58 232.503 1027.17 231.05L1023.58 234.431L1022.87 233.825L1027.33 228.302L1027.09 228.021L1021.39 232.883L1020.65 232.154L1025.7 227.123C1022.74 224.965 1019.92 222.848 1017.02 220.845C1015.86 220.049 1015.56 219.302 1015.99 217.904C1017.81 212.018 1016.26 208.114 1011.13 204.782C996.827 195.6 983.084 185.58 969.97 174.773C968.922 173.932 967.933 173.021 967.008 172.047C965.466 170.342 965.227 168.021 966.395 166.381C967.721 164.515 969.608 164.075 971.652 164.824C973.122 165.394 974.525 166.124 975.834 167.001C989.954 176.183 1003.43 186.315 1016.17 197.328C1021.36 201.798 1026.12 201.007 1030.43 198.377C1031.74 197.57 1032.55 197.557 1033.73 198.508C1036.42 200.669 1039.24 202.68 1042.21 204.916L1045.42 198.528L1046.31 198.888C1045.89 200.006 1045.49 201.131 1045.03 202.236C1044.53 203.45 1043.98 204.644 1043.85 206.082L1047.6 200.215L1048.46 200.638L1046.49 204.849L1050.13 202.3L1050.79 203.067L1045.6 207.734C1046.41 208.342 1047.12 208.863 1047.97 209.523L1051.22 202.892C1051.54 203.024 1051.87 203.157 1052.2 203.285L1049.36 210.206L1049.66 210.379L1053.42 204.509L1054.33 204.994L1052.33 208.982L1052.78 209.483L1055.84 206.457L1056.54 207.181L1051.5 212.052C1052.25 212.614 1053 213.134 1053.8 213.717L1057.18 207.264L1058.17 207.792L1055.16 214.346L1055.47 214.544L1059.36 208.693C1059.67 208.852 1059.97 209.006 1060.27 209.163L1057.77 213.93C1059.05 212.824 1059.88 212.187 1060.6 211.481C1061.52 210.601 1062.11 210.849 1062.46 211.965L1057.15 216.273L1059.77 218.12L1062.42 211.932ZM1066.14 253.198C1065.02 254.877 1066.46 255.146 1067.31 255.033L1071.66 253.726C1071.01 252.114 1070.49 252.021 1068.59 253.558C1067.67 254.295 1066.59 255.782 1066.14 253.194C1069.12 252.233 1070.95 247.877 1069.72 245.219C1069.35 244.313 1069.36 243.301 1069.74 242.402C1070.02 241.836 1071.19 241.391 1071.93 241.423C1073.56 241.513 1075.17 241.03 1076.47 240.057C1077.78 239.083 1078.7 237.683 1079.07 236.1C1077.85 236.811 1076.76 237.371 1075.75 238.039C1072.07 240.464 1070.78 240.375 1068.68 236.757C1068.54 240.053 1066.93 241.853 1065.13 242.704C1066.18 243.865 1067.79 244.861 1067.73 245.742C1067.58 248.254 1066.72 250.718 1066.14 253.198V253.198ZM1077.8 253.358L1082.88 246.73C1084.42 244.516 1086.01 242.274 1086.15 239.456C1083.98 240.557 1082.63 242.21 1080.26 243.059C1078 243.872 1076.63 244.357 1075.07 242.416L1071.53 247.466C1072.09 247.888 1073.07 248.257 1073.12 248.726C1073.38 251.035 1073.62 253.4 1073.38 255.689C1073.26 256.737 1072 257.655 1071.26 258.636L1071.82 259.149C1074.46 257.968 1076.27 255.822 1077.8 253.358V253.358ZM1036.07 212.264L1036.16 212.193C1032.85 216.276 1029.53 220.342 1026.29 224.475C1026.11 224.703 1026.58 225.464 1026.88 226.32C1028.9 222.105 1032.73 222.78 1035.76 221.749C1038.79 224.181 1039.99 221.274 1041.66 219.744C1041.71 219.692 1041.87 219.677 1041.87 219.648C1041.86 219.049 1042.05 218.039 1041.78 217.908C1038.61 216.319 1040.46 213.094 1039.12 210.948C1042.83 213.76 1043.05 213.786 1043.55 211.931C1042.31 211.216 1040.75 210.828 1040.28 209.891C1039.85 209.034 1040.6 207.585 1040.88 206.136C1040.77 206.152 1039.93 206.028 1039.75 206.294C1038.46 208.231 1037.29 210.263 1036.09 212.266L1036.07 212.264ZM1049.31 222.678C1047.03 222.262 1045.68 221.587 1045.79 219.248C1045.84 218.389 1045.33 217.504 1045.07 216.634C1044.64 217.597 1044.16 218.547 1043.79 219.532C1043.7 219.756 1044.01 220.107 1044.03 220.406C1044.09 221.502 1044.54 222.957 1044.01 223.595C1043.48 224.233 1041.96 223.926 1040.89 224.129C1040.02 224.293 1038.95 224.348 1038.39 224.891C1037.94 225.317 1038.13 226.434 1037.97 227.863C1039.28 227.142 1039.85 226.62 1040.51 226.523C1041.44 226.38 1042.77 226.174 1043.27 226.665C1043.89 227.27 1043.92 228.56 1044.03 229.571C1044.09 230.659 1044.09 231.751 1044.03 232.839L1044.77 232.924C1045.03 232.556 1045.2 232.017 1045.56 231.857C1046.57 231.365 1047.83 230.514 1048.74 230.747C1050.29 231.133 1050.24 232.585 1049.9 234.076C1049.49 235.94 1049.42 237.906 1049.2 239.831L1050.19 240.058C1050.61 239.096 1050.96 238.109 1051.25 237.101C1051.56 235.704 1052.29 234.544 1053.76 234.935C1054.69 235.179 1055.83 236.227 1056.03 237.105C1056.31 238.384 1055.83 239.834 1055.65 241.42C1052.92 238.979 1052.92 238.979 1049.3 242.552C1049.54 242.57 1049.79 242.537 1050.03 242.455C1050.26 242.373 1050.48 242.244 1050.66 242.076C1051.68 240.835 1053.01 240.398 1054.14 241.459C1054.89 242.155 1055 243.521 1055.68 245.342C1056.28 243.757 1056.9 242.613 1057.12 241.425C1057.48 239.478 1059.91 238.215 1060.91 239.753C1061.81 241.122 1061.57 243.231 1061.86 245.219C1060.85 245.017 1060.34 244.921 1059.02 244.661C1061.37 246.73 1061.46 248.441 1059.56 250.161L1061.26 251.18C1061.44 250.317 1061.7 249.47 1062.02 248.649C1062.28 248.11 1063.15 247.735 1063.18 247.247C1063.34 244.814 1063.38 242.367 1063.34 239.929C1063.3 238.191 1064.07 237.475 1065.73 237.062C1068.1 236.475 1070.54 235.831 1072.62 234.634C1073.68 234.024 1074.02 232.156 1074.69 230.856L1074.12 230.366C1073.11 233.027 1071.34 233.059 1069.2 232.162L1070.32 233.422C1069.15 234.03 1068.16 234.61 1067.12 235.069C1065.68 235.694 1064.47 235.365 1063.76 233.89C1063.06 232.414 1063.71 231.017 1065.02 230.854C1067.81 230.494 1067.38 227.922 1068.68 226.521C1067.31 227.656 1066.16 229.441 1064.19 227.883C1062.38 226.449 1063.4 224.864 1064.55 223.433L1062.67 222.129C1062.74 222.973 1063.11 223.895 1062.81 224.438C1061.6 226.642 1061.45 228.27 1065.12 228.758C1063.55 229.536 1062.55 229.933 1061.62 230.473C1060.15 231.333 1058.81 231.276 1057.98 229.738C1057.15 228.201 1057.77 227.086 1059.33 226.279C1060.2 225.824 1060.91 225.025 1061.67 224.375L1061.13 223.656C1059.35 224.446 1057.59 225.374 1055.76 225.978C1054.77 226.296 1053.25 226.467 1052.65 225.935C1052.05 225.404 1052.21 223.912 1052.21 222.841C1052.22 222.292 1052.61 221.745 1052.83 221.196L1052.25 220.571C1051.55 221.036 1050.32 221.441 1050.27 221.966C1050.11 223.423 1050.73 224.967 1050.54 226.407C1050.42 226.909 1050.19 227.378 1049.87 227.783C1049.55 228.187 1049.14 228.517 1048.68 228.747C1047.65 229.179 1046.32 228.928 1045.22 228.966C1045.2 225.948 1046.84 224.089 1049.31 222.678ZM1057.66 223.796L1058.23 218.819L1056.96 217.934C1056.65 219.094 1056.41 220.165 1056.08 221.212C1055.57 222.864 1056.15 223.69 1057.66 223.81L1057.66 223.796ZM1051.53 219.185L1052.54 214.573C1052.24 214.376 1051.65 213.994 1051.43 213.84C1051.08 214.914 1050.78 215.936 1050.43 216.942C1049.87 218.57 1050.15 219.032 1051.53 219.199L1051.53 219.185ZM1082.04 241.234C1080.4 239.577 1080.15 237.928 1082.05 236.243C1081.15 235.739 1080.44 235.352 1079.75 234.972L1079.14 235.405C1081.81 236.186 1080.19 237.479 1079.85 238.515C1079.23 240.347 1079.72 241.09 1082.03 241.248L1082.04 241.234ZM1038.03 234.107L1042.61 231.684C1041.91 231.375 1041 230.645 1040.62 230.86C1039.45 231.53 1038.48 232.557 1037.33 233.53L1038.03 234.107ZM1048.24 236.156C1047.32 234.575 1047.32 234.575 1043.12 237.801C1043.49 238.092 1043.85 238.362 1043.76 238.304L1048.24 236.156ZM1031.37 229.612C1032.22 229.666 1032.78 229.877 1033.12 229.686C1034.3 228.999 1035.41 228.169 1036.6 227.354C1035.91 226.08 1035.91 226.08 1031.36 229.626L1031.37 229.612ZM1045.73 215.103L1046.7 210.139C1044.12 214.585 1044.12 214.585 1045.73 215.103Z" fill="white" fill-opacity="0.1"/>
<path d="M1056.53 226.683C1056.5 228.401 1056.37 230.116 1056.15 231.82C1056.06 232.326 1055.21 232.86 1054.6 233.077C1053.59 233.379 1052.55 233.612 1051.5 233.776C1050.59 229.716 1053.52 228.333 1056.53 226.683Z" fill="white" fill-opacity="0.1"/>
<path d="M1057.59 238.435C1057.85 232.92 1058.07 232.631 1062.79 231.729C1062.4 234.92 1061.92 238.091 1057.59 238.435Z" fill="white" fill-opacity="0.1"/>
<path d="M1036.09 212.267C1036.46 212.61 1036.97 212.879 1037.18 213.304C1037.72 214.371 1038.15 215.492 1038.46 216.647C1038.66 217.424 1038.79 218.471 1038.41 219.064C1038.16 219.403 1037.84 219.681 1037.47 219.875C1037.1 220.07 1036.69 220.176 1036.27 220.186C1034.75 220.014 1033.28 219.435 1031.44 218.921C1034.26 217.415 1036.15 215.409 1036.18 212.195L1036.09 212.267Z" fill="white" fill-opacity="0.1"/>
<path d="M1082.92 246.807C1079.31 247.534 1078.27 250.23 1077.83 253.396C1076.91 251.661 1075.72 250.002 1075.13 248.158C1074.69 246.765 1076.31 245.577 1077.84 245.722C1079.01 245.832 1080.23 245.698 1081.37 245.866C1081.92 245.943 1082.4 246.481 1082.92 246.807Z" fill="white" fill-opacity="0.1"/>
</g>
<g clip-path="url(#clip9_308_551)">
<path d="M171.746 205.951C171.314 204.772 171.656 204.259 172.914 204.672C174.608 205.307 176.356 205.784 178.137 206.098L172.463 202.994L172.9 202.11L176.784 203.608L177.159 203.132C176.365 202.539 175.602 201.904 174.875 201.231C173.925 200.28 174.576 199.91 175.554 199.767L180.302 204.43C180.905 203.294 181.285 202.567 181.817 201.578L175.568 199.753L174.965 197.97L180.872 199.834L181.033 199.496L176.062 196.715L176.432 195.888L181.028 197.609C179.732 196.216 178.801 195.232 177.866 194.215L178.445 193.488L183.939 197.894L185.458 195.551L178.778 192.875L179.053 191.924L184.632 193.531L184.741 193.307L179.699 190.455L180.083 189.567L184.784 191.544L185.306 191.007L181.508 187.908L182.078 187.223L187.609 191.653C188.084 190.859 188.497 190.146 189.034 189.277L182.453 186.463C182.59 186.159 182.728 185.854 182.861 185.55L188.255 187.318L188.374 187.133L183.274 184.048C183.445 183.725 183.616 183.406 183.792 183.097L188.507 185.474L188.701 185.241L184.998 181.752C185.135 181.567 185.278 181.386 185.42 181.201C187.794 181.743 189.067 184.148 191.27 185.327L192.728 182.95L186.17 180.355L186.379 179.471L191.787 180.816L186.854 177.779C187.006 177.47 187.163 177.165 187.329 176.856L192.927 179.594L188.654 175.316L189.328 174.632L194.712 178.972C197.998 172.907 196.612 173.591 203.026 175.122C210.31 176.856 216.031 181.077 220.689 186.81C220.886 187.136 221.008 187.501 221.047 187.88C221.085 188.259 221.04 188.642 220.912 189.001C220.385 190.289 219.54 191.449 218.723 192.832L225.038 195.28L224.796 196.231L219.478 194.805L219.312 194.985C220.153 195.508 221.017 196.007 221.833 196.568C222.65 197.129 223.362 197.723 224.127 198.308L223.623 199.111L219.17 196.649L218.429 197.376L222.755 199.886L221.767 200.993L216.273 196.601L214.801 199.049L221.382 201.535C221.278 201.868 221.169 202.205 221.059 202.543L215.433 200.941L220.461 204.411L219.906 205.314L215.305 202.714L215.115 202.966L218.861 206.455L218.287 207.211L212.627 202.966L211.126 205.343L217.726 207.819C217.641 208.137 217.551 208.456 217.465 208.77L212.242 207.448L216.715 210.699L216.107 211.45L211.511 208.784L211.259 209.093C211.957 209.711 212.684 210.305 213.344 210.951C214.004 211.598 214.507 212.182 215.086 212.8L214.426 213.542L209.004 209.112L207.447 211.522L214.032 213.97L213.8 214.92L208.729 213.699L212.973 216.921L212.404 217.729L207.732 214.982L207.523 215.163L211.454 219.208L210.766 219.878L205.301 215.391L203.876 217.872L210.39 220.249L210.082 221.199L205.22 220.006L209.346 223.177L208.871 223.966C207.969 223.467 207.043 222.991 206.165 222.449C205.269 221.796 204.273 221.294 203.216 220.962L207.964 225.373L207.347 226.181L201.706 221.746L200.187 224.123L206.758 226.466L206.502 227.393L201.906 226.385L205.704 229.484L205.139 230.311L199.294 226.509L199.038 226.78C200.462 228.03 201.815 229.313 203.254 230.525C204.351 231.447 204.389 232.132 202.988 232.688C201.464 231.077 199.935 229.475 198.24 227.673L196.635 230.43L203.064 232.621C202.618 232.916 202.143 233.501 201.739 233.448C200.695 233.325 199.679 232.921 198.083 232.464L202.086 235.625L201.611 236.381C199.327 235.763 197.765 233.724 195.41 232.964L201.023 238.192L199.223 238.839C197.713 237.26 196.203 235.682 194.513 233.924C193.881 235.145 193.506 235.872 193.05 236.747L199.285 238.762C198.919 239.1 198.516 239.746 198.183 239.713C197.196 239.609 196.236 239.238 194.727 238.815L198.492 241.999L197.969 242.774L191.977 238.962L191.726 239.238L197.2 244.348L196.559 245.165L190.99 240.716C189.181 243.905 187.396 246.943 185.734 250.051C185.074 251.292 184.366 251.682 182.928 251.406C176.874 250.265 173.17 252.247 170.44 257.723C162.933 272.97 154.53 287.758 145.275 302.009C144.558 303.145 143.765 304.231 142.901 305.26C141.382 306.985 139.103 307.485 137.341 306.51C135.337 305.403 134.687 303.577 135.2 301.462C135.6 299.937 136.167 298.461 136.89 297.061C144.417 281.994 152.961 267.458 162.463 253.555C166.319 247.898 164.994 243.254 161.894 239.266C160.944 238.059 160.839 237.256 161.651 235.972C163.494 233.054 165.174 230.031 167.059 226.822L160.35 224.36L160.607 223.433C161.765 223.728 162.929 223.994 164.078 224.322C165.341 224.683 166.589 225.097 168.033 225.059L161.78 221.998L162.102 221.095L166.509 222.578L163.565 219.25L164.253 218.514L169.476 223.139C169.989 222.269 170.426 221.499 170.986 220.581L164.03 218.105C164.125 217.767 164.22 217.425 164.31 217.088L171.508 219.127L171.646 218.808L165.388 215.728L165.768 214.778L169.956 216.308L170.402 215.804L167.05 213.109L167.691 212.335L173.099 216.784C173.574 215.98 174.006 215.177 174.495 214.317L167.7 211.688L168.114 210.642L174.965 212.891L175.126 212.558L168.873 209.354C168.997 209.031 169.115 208.713 169.239 208.404L174.258 210.348C173.014 209.197 172.287 208.446 171.504 207.809C170.526 206.992 170.706 206.384 171.774 205.908L176.655 210.699L178.194 207.881L171.746 205.951ZM212.328 197.59C214.122 198.517 214.227 197.053 214.018 196.221L212.228 192.048C210.699 192.87 210.666 193.398 212.408 195.118C213.244 195.945 214.844 196.853 212.323 197.59C211.031 194.738 206.497 193.412 203.995 194.938C203.137 195.403 202.129 195.508 201.193 195.232C200.6 195.023 200.025 193.911 199.973 193.165C199.879 191.539 199.217 189.997 198.102 188.81C196.988 187.623 195.492 186.866 193.877 186.672C194.722 187.808 195.401 188.825 196.179 189.757C199.005 193.136 199.062 194.429 195.705 196.925C198.995 196.692 200.966 198.084 202.015 199.777C203.05 198.607 203.857 196.896 204.74 196.858C207.252 196.715 209.797 197.291 212.328 197.59V197.59ZM211.169 185.992L204.009 181.691C201.635 180.407 199.228 179.081 196.412 179.266C197.751 181.296 199.546 182.446 200.657 184.704C201.72 186.857 202.357 188.164 200.605 189.933L206.022 192.88C206.378 192.276 206.635 191.263 207.095 191.159C209.36 190.646 211.682 190.132 213.985 190.118C215.039 190.118 216.093 191.264 217.152 191.886L217.598 191.273C216.126 188.787 213.79 187.233 211.169 185.992V185.992ZM175.055 232.098L174.975 232.018C179.404 234.841 183.82 237.683 188.293 240.436C188.54 240.588 189.243 240.032 190.059 239.632C185.643 238.111 185.881 234.223 184.513 231.328C186.588 228.049 183.564 227.179 181.854 225.696C181.798 225.648 181.764 225.496 181.736 225.501C181.142 225.577 180.117 225.501 180.017 225.786C178.797 229.113 175.383 227.64 173.403 229.218C175.777 225.211 175.777 224.983 173.878 224.698C173.308 226.01 173.099 227.607 172.221 228.177C171.418 228.705 169.894 228.125 168.422 228.011C168.451 228.12 168.422 228.961 168.707 229.118C170.777 230.173 172.928 231.105 175.055 232.079V232.098ZM183.906 217.763C183.749 220.073 183.231 221.494 180.895 221.646C180.036 221.698 179.215 222.302 178.379 222.654C179.385 222.982 180.383 223.348 181.403 223.604C181.636 223.666 181.949 223.314 182.244 223.262C183.326 223.082 184.722 222.473 185.416 222.925C186.109 223.376 185.976 224.921 186.299 225.967C186.56 226.813 186.736 227.868 187.339 228.367C187.813 228.766 188.901 228.448 190.339 228.448C189.475 227.226 188.891 226.718 188.72 226.071C188.473 225.168 188.117 223.861 188.549 223.31C189.081 222.63 190.358 222.449 191.351 222.231C192.426 222.047 193.51 221.923 194.598 221.86V221.114C194.204 220.9 193.649 220.786 193.449 220.453C192.846 219.502 191.859 218.352 191.987 217.416C192.196 215.838 193.644 215.719 195.163 215.885C197.063 216.09 199.024 215.933 200.961 215.933L201.075 214.925C200.072 214.62 199.051 214.38 198.017 214.207C196.593 214.05 195.358 213.461 195.581 211.959C195.719 211.008 196.631 209.754 197.48 209.459C198.72 209.031 200.215 209.35 201.811 209.35C199.693 212.33 199.693 212.33 203.653 215.529C203.643 215.281 203.582 215.038 203.474 214.815C203.367 214.591 203.214 214.393 203.026 214.231C201.678 213.356 201.094 212.083 202.02 210.837C202.627 210.02 203.971 209.749 205.704 208.869C204.061 208.456 202.855 207.971 201.649 207.886C199.674 207.743 198.145 205.476 199.56 204.306C200.818 203.261 202.941 203.256 204.883 202.743C204.797 203.774 204.759 204.292 204.65 205.633C206.44 203.066 208.13 202.781 210.053 204.468L210.875 202.671C209.996 202.585 209.126 202.426 208.273 202.196C207.708 201.996 207.238 201.179 206.749 201.202C204.313 201.317 201.877 201.554 199.46 201.877C197.737 202.106 196.939 201.426 196.341 199.819C195.491 197.538 194.575 195.18 193.15 193.255C192.424 192.266 190.529 192.138 189.162 191.62L188.739 192.238C191.498 192.941 191.731 194.705 191.08 196.925L192.205 195.67C192.941 196.763 193.63 197.68 194.204 198.669C194.988 200.028 194.798 201.269 193.411 202.134C192.025 202.999 190.562 202.51 190.254 201.231C189.58 198.493 187.073 199.211 185.534 198.08C186.816 199.311 188.72 200.252 187.396 202.391C186.175 204.354 184.485 203.517 182.932 202.533L181.85 204.549C182.681 204.387 183.554 203.912 184.129 204.154C186.455 205.105 188.089 205.067 188.16 201.369C189.11 202.838 189.618 203.788 190.259 204.649C191.279 206.013 191.374 207.353 189.94 208.351C188.507 209.35 187.329 208.86 186.351 207.401C185.8 206.588 184.926 205.975 184.195 205.295L183.54 205.903C184.528 207.591 185.648 209.231 186.455 210.98C186.883 211.931 187.225 213.418 186.764 214.074C186.303 214.73 184.803 214.74 183.739 214.858C183.193 214.916 182.605 214.588 182.035 214.435L181.479 215.082C182.021 215.719 182.562 216.898 183.089 216.888C184.556 216.888 186.019 216.09 187.471 216.123C187.984 216.184 188.476 216.358 188.914 216.63C189.352 216.903 189.725 217.268 190.007 217.701C190.553 218.68 190.453 220.025 190.615 221.114C187.619 221.475 185.586 220.059 183.906 217.763ZM184.072 209.335H179.063L178.327 210.695C179.514 210.871 180.606 210.994 181.684 211.203C183.383 211.526 184.138 210.856 184.086 209.335H184.072ZM180.183 215.947L175.487 215.472C175.326 215.79 175.012 216.422 174.884 216.655C175.991 216.879 177.04 217.059 178.08 217.302C179.761 217.672 180.188 217.34 180.197 215.947H180.183ZM198.644 183.15C197.181 184.961 195.572 185.393 193.682 183.696C193.283 184.647 192.979 185.398 192.68 186.13L193.179 186.686C193.653 183.944 195.121 185.403 196.189 185.631C198.079 186.035 198.762 185.469 198.658 183.154L198.644 183.15ZM196.536 227.678L193.611 223.4C193.383 224.127 192.761 225.121 193.017 225.472C193.815 226.561 194.945 227.407 196.042 228.438L196.536 227.678ZM197.419 217.306C195.952 218.4 195.952 218.4 199.631 222.207C199.878 221.803 200.106 221.418 200.059 221.508L197.419 217.306ZM192.823 234.803C192.78 233.952 192.927 233.377 192.699 233.059C191.882 231.961 190.933 230.958 189.988 229.864C188.801 230.696 188.801 230.696 192.837 234.808L192.823 234.803ZM176.784 222.174L171.741 221.77C176.451 223.837 176.451 223.837 176.784 222.174Z" fill="white" fill-opacity="0.1"/>
<path d="M187.067 210.134C188.778 209.973 190.496 209.905 192.214 209.93C192.727 209.963 193.354 210.747 193.639 211.327C194.053 212.304 194.402 213.308 194.683 214.331C190.752 215.691 189.047 212.939 187.067 210.134Z" fill="white" fill-opacity="0.1"/>
<path d="M198.624 207.752C193.117 208.123 192.803 207.933 191.374 203.346C194.588 203.37 197.793 203.494 198.624 207.752Z" fill="white" fill-opacity="0.1"/>
<path d="M175.055 232.08C175.354 231.671 175.563 231.129 175.962 230.877C176.962 230.219 178.026 229.665 179.139 229.223C179.889 228.943 180.914 228.695 181.546 229C181.911 229.207 182.223 229.496 182.459 229.844C182.694 230.192 182.847 230.589 182.904 231.005C182.904 232.531 182.496 234.062 182.192 235.939C180.378 233.315 178.17 231.661 174.975 231.999L175.055 232.08Z" fill="white" fill-opacity="0.1"/>
<path d="M204.08 181.639C205.21 185.142 208.006 185.879 211.202 185.95C209.583 187.067 208.068 188.431 206.302 189.225C204.968 189.819 203.605 188.345 203.576 186.815C203.553 185.636 203.282 184.438 203.32 183.288C203.334 182.732 203.814 182.19 204.08 181.639Z" fill="white" fill-opacity="0.1"/>
</g>
<defs>
<clipPath id="clip0_308_551">
<rect width="79.5227" height="118.079" fill="white" transform="translate(237 644.632) rotate(-18.8036)"/>
</clipPath>
<clipPath id="clip1_308_551">
<rect width="79.5227" height="118.079" fill="white" transform="translate(1169.31 525) rotate(11.879)"/>
</clipPath>
<clipPath id="clip2_308_551">
<rect width="79.5227" height="118.079" fill="white" transform="translate(425 13.0137) rotate(-23.7392)"/>
</clipPath>
<clipPath id="clip3_308_551">
<rect width="74" height="125" fill="white" transform="translate(-32 499.279) rotate(-55.9038)"/>
</clipPath>
<clipPath id="clip4_308_551">
<rect width="74" height="125" fill="white" transform="translate(764 -25)"/>
</clipPath>
<clipPath id="clip5_308_551">
<rect width="74" height="125" fill="white" transform="translate(615.565 546.013) rotate(34.2297)"/>
</clipPath>
<clipPath id="clip6_308_551">
<rect width="74" height="125" fill="white" transform="translate(1255.31 284) rotate(34.2297)"/>
</clipPath>
<clipPath id="clip7_308_551">
<rect width="90" height="133" fill="white" transform="translate(844 732.023) rotate(-77.9684)"/>
</clipPath>
<clipPath id="clip8_308_551">
<rect width="90" height="133" fill="white" transform="translate(1098.32 179.033) rotate(96.4901)"/>
</clipPath>
<clipPath id="clip9_308_551">
<rect width="90" height="133" fill="white" transform="translate(135 174)"/>
</clipPath>
</defs>
</svg>
