<svg width="695" height="308" viewBox="0 0 695 308" fill="none" xmlns="http://www.w3.org/2000/svg">
<path fill-rule="evenodd" clip-rule="evenodd" d="M995.553 129.298C953.546 205.772 930.742 319.498 810.715 306.818C688.65 293.923 574.879 138.676 445.57 71.1967C328.398 10.0508 190.719 29.5499 98.5609 -64.8192C6.94092 -158.637 47.3007 -255.653 33.0415 -351.23C20.4484 -435.638 -24.4768 -535.884 20.1921 -590.11C64.4309 -643.813 170.137 -632.846 262.844 -630.195C348.418 -627.748 438.609 -601.007 532.448 -575.462C666.739 -538.905 814.548 -551.853 928.755 -448.92C1040.91 -347.836 1030.34 -222.787 1042.73 -115.556C1053.7 -20.5339 1034.25 58.8558 995.553 129.298Z" fill="#893583"/>
</svg>
