<svg width="716" height="232" viewBox="0 0 716 232" fill="none" xmlns="http://www.w3.org/2000/svg">
<path fill-rule="evenodd" clip-rule="evenodd" d="M-244.068 178.441C-214.078 105.566 -205.082 1.19221 -96.0738 0.466775C14.7855 -0.271016 132.558 127.594 255.424 175.117C366.758 218.18 488.364 186.792 580.598 262.197C672.293 337.162 645.854 428.307 668.292 512.653C688.108 587.143 738.542 672.587 703.919 725.762C669.629 778.424 573.648 779.243 490.172 786.215C413.119 792.65 329.472 777.745 242.671 764.282C118.453 745.015 -12.9061 771.546 -125.794 690.678C-236.654 611.263 -239.777 497.961 -261.711 402.966C-281.147 318.787 -271.692 245.569 -244.068 178.441Z" fill="#EADAF0"/>
</svg>
