<svg width="284" height="31" viewBox="0 0 284 31" fill="none" xmlns="http://www.w3.org/2000/svg">
<rect x="168" y="2" width="116" height="17" rx="8.5" fill="#FAEFF9"/>
<rect x="168" y="2" width="61" height="17" rx="8.5" fill="#050205"/>
<path d="M2.24009 6.43032L2.38618 6.00305H9.56906L9.42297 6.43032H2.24009ZM10.0804 0.598169C9.77197 0.598169 9.50413 0.655137 9.27688 0.769073C9.04962 0.88301 8.84672 1.01119 8.66816 1.15361C8.37598 1.39573 8.11625 1.76602 7.889 2.2645C7.67798 2.74873 7.47507 3.31129 7.28028 3.95219C7.10172 4.59308 6.90693 5.26958 6.69591 5.98169L2.19139 20.7009C1.80181 20.7152 1.42034 20.7436 1.047 20.7864C0.673649 20.8291 0.32465 20.9003 0 21L4.57757 5.98169C4.91845 4.84232 5.27557 3.90234 5.64891 3.16175C6.03849 2.42116 6.50924 1.81587 7.06114 1.34588C7.43449 1.01831 7.889 0.761953 8.42467 0.576806C8.97658 0.377415 9.5366 0.27772 10.1047 0.27772C10.8514 0.27772 11.4196 0.427263 11.8091 0.726348C12.215 1.01119 12.4179 1.36724 12.4179 1.79451C12.4179 2.03662 12.3448 2.27162 12.1987 2.49949C12.0526 2.72736 11.8578 2.91251 11.6144 3.05493C11.3709 3.19736 11.0949 3.26857 10.7865 3.26857C10.4781 3.26857 10.2346 3.20448 10.056 3.0763C9.87748 2.94812 9.79632 2.77009 9.81255 2.54222C9.81255 2.18616 9.94241 1.88708 10.2021 1.64496C10.4619 1.38861 10.7946 1.21058 11.2004 1.11088C11.2004 0.982706 11.0949 0.868769 10.8839 0.769073C10.6729 0.655137 10.405 0.598169 10.0804 0.598169Z" fill="#050205"/>
<path d="M15.8337 6.13123C15.3143 6.13123 14.8111 6.31638 14.3241 6.68667C13.8534 7.04273 13.4151 7.53408 13.0093 8.16073C12.6197 8.77314 12.2707 9.46389 11.9623 10.233C11.6701 11.002 11.4428 11.7996 11.2805 12.6256C11.1182 13.4517 11.037 14.2421 11.037 14.9969C11.037 15.6378 11.1507 16.1078 11.3779 16.4069C11.6214 16.706 11.9704 16.8555 12.4249 16.8555C12.9443 16.8555 13.4394 16.6775 13.9102 16.3215C14.3972 15.9512 14.8436 15.4598 15.2494 14.8474C15.6552 14.2208 16.0042 13.5229 16.2964 12.7538C16.5885 11.9847 16.8158 11.1943 16.9781 10.3825C17.1404 9.55646 17.2216 8.7589 17.2216 7.98983C17.2216 7.33469 17.108 6.8647 16.8807 6.57986C16.6535 6.28077 16.3045 6.13123 15.8337 6.13123ZM8.94303 13.9288C8.94303 13.3021 9.04043 12.6185 9.23522 11.8779C9.43001 11.1373 9.72219 10.4039 10.1118 9.67752C10.5014 8.95117 10.9721 8.28891 11.524 7.69074C12.0921 7.09257 12.7496 6.61546 13.4963 6.25941C14.2429 5.88912 15.0708 5.70397 15.9798 5.70397C16.9862 5.70397 17.7898 5.98169 18.3904 6.53713C19.0072 7.07833 19.3156 7.91862 19.3156 9.05799C19.3156 9.68464 19.2182 10.3683 19.0234 11.1089C18.8286 11.8494 18.5364 12.5829 18.1469 13.3093C17.7573 14.0356 17.2784 14.6979 16.7103 15.296C16.1584 15.8942 15.5091 16.3784 14.7624 16.7487C14.0157 17.1048 13.1878 17.2828 12.2788 17.2828C11.2724 17.2828 10.4608 17.0051 9.84394 16.4496C9.24333 15.8942 8.94303 15.0539 8.94303 13.9288Z" fill="#050205"/>
<path d="M23.267 16.9837H21.1486L24.0705 7.81892C24.2328 7.33469 24.2815 6.99288 24.2166 6.79349C24.1679 6.5941 24.0055 6.49441 23.7296 6.49441C23.3725 6.49441 23.0478 6.65819 22.7556 6.98576C22.4634 7.31333 22.155 7.87589 21.8304 8.67345L21.5138 9.46389H21.0512L21.6599 7.90437C21.9034 7.30621 22.1875 6.85046 22.5121 6.53713C22.853 6.2238 23.202 6.01017 23.5591 5.89624C23.9325 5.76806 24.2815 5.70397 24.6061 5.70397C25.0931 5.70397 25.434 5.79654 25.6288 5.98169C25.8398 6.16684 25.9534 6.40895 25.9697 6.70804C26.0021 7.00712 25.9778 7.33469 25.8966 7.69074C25.8317 8.03255 25.7505 8.36724 25.6531 8.69481L23.267 16.9837ZM29.5246 6.23805C29.1512 6.23805 28.7617 6.39471 28.3558 6.70804C27.9663 7.00712 27.5605 7.44863 27.1384 8.03255C26.7326 8.60224 26.3187 9.29298 25.8966 10.1048C25.4908 10.9023 25.085 11.7925 24.6792 12.7752C24.2896 13.7579 23.9081 14.8189 23.5348 15.9583L24.1435 13.2238C24.6792 11.8281 25.1743 10.6531 25.6288 9.69888C26.0995 8.74466 26.5622 7.97558 27.0167 7.39166C27.4712 6.79349 27.9338 6.36623 28.4045 6.10987C28.8915 5.83927 29.4028 5.70397 29.9385 5.70397C30.393 5.70397 30.742 5.8179 30.9855 6.04578C31.2452 6.27365 31.3751 6.56562 31.3751 6.92167C31.3751 7.20651 31.2939 7.46999 31.1316 7.71211C30.9693 7.93998 30.7583 8.12513 30.4985 8.26755C30.255 8.39573 29.9791 8.45982 29.6707 8.45982C29.3947 8.45982 29.1594 8.39573 28.9646 8.26755C28.786 8.12513 28.6967 7.93286 28.6967 7.69074C28.6967 7.46287 28.7454 7.26348 28.8428 7.09257C28.9402 6.90743 29.0701 6.75076 29.2324 6.62258C29.3947 6.49441 29.5814 6.39471 29.7924 6.3235C29.76 6.29501 29.7194 6.27365 29.6707 6.25941C29.6382 6.24517 29.5895 6.23805 29.5246 6.23805Z" fill="#050205"/>
<path d="M43.7372 16.1292L42.1059 17.6887L40.2554 7.86165C40.1742 7.42014 40.0768 7.11394 39.9632 6.94303C39.8495 6.77213 39.6872 6.68667 39.4762 6.68667C39.2976 6.68667 39.0947 6.81485 38.8675 7.07121C38.6402 7.31333 38.3643 7.84029 38.0396 8.65209L37.7231 9.44252H37.2605L37.8692 7.88301C38.2101 7.01424 38.6321 6.43744 39.1353 6.15259C39.6385 5.85351 40.1498 5.70397 40.6693 5.70397C41.1725 5.70397 41.5621 5.84639 41.838 6.13123C42.114 6.40183 42.3088 6.91455 42.4224 7.66938L43.7372 16.1292ZM38.4048 19.9959C39.1028 19.6684 39.8414 19.2197 40.6206 18.6501C41.416 18.0946 42.2357 17.3398 43.0798 16.3856C44.0375 15.3174 44.906 14.1211 45.6851 12.7965C46.4805 11.4578 47.0324 10.1119 47.3408 8.7589C47.0811 8.63072 46.7971 8.47406 46.4886 8.28891C46.1964 8.08952 45.953 7.86165 45.7582 7.60529C45.5634 7.33469 45.4741 7.0356 45.4903 6.70804C45.5228 6.38047 45.6527 6.13123 45.8799 5.96033C46.1072 5.78942 46.3912 5.70397 46.7321 5.70397C47.1704 5.70397 47.4869 5.85351 47.6817 6.15259C47.8927 6.43744 47.9983 6.8647 47.9983 7.43438C47.9983 8.16073 47.8603 8.94405 47.5843 9.78433C47.3084 10.6104 46.935 11.4507 46.4643 12.3052C46.0098 13.1597 45.4985 13.9858 44.9303 14.7833C44.3622 15.5666 43.7859 16.2787 43.2016 16.9196C42.9418 17.2045 42.5847 17.5605 42.1302 17.9878C41.6757 18.4151 41.1319 18.8494 40.4988 19.2909C39.882 19.7467 39.184 20.1384 38.4048 20.4659C37.9179 20.6653 37.4958 20.8006 37.1387 20.8718C36.7978 20.9573 36.5138 21 36.2865 21C35.9619 21 35.6778 20.9217 35.4343 20.765C35.1908 20.6226 35.0691 20.409 35.0691 20.1241C35.0691 19.8108 35.207 19.5687 35.483 19.3978C35.7427 19.2411 36.043 19.1628 36.3839 19.1628C36.7572 19.1628 37.1062 19.2482 37.4309 19.4191C37.7718 19.59 38.0964 19.7823 38.4048 19.9959Z" fill="#050205"/>
<path d="M55.9711 6.13123C55.4517 6.13123 54.9485 6.31638 54.4615 6.68667C53.9908 7.04273 53.5525 7.53408 53.1467 8.16073C52.7571 8.77314 52.4081 9.46389 52.0997 10.233C51.8075 11.002 51.5802 11.7996 51.4179 12.6256C51.2556 13.4517 51.1744 14.2421 51.1744 14.9969C51.1744 15.6378 51.2881 16.1078 51.5153 16.4069C51.7588 16.706 52.1078 16.8555 52.5623 16.8555C53.0818 16.8555 53.5769 16.6775 54.0476 16.3215C54.5346 15.9512 54.981 15.4598 55.3868 14.8474C55.7926 14.2208 56.1416 13.5229 56.4338 12.7538C56.726 11.9847 56.9532 11.1943 57.1155 10.3825C57.2779 9.55646 57.359 8.7589 57.359 7.98983C57.359 7.33469 57.2454 6.8647 57.0181 6.57986C56.7909 6.28077 56.4419 6.13123 55.9711 6.13123ZM49.0804 13.9288C49.0804 13.3021 49.1778 12.6185 49.3726 11.8779C49.5674 11.1373 49.8596 10.4039 50.2492 9.67752C50.6388 8.95117 51.1095 8.28891 51.6614 7.69074C52.2296 7.09257 52.887 6.61546 53.6337 6.25941C54.3804 5.88912 55.2082 5.70397 56.1172 5.70397C57.1237 5.70397 57.9272 5.98169 58.5278 6.53713C59.1446 7.07833 59.453 7.91862 59.453 9.05799C59.453 9.68464 59.3556 10.3683 59.1608 11.1089C58.966 11.8494 58.6739 12.5829 58.2843 13.3093C57.8947 14.0356 57.4158 14.6979 56.8477 15.296C56.2958 15.8942 55.6465 16.3784 54.8998 16.7487C54.1531 17.1048 53.3252 17.2828 52.4162 17.2828C51.4098 17.2828 50.5982 17.0051 49.9813 16.4496C49.3807 15.8942 49.0804 15.0539 49.0804 13.9288Z" fill="#050205"/>
<path d="M70.1246 9.59207C69.5403 11.0163 68.9802 12.2197 68.4446 13.2024C67.9089 14.1851 67.3732 14.9756 66.8375 15.5738C66.3181 16.1719 65.7824 16.6063 65.2305 16.8769C64.6948 17.1475 64.1348 17.2828 63.5505 17.2828C62.8362 17.2828 62.3168 17.1404 61.9921 16.8555C61.6675 16.5707 61.5052 16.1862 61.5052 15.7019C61.5052 15.2177 61.6188 14.6694 61.846 14.057L64.2079 7.81892C64.3702 7.39166 64.427 7.06409 64.3783 6.83622C64.3296 6.60834 64.1429 6.49441 63.8183 6.49441C63.5099 6.49441 63.2015 6.64395 62.893 6.94303C62.6009 7.24212 62.2843 7.81892 61.9434 8.67345L61.6269 9.46389H61.1643L61.773 7.90437C62.0165 7.30621 62.3006 6.85046 62.6252 6.53713C62.9661 6.2238 63.3151 6.01017 63.6722 5.89624C64.0455 5.76806 64.3945 5.70397 64.7192 5.70397C65.4334 5.70397 65.9042 5.85351 66.1314 6.15259C66.3749 6.43744 66.4642 6.80773 66.3993 7.26348C66.3506 7.71923 66.2288 8.19634 66.034 8.69481L63.7209 14.8047C63.2664 16.001 63.4449 16.5992 64.2566 16.5992C64.6461 16.5992 65.0601 16.4496 65.4984 16.1506C65.9366 15.8372 66.383 15.3957 66.8375 14.826C67.2921 14.2421 67.7384 13.5514 68.1767 12.7538C68.6312 11.942 69.0614 11.0448 69.4672 10.0621C69.8893 9.06511 70.2707 7.99695 70.6116 6.85758L70.1246 9.59207ZM70.0516 15.1679C69.938 15.5524 69.8811 15.8728 69.8811 16.1292C69.8974 16.3713 70.0678 16.4924 70.3925 16.4924C70.7496 16.4924 71.0742 16.3286 71.3664 16.001C71.6748 15.6592 71.9832 15.0966 72.2917 14.3133L72.6082 13.5229H73.0708L72.4621 15.0824C72.2348 15.6806 71.9508 16.1363 71.6099 16.4496C71.2852 16.763 70.9362 16.9766 70.5629 17.0905C70.2058 17.2187 69.8568 17.2828 69.5159 17.2828C69.2562 17.2828 69.0127 17.233 68.7854 17.1333C68.5582 17.0336 68.3877 16.8912 68.2741 16.706C68.1443 16.4639 68.0956 16.1577 68.128 15.7874C68.1767 15.4171 68.2904 14.9186 68.4689 14.292L70.8551 6.00305C71.2609 5.98881 71.6505 5.96033 72.0238 5.9176C72.4134 5.87487 72.7624 5.80366 73.0708 5.70397L70.0516 15.1679Z" fill="#050205"/>
<path d="M77.2194 16.9837H75.1011L78.0229 7.81892C78.1853 7.33469 78.234 6.99288 78.169 6.79349C78.1203 6.5941 77.958 6.49441 77.6821 6.49441C77.3249 6.49441 77.0003 6.65819 76.7081 6.98576C76.4159 7.31333 76.1075 7.87589 75.7829 8.67345L75.4663 9.46389H75.0037L75.6124 7.90437C75.8559 7.30621 76.14 6.85046 76.4646 6.53713C76.8055 6.2238 77.1545 6.01017 77.5116 5.89624C77.885 5.76806 78.234 5.70397 78.5586 5.70397C79.0456 5.70397 79.3865 5.79654 79.5813 5.98169C79.7923 6.16684 79.9059 6.40895 79.9221 6.70804C79.9546 7.00712 79.9303 7.33469 79.8491 7.69074C79.7842 8.03255 79.703 8.36724 79.6056 8.69481L77.2194 16.9837ZM83.4771 6.23805C83.1037 6.23805 82.7141 6.39471 82.3083 6.70804C81.9187 7.00712 81.5129 7.44863 81.0909 8.03255C80.6851 8.60224 80.2711 9.29298 79.8491 10.1048C79.4433 10.9023 79.0375 11.7925 78.6317 12.7752C78.2421 13.7579 77.8606 14.8189 77.4873 15.9583L78.096 13.2238C78.6317 11.8281 79.1267 10.6531 79.5813 9.69888C80.052 8.74466 80.5146 7.97558 80.9691 7.39166C81.4237 6.79349 81.8863 6.36623 82.357 6.10987C82.844 5.83927 83.3553 5.70397 83.891 5.70397C84.3455 5.70397 84.6945 5.8179 84.938 6.04578C85.1977 6.27365 85.3276 6.56562 85.3276 6.92167C85.3276 7.20651 85.2464 7.46999 85.0841 7.71211C84.9218 7.93998 84.7107 8.12513 84.451 8.26755C84.2075 8.39573 83.9316 8.45982 83.6232 8.45982C83.3472 8.45982 83.1118 8.39573 82.917 8.26755C82.7385 8.12513 82.6492 7.93286 82.6492 7.69074C82.6492 7.46287 82.6979 7.26348 82.7953 7.09257C82.8927 6.90743 83.0226 6.75076 83.1849 6.62258C83.3472 6.49441 83.5339 6.39471 83.7449 6.3235C83.7124 6.29501 83.6719 6.27365 83.6232 6.25941C83.5907 6.24517 83.542 6.23805 83.4771 6.23805Z" fill="#050205"/>
<path d="M92.6982 16.9837H90.5799L95.4009 2.73449C95.5632 2.25025 95.5389 1.8942 95.3279 1.66633C95.1331 1.43845 94.638 1.32452 93.8426 1.32452L93.9887 0.87589C94.8815 0.861648 95.685 0.783316 96.3992 0.640895C97.1135 0.484232 97.7709 0.2706 98.3715 0L92.6982 16.9837ZM93.38 13.822C93.9968 12.3266 94.5812 11.059 95.1331 10.0193C95.7012 8.97965 96.2612 8.14649 96.8131 7.51984C97.3651 6.87894 97.9332 6.41607 98.5176 6.13123C99.1019 5.84639 99.7107 5.70397 100.344 5.70397C101.107 5.70397 101.626 5.86775 101.902 6.19532C102.194 6.50865 102.324 6.91455 102.292 7.41302C102.259 7.9115 102.146 8.41709 101.951 8.92981L99.5889 15.1679C99.4591 15.5381 99.4022 15.8515 99.4185 16.1078C99.4347 16.3642 99.6214 16.4924 99.9785 16.4924C100.287 16.4924 100.587 16.3428 100.879 16.0437C101.188 15.7447 101.512 15.1679 101.853 14.3133L102.17 13.5229H102.633L102.024 15.0824C101.797 15.6806 101.512 16.1363 101.172 16.4496C100.847 16.763 100.498 16.9766 100.125 17.0905C99.7675 17.2187 99.4185 17.2828 99.0776 17.2828C98.4283 17.2828 97.9738 17.1546 97.7141 16.8983C97.4543 16.6419 97.3407 16.2859 97.3732 15.8301C97.4219 15.3744 97.5517 14.8616 97.7627 14.292L100.076 8.1821C100.157 7.96846 100.23 7.71923 100.295 7.43438C100.36 7.14954 100.344 6.90743 100.246 6.70804C100.165 6.4944 99.9298 6.38759 99.5402 6.38759C99.1344 6.38759 98.6961 6.55137 98.2254 6.87894C97.7709 7.19227 97.3001 7.64802 96.8131 8.24619C96.3262 8.84435 95.8473 9.56358 95.3766 10.4039C94.9058 11.2442 94.4513 12.1841 94.013 13.2238C93.591 14.2492 93.1933 15.3601 92.8199 16.5565L93.38 13.822Z" fill="#050205"/>
<path d="M107.067 16.5992C107.457 16.5992 107.903 16.3856 108.406 15.9583C108.91 15.5168 109.421 14.9257 109.94 14.1851C110.46 13.4446 110.939 12.6043 111.377 11.6643C111.815 10.7243 112.164 9.74873 112.424 8.73754L112.01 11.0448C111.393 12.5544 110.776 13.7721 110.16 14.6979C109.543 15.6094 108.918 16.2716 108.285 16.6846C107.652 17.0834 107.01 17.2828 106.361 17.2828C105.598 17.2828 105.022 17.0407 104.632 16.5565C104.259 16.0722 104.072 15.4527 104.072 14.6979C104.072 14.0142 104.202 13.2737 104.462 12.4761C104.722 11.6643 105.079 10.8596 105.533 10.0621C106.004 9.2645 106.54 8.53815 107.14 7.88301C107.741 7.22787 108.39 6.70092 109.088 6.30214C109.802 5.90336 110.525 5.70397 111.255 5.70397C111.823 5.70397 112.254 5.9532 112.546 6.45168C112.854 6.93591 112.919 7.61953 112.74 8.50254L112.473 8.63072C112.586 7.87589 112.529 7.2706 112.302 6.81485C112.075 6.34486 111.702 6.10987 111.182 6.10987C110.76 6.10987 110.314 6.29502 109.843 6.66531C109.388 7.02136 108.942 7.51272 108.504 8.13937C108.082 8.75178 107.692 9.44252 107.335 10.2116C106.994 10.9807 106.718 11.7782 106.507 12.6043C106.312 13.4161 106.215 14.1994 106.215 14.9542C106.215 15.5666 106.288 15.9939 106.434 16.236C106.596 16.4781 106.807 16.5992 107.067 16.5992ZM113.203 6.00305C113.593 5.98881 113.982 5.96033 114.372 5.9176C114.761 5.87487 115.119 5.80366 115.443 5.70397L112.4 15.1465C112.367 15.2747 112.318 15.4456 112.254 15.6592C112.205 15.8586 112.205 16.0437 112.254 16.2146C112.318 16.3856 112.489 16.471 112.765 16.471C113.089 16.471 113.406 16.3143 113.714 16.001C114.023 15.6877 114.331 15.118 114.64 14.292L114.932 13.5015H115.394L114.786 15.061C114.559 15.6307 114.283 16.0794 113.958 16.4069C113.649 16.7202 113.325 16.941 112.984 17.0692C112.643 17.2116 112.31 17.2828 111.986 17.2828C111.353 17.2828 110.906 17.0977 110.646 16.7274C110.435 16.3998 110.379 16.0224 110.476 15.5951C110.573 15.1536 110.687 14.7121 110.817 14.2706L113.203 6.00305Z" fill="#050205"/>
<path d="M121.2 2.11495C121.281 1.74466 121.492 1.42421 121.833 1.15361C122.19 0.88301 122.572 0.74771 122.978 0.74771C123.4 0.74771 123.724 0.88301 123.952 1.15361C124.195 1.42421 124.276 1.74466 124.195 2.11495C124.114 2.48525 123.895 2.8057 123.538 3.0763C123.197 3.3469 122.815 3.4822 122.393 3.4822C121.987 3.4822 121.663 3.3469 121.419 3.0763C121.192 2.8057 121.119 2.48525 121.2 2.11495ZM120.445 7.81892C120.786 6.93591 120.673 6.49441 120.104 6.49441C119.731 6.49441 119.398 6.67243 119.106 7.02848C118.814 7.38454 118.506 7.93286 118.181 8.67345L117.84 9.46389H117.377L118.01 7.90437C118.254 7.30621 118.546 6.85046 118.887 6.53713C119.228 6.2238 119.585 6.01017 119.958 5.89624C120.348 5.76806 120.705 5.70397 121.03 5.70397C121.549 5.70397 121.931 5.79654 122.174 5.98169C122.418 6.16684 122.564 6.40895 122.612 6.70804C122.661 7.00712 122.645 7.33469 122.564 7.69074C122.483 8.03255 122.377 8.36724 122.247 8.69481L119.642 15.1679C119.48 15.5809 119.423 15.9084 119.471 16.1506C119.536 16.3784 119.723 16.4924 120.031 16.4924C120.356 16.4924 120.664 16.3357 120.957 16.0224C121.249 15.7091 121.573 15.1394 121.931 14.3133L122.271 13.5229H122.734L122.101 15.0824C121.874 15.6378 121.598 16.0794 121.273 16.4069C120.949 16.7202 120.6 16.941 120.226 17.0692C119.853 17.2116 119.479 17.2828 119.106 17.2828C118.408 17.2828 117.937 17.1404 117.694 16.8555C117.45 16.5707 117.361 16.2004 117.426 15.7447C117.491 15.2889 117.629 14.8047 117.84 14.292L120.445 7.81892Z" fill="#050205"/>
<path d="M126.892 16.9837H124.774L127.695 7.81892C127.858 7.33469 127.906 6.99288 127.841 6.79349C127.793 6.5941 127.63 6.49441 127.354 6.49441C126.997 6.49441 126.673 6.65819 126.381 6.98576C126.088 7.31333 125.78 7.87589 125.455 8.67345L125.139 9.46389H124.676L125.285 7.90437C125.528 7.30621 125.812 6.85046 126.137 6.53713C126.478 6.2238 126.827 6.01017 127.184 5.89624C127.557 5.76806 127.906 5.70397 128.231 5.70397C128.718 5.70397 129.059 5.79654 129.254 5.98169C129.465 6.16684 129.578 6.40895 129.595 6.70804C129.627 7.00712 129.603 7.33469 129.522 7.69074C129.457 8.03255 129.375 8.36724 129.278 8.69481L126.892 16.9837ZM133.149 6.23805C132.776 6.23805 132.387 6.39471 131.981 6.70804C131.591 7.00712 131.185 7.44863 130.763 8.03255C130.357 8.60224 129.944 9.29298 129.522 10.1048C129.116 10.9023 128.71 11.7925 128.304 12.7752C127.914 13.7579 127.533 14.8189 127.16 15.9583L127.768 13.2238C128.304 11.8281 128.799 10.6531 129.254 9.69888C129.724 8.74466 130.187 7.97558 130.642 7.39166C131.096 6.79349 131.559 6.36623 132.029 6.10987C132.516 5.83927 133.028 5.70397 133.563 5.70397C134.018 5.70397 134.367 5.8179 134.61 6.04578C134.87 6.27365 135 6.56562 135 6.92167C135 7.20651 134.919 7.46999 134.757 7.71211C134.594 7.93998 134.383 8.12513 134.123 8.26755C133.88 8.39573 133.604 8.45982 133.296 8.45982C133.02 8.45982 132.784 8.39573 132.589 8.26755C132.411 8.12513 132.322 7.93286 132.322 7.69074C132.322 7.46287 132.37 7.26348 132.468 7.09257C132.565 6.90743 132.695 6.75076 132.857 6.62258C133.02 6.49441 133.206 6.39471 133.417 6.3235C133.385 6.29501 133.344 6.27365 133.296 6.25941C133.263 6.24517 133.214 6.23805 133.149 6.23805Z" fill="#050205"/>
<path fill-rule="evenodd" clip-rule="evenodd" d="M40.7542 27.9253C52.1114 26.4405 63.6345 24.4385 74.8557 25.1215C75.6602 25.1712 76.4754 24.8092 76.6766 24.3195C76.8773 23.8269 76.3831 23.3876 75.5785 23.3379C64.0427 22.6352 52.2 24.648 40.5287 26.1754C39.7003 26.2837 39.0839 26.7624 39.1466 27.2435C39.2097 27.7276 39.9303 28.03 40.7542 27.9253Z" fill="#050205"/>
</svg>
