<svg width="721" height="720" viewBox="0 0 721 720" fill="none" xmlns="http://www.w3.org/2000/svg">
<path fill-rule="evenodd" clip-rule="evenodd" d="M869.308 1028.4C743.556 1087.66 603.474 1194.09 474.087 1125.68C342.501 1056.11 362.301 843.984 276.432 714.943C198.623 598.014 16.3489 554.554 1.1739 415C-13.9125 276.26 130.32 195.116 208.504 90.2547C277.553 -2.35364 324.101 -126.162 430.876 -161.317C536.621 -196.134 650.771 -136.095 757.812 -90.6029C856.618 -48.6112 936.723 20.4933 1022.33 90.0494C1144.85 189.59 1332.59 244.459 1365.34 402.991C1397.49 558.676 1260.62 682.388 1168.63 798.37C1087.11 901.147 985.142 973.81 869.308 1028.4Z" fill="#EADAF0"/>
</svg>
