<svg width="151" height="27" viewBox="0 0 151 27" fill="none" xmlns="http://www.w3.org/2000/svg">
<path d="M75.3278 13.591C75.8289 13.591 79.5098 13.1826 79.5098 9.21662C79.5098 5.06813 76.5564 4.86646 73.0754 4.86646H68.0664V5.09536C69.169 5.09536 69.5185 6.29029 69.5185 7.8664V19.722C69.5185 21.4503 69.1414 22.5424 68.0664 22.5424V22.7713H73.0754C77.408 22.7713 80.6882 22.6443 80.6882 18.2195C80.6873 13.9197 76.9551 13.591 75.3278 13.591ZM72.0968 5.19821H73.1994C74.7273 5.19821 76.8075 5.45233 76.8075 9.1894C76.8075 13.0565 75.1526 13.5396 73.6011 13.5396H72.0978V5.19821H72.0968ZM73.1994 22.4436H72.0968V13.8703H73.6001C75.4538 13.8703 77.8815 13.9974 77.8815 18.1186C77.8825 22.493 75.6025 22.4436 73.1994 22.4436Z" fill="#050205"/>
<path d="M85.9003 20.4336V4L82.4429 4.68772V5.01847C83.4697 5.22317 83.6961 5.57913 83.6961 6.46751V20.4336C83.6961 21.7314 83.6449 22.161 82.6939 22.4433V22.7721H86.9035V22.4433C86.0273 22.2134 85.9003 21.8302 85.9003 20.4336Z" fill="#050205"/>
<path d="M94.2923 21.678C92.3145 21.4733 90.8112 20.1019 90.7108 16.6684H98.7243C98.7243 12.6742 96.7219 10.7915 93.8148 10.7915C90.7108 10.7915 88.355 13.2338 88.355 16.9991C88.355 20.355 90.5838 23 93.7144 23C96.6707 23 98.047 20.9661 98.3227 19.7702L98.0234 19.6431C97.5745 20.8895 95.7955 21.8303 94.2923 21.678ZM93.739 11.1233C94.944 11.1233 96.5713 12.6217 96.5713 16.3376H90.7108C90.7108 13.133 92.3135 11.1233 93.739 11.1233Z" fill="#050205"/>
<path d="M110.573 20.4064V14.8613C110.573 11.7837 109.144 10.7925 107.115 10.7925C105.539 10.7925 103.808 11.9874 103.284 13.4647V10.7925L99.8291 11.5296V11.8362C100.881 12.1145 101.079 12.4462 101.079 13.3376V20.4336C101.079 21.7314 101.055 22.161 100.104 22.4433V22.7721H104.31V22.4433C103.411 22.2144 103.284 21.8302 103.284 20.4336V14.2512C103.485 13.3376 104.537 12.0651 105.838 12.0651C107.493 12.0651 108.393 13.2076 108.393 14.9379V20.4054C108.393 21.7022 108.345 22.1852 107.393 22.4675V22.7711H111.599V22.4675C110.723 22.2386 110.573 21.805 110.573 20.4064Z" fill="#050205"/>
<path d="M124.123 20.7896V4L120.694 4.68772V5.01847C121.72 5.22317 121.97 5.55392 121.97 6.44231V11.7333C121.143 11.1484 120.117 10.7925 118.888 10.7925C115.533 10.7925 113.003 12.8022 113.003 16.743C113.003 20.3066 114.932 23 118.288 23C119.516 23 121.195 22.4151 121.971 21.1173V22.517C121.971 22.517 121.971 23.1018 122.672 22.9748L125.402 22.517V22.1862C124.398 22.1862 124.123 22.0339 124.123 20.7896ZM121.97 19.2629C121.97 21.0427 120.717 22.2629 119.065 22.2629C116.886 22.2629 115.608 20.4326 115.608 16.386C115.608 12.3172 117.286 11.1222 118.938 11.1222C120.466 11.1222 121.969 12.3424 121.969 14.8099V19.2629H121.97Z" fill="#050205"/>
<path d="M132.391 21.678C130.413 21.4733 128.91 20.1019 128.809 16.6684H136.823C136.823 12.6742 134.821 10.7915 131.913 10.7915C128.809 10.7915 126.454 13.2338 126.454 16.9991C126.454 20.355 128.682 23 131.813 23C134.769 23 136.146 20.9661 136.421 19.7702L136.122 19.6431C135.673 20.8895 133.894 21.8303 132.391 21.678ZM131.839 11.1233C133.044 11.1233 134.671 12.6217 134.671 16.3376H128.81C128.809 13.133 130.413 11.1233 131.839 11.1233Z" fill="#050205"/>
<path d="M149.724 20.7896V4L146.294 4.68772V5.01847C147.32 5.22317 147.571 5.55392 147.571 6.44231V11.7333C146.744 11.1484 145.717 10.7925 144.49 10.7925C141.132 10.7925 138.602 12.8022 138.602 16.743C138.602 20.3066 140.532 23 143.889 23C145.114 23 146.794 22.4151 147.57 21.1173V22.517C147.57 22.517 147.57 23.1018 148.27 22.9748L151 22.517V22.1862C150 22.1862 149.724 22.0339 149.724 20.7896ZM147.571 19.2629C147.571 21.0427 146.317 22.2629 144.665 22.2629C142.486 22.2629 141.208 20.4326 141.208 16.386C141.208 12.3172 142.886 11.1222 144.538 11.1222C146.066 11.1222 147.57 12.3424 147.57 14.8099V19.2629H147.571Z" fill="#050205"/>
<path d="M61.847 21.678C59.8692 21.4733 58.3659 20.1019 58.2655 16.6684H66.282C66.282 12.6742 64.2776 10.7915 61.3725 10.7915C58.2655 10.7915 55.9106 13.2338 55.9106 16.9991C55.9106 20.355 58.1414 23 61.2701 23C64.2264 23 65.6057 20.9661 65.8803 19.7702L65.5781 19.6431C65.1292 20.8895 63.3503 21.8303 61.847 21.678ZM61.2967 11.1233C62.4987 11.1233 64.126 12.6217 64.126 16.3376H58.2655C58.2655 13.133 59.8692 11.1233 61.2967 11.1233Z" fill="#050205"/>
<path d="M41.3066 22.2175H37.0557V22.7732H41.3066V22.2175Z" fill="#050205"/>
<path d="M48.471 13.591C48.9721 13.591 52.6559 13.1826 52.6559 9.21662C52.6559 5.06813 49.6996 4.86646 46.2185 4.86646H41.2332H41.2096H37.0089H37V5.42107H37.0079H40.926V6.46474H37.0079V7.02238H40.926V8.09833H37.0079V8.65596H40.926V9.63006H37.0541V10.1857H40.926V11.1981H37.0886V11.7537H40.926V11.9201L40.0203 12.7167H37.0069V13.2713H39.6581C39.5527 13.5527 39.5212 13.8945 39.6856 14.2323H37.0059V14.7869H40.1473L41.0668 15.6763V15.7822H37.1083V16.3378H41.0678V17.4511H37.0069V18.0057H41.0678V18.878H37.0738V19.4336H41.0678V20.6446H37.0738V21.2003H41.0678V22.6362H41.2066V22.7733H46.2156C50.5482 22.7733 53.8304 22.6463 53.8304 18.2215C53.8334 13.9197 50.1013 13.591 48.471 13.591ZM45.24 5.19821H46.3426C47.8705 5.19821 49.9506 5.45233 49.9506 9.1894C49.9506 13.0566 48.2957 13.5396 46.7442 13.5396H45.24V5.19821ZM42.6617 19.722C42.6617 21.1922 42.3899 22.2026 41.6437 22.4708L41.6427 15.4464L40.3777 14.2233C39.9012 13.7624 40.3009 13.2451 40.3816 13.1513L41.501 12.1672V5.12763C42.3732 5.32426 42.6617 6.44155 42.6617 7.86841V19.722ZM46.3426 22.4436H45.24V13.8703H46.7432C48.597 13.8703 51.0247 13.9974 51.0247 18.1186C51.0257 22.493 48.7486 22.4436 46.3426 22.4436Z" fill="#050205"/>
<g clip-path="url(#clip0_7_6108)">
<path d="M23.7612 22.7985C20.1051 22.558 17.5987 22.9705 16.1709 21.0457L16.1106 20.8945L16.1905 20.9906C16.7268 20.9906 16.6912 21.2553 17.0312 21.6083C17.3712 21.9612 17.5319 21.7144 17.9969 21.5379C18.3083 21.4199 18.6518 21.5265 18.9335 21.6707C19.1871 21.8006 19.4839 21.9721 19.6958 21.6792C19.8073 21.525 19.9304 21.3788 20.0404 21.2236C20.1187 21.1131 20.1383 21.0006 20.2839 20.9743C20.3964 20.954 20.5169 21.0055 20.6284 21.0134C20.8419 21.0293 21.0583 21.0323 21.2692 20.9906C21.6866 20.9084 21.5861 20.1415 21.7318 19.8609C21.9281 19.4827 22.5946 19.6572 22.7276 19.223C22.8366 18.8686 22.579 18.59 22.578 18.2435C22.5765 17.7121 23.4834 17.4033 23.0395 16.8773C22.9034 16.7162 22.7392 16.5591 22.6222 16.3846C22.5067 16.2126 22.6227 15.8998 22.7101 15.7288C22.7683 15.6148 22.7909 15.4819 22.7804 15.355C22.7613 15.1201 22.6172 14.8846 22.36 14.8643C21.9131 14.8291 21.5374 14.5818 21.5912 13.9815C21.6449 13.3812 20.9488 13.3752 20.9488 13.3752C20.7696 13.3951 20.5898 13.4144 20.4105 13.4342C20.2613 13.4506 20.2533 13.4332 20.1443 13.3162C20.0378 13.2017 19.9294 13.0887 19.8214 12.9757C19.8571 12.8632 19.8902 12.7506 19.9213 12.6371C20.8725 12.7819 21.3918 12.1672 21.6333 11.6428C22.4153 9.60097 21.0533 8.97887 21.0533 8.97887L20.9965 8.96896L21.0131 8.76175C21.6389 8.74688 21.5776 7.82786 21.2115 7.5116C20.995 7.32472 20.9996 6.99409 21.0905 6.74723C21.1783 6.5093 21.4546 6.31251 21.4435 6.04384C21.437 5.8867 21.3305 5.74047 21.2266 5.62894C21.1035 5.49659 20.9805 5.36374 20.8574 5.23139C20.6736 5.0341 20.6756 4.74312 20.7766 4.49081C20.8404 4.33021 20.9011 4.19538 20.8514 4.0194C20.8022 3.84591 20.633 3.64218 20.4481 3.59509C20.2583 3.547 19.9746 3.32493 19.8797 3.15937C19.726 2.89119 19.8209 2.55759 19.7089 2.27554C19.5919 1.9806 19.3197 1.87947 19.0139 1.89286C18.3434 1.9226 18.3429 1.65145 18.0225 1.06454C17.6268 0.339337 16.9297 1.2306 16.428 0.764646C16.3085 0.65361 16.1885 0.542573 16.0689 0.431537C15.7179 -0.0502824 15.1685 0.311082 15.1685 0.311082C14.7411 0.627338 14.3138 0.492012 13.9933 0.190627C13.6729 -0.110758 13.2913 -0.0354111 12.9402 0.280845C12.5892 0.597101 12.3451 0.537121 11.8414 0.265974C11.3377 -0.00517359 11.0479 0.326449 11.0479 0.326449C10.9344 0.456322 10.8124 0.579255 10.6949 0.705658C10.6487 0.755228 10.5934 0.843462 10.5347 0.877666C10.4609 0.920296 10.2489 0.95549 10.1631 0.928723C10.161 0.928227 9.67491 0.778031 9.67491 0.778031C9.14057 0.612467 8.88143 0.973832 8.86587 1.29009C8.8508 1.60634 8.49976 1.96771 8.10302 1.87749C7.70628 1.78727 7.21814 1.96771 7.26384 2.58535C7.30955 3.20299 7.17244 3.33831 6.56177 3.56435C5.95109 3.79039 6.15498 4.22016 6.15498 4.22016C6.34933 4.69058 6.49045 5.00436 6.04902 5.38753C5.60758 5.77071 5.53728 5.92785 5.76678 6.45031C5.99629 6.97278 6.19064 6.92073 5.67839 7.68758C5.16665 8.45442 6.03747 8.78258 6.03747 8.78258V8.96797L5.97971 8.97838C5.97971 8.97838 4.61774 9.60097 5.39967 11.6423C5.64424 12.1732 6.17256 12.7972 7.14633 12.6317C7.16993 12.7174 7.19404 12.8022 7.21915 12.8865C7.20559 12.8671 7.19705 12.8547 7.19705 12.8547C7.05091 13.0084 6.90326 13.1611 6.75863 13.3162C6.64965 13.4337 6.64161 13.4506 6.49246 13.4342C6.31317 13.4144 6.13339 13.3951 5.9541 13.3752C5.9541 13.3752 5.25805 13.3812 5.31178 13.9815C5.36552 14.5818 4.98987 14.8286 4.54291 14.8643C4.28528 14.8846 4.14165 15.1201 4.12257 15.355C4.11253 15.4819 4.13513 15.6148 4.19288 15.7288C4.28026 15.8998 4.39627 16.2126 4.28077 16.3846C4.16375 16.5591 3.99953 16.7157 3.86344 16.8773C3.41949 17.4033 4.32647 17.7121 4.32496 18.2435C4.32396 18.5895 4.06633 18.8681 4.1753 19.223C4.30889 19.6572 4.97481 19.4827 5.17117 19.8609C5.31731 20.142 5.21687 20.9084 5.6337 20.9906C5.84462 21.0323 6.06107 21.0293 6.27451 21.0134C6.386 21.0055 6.50652 20.954 6.61902 20.9743C6.76516 21.0006 6.78424 21.1126 6.86258 21.2236C6.97257 21.3788 7.0951 21.525 7.2071 21.6792C7.41902 21.9716 7.71633 21.8001 7.96944 21.6707C8.25117 21.5265 8.59468 21.4199 8.90604 21.5379C9.37108 21.7144 9.53179 21.9617 9.87178 21.6083C10.2118 21.2553 10.1756 20.9906 10.7125 20.9906L10.7371 20.9609L10.724 21.0164C10.724 21.0164 10.4749 22.6978 6.65216 22.616C2.52657 22.7395 0.269682 23.0027 0 27H26.9999C26.9989 27 27.1033 23.486 23.7612 22.7985ZM21.2687 10.2077C21.4028 11.0692 20.9544 12.2074 20.0484 12.1231C20.2608 11.1614 20.3377 10.1983 20.3482 9.36155C20.5626 9.37494 21.1552 9.47854 21.2687 10.2077ZM7.85795 4.21174C7.96341 4.07046 8.08695 4.01098 8.22154 3.98173C8.37421 3.94852 8.54144 3.95397 8.7147 3.92225C8.88143 3.89201 9.011 3.75321 9.07478 3.59806C9.16669 3.37351 9.16468 3.14301 9.34848 2.96158C9.49563 2.81634 9.70203 2.73852 9.90743 2.72216C10.0626 2.70977 10.2173 2.72761 10.3695 2.75636C10.4754 2.77669 10.6592 2.86443 10.7471 2.81188C10.8335 2.76033 10.9179 2.53677 10.9771 2.45101C11.0459 2.35138 11.1278 2.24431 11.2036 2.15954C11.5034 1.82693 12.0086 1.99299 12.0086 1.99299C12.1427 2.0723 12.6575 2.30924 12.7991 2.20614C13.111 1.97812 13.4228 1.56223 13.8809 1.73423C14.0857 1.81156 14.1365 2.07131 13.9788 2.22993C13.8944 2.3147 13.8804 2.25918 13.7538 2.27901C13.6122 2.30131 13.4836 2.42623 13.3942 2.52884C13.0387 2.93531 12.4581 2.86145 12.0649 2.65822C11.6717 2.45498 11.5034 2.75042 11.5034 2.75042C11.3658 2.90408 11.2282 3.05824 11.0906 3.21191C10.9179 3.40474 10.8029 3.43845 10.5347 3.38491C10.2961 3.33732 9.98226 3.15193 9.78238 3.37648C9.68998 3.48008 9.65533 3.62086 9.63022 3.75668C9.60511 3.89251 9.58502 4.03329 9.51371 4.15225C9.42683 4.29749 9.27165 4.39267 9.10893 4.44471C8.94622 4.49627 8.77396 4.50915 8.60372 4.52452C8.37622 4.54485 7.78613 4.93446 7.76102 4.48635C7.7555 4.38721 7.79819 4.29105 7.85795 4.21174ZM7.41249 7.40007C7.41249 7.40007 11.867 10.2498 19.622 7.36686C19.622 7.36686 20.3377 11.6418 18.6257 14.4915C18.009 15.5176 17.3486 16.5522 16.5074 17.4162C15.9128 18.0269 15.1117 18.6609 14.3047 18.9489C13.4314 19.2612 12.5299 19.0039 11.8103 18.468C9.89689 17.0102 6.57281 14.094 7.41249 7.40007ZM5.76276 10.2077C5.87978 9.45573 6.50702 9.36899 6.70238 9.36056C6.71895 10.3743 6.83296 11.2903 7.01877 12.1191C6.08869 12.2366 5.62667 11.0806 5.76276 10.2077ZM10.498 24.7168C7.19203 24.4011 4.31241 23.3219 4.31241 23.3219L8.41941 23.0438C8.41941 23.0438 11.746 22.9432 11.8002 19.0941C11.8002 19.0941 13.4771 20.3051 15.176 19.0976C15.1775 19.0966 15.1795 19.0956 15.1811 19.0946C15.18 19.1204 15.051 22.9774 19.0124 23.078L22.5775 23.2803C22.577 23.2808 18.6302 25.4276 10.498 24.7168Z" fill="#050205"/>
</g>
<defs>
<clipPath id="clip0_7_6108">
<rect width="27.0001" height="27" fill="white"/>
</clipPath>
</defs>
</svg>
