<svg width="187" height="207" viewBox="0 0 187 207" fill="none" xmlns="http://www.w3.org/2000/svg">
<path fill-rule="evenodd" clip-rule="evenodd" d="M146.077 264.054C165.825 235.165 199.806 205.428 181.761 167.878C163.41 129.691 100.169 121.973 63.3931 91.9944C30.0686 64.8293 20.3363 15.1313 -20.7807 2.77187C-61.6577 -9.51541 -88.214 22.8222 -120.66 36.6696C-149.314 48.899 -186.831 53.4309 -199.102 78.8773C-211.256 104.079 -195.429 137.187 -183.792 167.58C-173.051 195.635 -153.947 220.5 -134.804 246.815C-107.409 284.473 -94.3882 336.274 -47.9481 354.318C-2.34181 372.038 36.7089 344.175 72.6911 327.436C104.576 312.602 127.886 290.664 146.077 264.054Z" fill="#EADAF0"/>
</svg>
