<svg width="360" height="593" viewBox="0 0 360 593" fill="none" xmlns="http://www.w3.org/2000/svg">
<rect width="360" height="540" transform="matrix(-1 0 0 1 360 0)" fill="#786090"/>
<g clip-path="url(#clip0_355_555)">
<path d="M299.745 474.95C299.313 473.772 299.655 473.258 300.913 473.672C302.607 474.306 304.355 474.783 306.136 475.098L300.462 471.994L300.899 471.11L304.783 472.607L305.158 472.132C304.364 471.539 303.602 470.904 302.874 470.231C301.925 469.28 302.575 468.909 303.553 468.767L308.301 473.429C308.904 472.293 309.284 471.566 309.816 470.577L303.568 468.752L302.965 466.97L308.871 468.833L309.033 468.496L304.061 465.715L304.432 464.888L309.028 466.609C307.732 465.216 306.801 464.232 305.866 463.215L306.445 462.488L311.938 466.894L313.458 464.55L306.777 461.874L307.053 460.924L312.632 462.53L312.741 462.307L307.698 459.455L308.083 458.566L312.784 460.543L313.306 460.006L309.507 456.907L310.077 456.223L315.609 460.653C316.083 459.859 316.497 459.146 317.033 458.276L310.452 455.462C310.59 455.158 310.728 454.854 310.861 454.55L316.254 456.318L316.373 456.132L311.274 453.048C311.445 452.724 311.616 452.406 311.791 452.097L316.506 454.474L316.701 454.241L312.997 450.752C313.135 450.566 313.277 450.386 313.42 450.2C315.794 450.742 317.066 453.147 319.269 454.326L320.727 451.95L314.17 449.354L314.379 448.47L319.787 449.815L314.854 446.778C315.006 446.469 315.162 446.165 315.329 445.856L320.927 448.594L316.653 444.316L317.327 443.631L322.712 447.971C325.998 441.906 324.611 442.591 331.026 444.121C338.309 445.856 344.031 450.077 348.689 455.809C348.886 456.135 349.008 456.501 349.046 456.88C349.085 457.259 349.039 457.641 348.912 458C348.385 459.289 347.54 460.448 346.723 461.832L353.038 464.279L352.796 465.23L347.478 463.804L347.312 463.985C348.152 464.508 349.016 465.007 349.833 465.568C350.65 466.128 351.362 466.723 352.126 467.307L351.623 468.111L347.169 465.648L346.429 466.376L350.754 468.885L349.766 469.993L344.273 465.601L342.801 468.049L349.382 470.535C349.277 470.867 349.168 471.205 349.059 471.542L343.432 469.941L348.461 473.41L347.905 474.314L343.304 471.714L343.114 471.965L346.861 475.454L346.286 476.21L340.626 471.965L339.126 474.342L345.726 476.818C345.64 477.137 345.55 477.455 345.465 477.769L340.242 476.448L344.714 479.699L344.107 480.45L339.511 477.783L339.259 478.092C339.957 478.71 340.683 479.304 341.343 479.951C342.003 480.597 342.507 481.182 343.086 481.8L342.426 482.541L337.004 478.111L335.446 480.521L342.032 482.969L341.799 483.92L336.728 482.698L340.973 485.921L340.403 486.729L335.731 483.982L335.522 484.162L339.454 488.207L338.765 488.877L333.3 484.39L331.876 486.872L338.39 489.248L338.081 490.199L333.219 489.006L337.345 492.176L336.871 492.965C335.968 492.466 335.043 491.991 334.164 491.449C333.269 490.796 332.273 490.293 331.216 489.961L335.964 494.372L335.346 495.18L329.706 490.745L328.186 493.122L334.758 495.465L334.501 496.392L329.905 495.385L333.704 498.484L333.139 499.311L327.294 495.508L327.037 495.779C328.462 497.029 329.815 498.313 331.254 499.525C332.35 500.447 332.388 501.131 330.988 501.687C329.464 500.076 327.935 498.474 326.24 496.673L324.635 499.43L331.064 501.621C330.617 501.916 330.143 502.5 329.739 502.448C328.694 502.324 327.678 501.92 326.083 501.464L330.086 504.625L329.611 505.381C327.327 504.763 325.765 502.724 323.41 501.963L329.022 507.192L327.223 507.838C325.713 506.26 324.203 504.682 322.512 502.923C321.881 504.145 321.506 504.872 321.05 505.747L327.284 507.762C326.919 508.099 326.515 508.746 326.183 508.713C325.195 508.608 324.236 508.237 322.726 507.814L326.491 510.999L325.969 511.774L319.977 507.962L319.725 508.237L325.2 513.347L324.559 514.165L318.989 509.716C317.18 512.905 315.395 515.942 313.733 519.051C313.073 520.291 312.366 520.681 310.927 520.406C304.873 519.265 301.17 521.247 298.44 526.723C290.933 541.969 282.53 556.757 273.275 571.008C272.558 572.145 271.765 573.231 270.901 574.26C269.381 575.985 267.102 576.484 265.341 575.51C263.337 574.402 262.687 572.577 263.199 570.462C263.599 568.937 264.166 567.461 264.89 566.06C272.417 550.993 280.961 536.458 290.463 522.554C294.318 516.898 292.994 512.254 289.893 508.266C288.943 507.059 288.839 506.255 289.651 504.972C291.493 502.053 293.174 499.03 295.059 495.822L288.35 493.36L288.606 492.433C289.765 492.728 290.928 492.994 292.077 493.322C293.34 493.683 294.589 494.096 296.032 494.058L289.779 490.997L290.102 490.094L294.508 491.577L291.564 488.25L292.253 487.513L297.476 492.138C297.989 491.268 298.425 490.498 298.986 489.581L292.03 487.104C292.125 486.767 292.22 486.425 292.31 486.087L299.508 488.126L299.646 487.808L293.388 484.728L293.767 483.777L297.955 485.308L298.402 484.804L295.049 482.109L295.69 481.334L301.099 485.783C301.573 484.98 302.005 484.176 302.494 483.316L295.7 480.688L296.113 479.642L302.965 481.89L303.126 481.557L296.873 478.354C296.996 478.031 297.115 477.712 297.238 477.403L302.257 479.347C301.013 478.197 300.287 477.446 299.503 476.809C298.525 475.991 298.705 475.383 299.774 474.908L304.655 479.699L306.193 476.88L299.745 474.95ZM340.327 466.59C342.122 467.516 342.226 466.052 342.018 465.221L340.228 461.047C338.699 461.87 338.665 462.397 340.408 464.118C341.244 464.945 342.844 465.853 340.322 466.59C339.031 463.738 334.497 462.411 331.994 463.937C331.136 464.402 330.129 464.508 329.193 464.232C328.599 464.023 328.025 462.911 327.973 462.164C327.879 460.538 327.216 458.997 326.102 457.81C324.987 456.623 323.492 455.866 321.876 455.671C322.721 456.807 323.4 457.825 324.179 458.756C327.004 462.136 327.061 463.429 323.704 465.924C326.995 465.691 328.965 467.084 330.014 468.776C331.049 467.607 331.857 465.896 332.74 465.858C335.252 465.715 337.796 466.29 340.327 466.59V466.59ZM339.169 454.992L332.009 450.69C329.635 449.407 327.227 448.08 324.412 448.266C325.751 450.295 327.545 451.446 328.656 453.704C329.72 455.857 330.356 457.164 328.604 458.932L334.022 461.879C334.378 461.275 334.634 460.263 335.095 460.158C337.36 459.645 339.681 459.132 341.984 459.117C343.038 459.117 344.092 460.263 345.151 460.886L345.598 460.273C344.126 457.787 341.79 456.232 339.169 454.992V454.992ZM303.055 501.098L302.974 501.017C307.404 503.841 311.82 506.683 316.292 509.435C316.539 509.587 317.242 509.031 318.059 508.632C313.643 507.111 313.88 503.223 312.513 500.328C314.588 497.048 311.563 496.178 309.854 494.695C309.797 494.648 309.764 494.496 309.735 494.5C309.142 494.577 308.116 494.5 308.016 494.786C306.796 498.113 303.382 496.639 301.402 498.218C303.776 494.211 303.776 493.982 301.877 493.697C301.307 495.009 301.099 496.606 300.22 497.177C299.418 497.704 297.894 497.124 296.422 497.01C296.45 497.12 296.422 497.961 296.707 498.118C298.777 499.173 300.928 500.105 303.055 501.079V501.098ZM311.905 486.762C311.748 489.072 311.231 490.494 308.895 490.646C308.035 490.698 307.214 491.302 306.378 491.653C307.385 491.981 308.382 492.347 309.403 492.604C309.636 492.666 309.949 492.314 310.243 492.262C311.326 492.081 312.722 491.473 313.415 491.924C314.108 492.376 313.975 493.921 314.298 494.966C314.559 495.812 314.735 496.868 315.338 497.367C315.813 497.766 316.9 497.447 318.339 497.447C317.475 496.226 316.891 495.717 316.72 495.071C316.473 494.168 316.117 492.861 316.549 492.309C317.081 491.63 318.358 491.449 319.35 491.23C320.425 491.047 321.509 490.923 322.598 490.86V490.113C322.204 489.899 321.648 489.785 321.449 489.453C320.846 488.502 319.858 487.352 319.986 486.415C320.195 484.837 321.643 484.718 323.163 484.885C325.062 485.089 327.023 484.932 328.96 484.932L329.074 483.925C328.072 483.619 327.05 483.379 326.016 483.207C324.592 483.05 323.358 482.461 323.581 480.959C323.718 480.008 324.63 478.753 325.48 478.458C326.719 478.031 328.215 478.349 329.81 478.349C327.693 481.329 327.693 481.329 331.652 484.528C331.643 484.28 331.582 484.037 331.474 483.814C331.366 483.591 331.214 483.392 331.026 483.231C329.677 482.356 329.093 481.082 330.019 479.837C330.627 479.019 331.971 478.748 333.704 477.869C332.061 477.455 330.855 476.971 329.649 476.885C327.674 476.742 326.145 474.475 327.56 473.306C328.818 472.26 330.94 472.255 332.882 471.742C332.797 472.773 332.759 473.292 332.65 474.632C334.44 472.065 336.13 471.78 338.053 473.467L338.874 471.671C337.995 471.585 337.125 471.426 336.272 471.195C335.707 470.996 335.237 470.178 334.748 470.202C332.312 470.316 329.877 470.554 327.46 470.877C325.736 471.105 324.939 470.425 324.34 468.819C323.491 466.537 322.574 464.18 321.15 462.255C320.423 461.266 318.529 461.138 317.161 460.62L316.739 461.237C319.497 461.941 319.73 463.704 319.08 465.924L320.205 464.669C320.941 465.762 321.629 466.68 322.204 467.669C322.987 469.028 322.797 470.269 321.411 471.134C320.024 471.999 318.562 471.509 318.253 470.231C317.579 467.493 315.072 468.21 313.534 467.079C314.816 468.31 316.72 469.251 315.395 471.39C314.175 473.353 312.484 472.517 310.932 471.533L309.849 473.548C310.68 473.387 311.554 472.911 312.128 473.154C314.455 474.104 316.088 474.066 316.159 470.368C317.109 471.837 317.617 472.788 318.258 473.648C319.279 475.012 319.374 476.353 317.94 477.351C316.506 478.349 315.329 477.859 314.35 476.4C313.8 475.587 312.926 474.974 312.195 474.295L311.54 474.903C312.527 476.59 313.648 478.23 314.455 479.979C314.882 480.93 315.224 482.418 314.764 483.074C314.303 483.73 312.803 483.739 311.739 483.858C311.193 483.915 310.604 483.587 310.034 483.435L309.479 484.081C310.02 484.718 310.561 485.897 311.089 485.888C312.556 485.888 314.018 485.089 315.471 485.122C315.983 485.184 316.476 485.357 316.914 485.63C317.352 485.902 317.725 486.268 318.006 486.7C318.552 487.68 318.453 489.025 318.614 490.113C315.618 490.475 313.586 489.058 311.905 486.762ZM312.071 478.335H307.062L306.326 479.694C307.513 479.87 308.605 479.994 309.683 480.203C311.383 480.526 312.138 479.856 312.086 478.335H312.071ZM308.183 484.947L303.487 484.471C303.325 484.79 303.012 485.422 302.884 485.655C303.99 485.878 305.039 486.059 306.079 486.301C307.76 486.672 308.187 486.339 308.197 484.947H308.183ZM326.643 452.149C325.181 453.96 323.571 454.393 321.681 452.696C321.283 453.647 320.979 454.398 320.68 455.13L321.178 455.686C321.653 452.943 323.12 454.402 324.188 454.63C326.078 455.034 326.762 454.469 326.657 452.154L326.643 452.149ZM324.535 496.677L321.61 492.4C321.382 493.127 320.76 494.12 321.017 494.472C321.814 495.56 322.944 496.407 324.041 497.438L324.535 496.677ZM325.418 486.306C323.951 487.399 323.951 487.399 327.631 491.207C327.878 490.802 328.106 490.417 328.058 490.508L325.418 486.306ZM320.822 503.803C320.779 502.952 320.927 502.377 320.699 502.058C319.882 500.96 318.932 499.957 317.987 498.864C316.8 499.696 316.8 499.696 320.836 503.807L320.822 503.803ZM304.783 491.173L299.741 490.769C304.451 492.837 304.451 492.837 304.783 491.173Z" fill="white" fill-opacity="0.1"/>
<path d="M315.067 479.133C316.778 478.972 318.496 478.904 320.214 478.929C320.727 478.962 321.354 479.746 321.639 480.326C322.053 481.303 322.402 482.307 322.683 483.33C318.752 484.69 317.047 481.938 315.067 479.133Z" fill="white" fill-opacity="0.1"/>
<path d="M326.624 476.752C321.117 477.123 320.803 476.933 319.374 472.346C322.588 472.369 325.793 472.493 326.624 476.752Z" fill="white" fill-opacity="0.1"/>
<path d="M303.055 501.079C303.354 500.67 303.563 500.128 303.962 499.877C304.962 499.218 306.026 498.664 307.138 498.222C307.888 497.942 308.914 497.695 309.545 497.999C309.91 498.207 310.223 498.496 310.458 498.843C310.694 499.191 310.846 499.589 310.903 500.005C310.903 501.531 310.495 503.061 310.191 504.939C308.377 502.315 306.17 500.661 302.974 500.998L303.055 501.079Z" fill="white" fill-opacity="0.1"/>
<path d="M332.08 450.639C333.21 454.142 336.006 454.879 339.202 454.95C337.583 456.067 336.068 457.431 334.302 458.225C332.968 458.819 331.605 457.345 331.576 455.815C331.553 454.636 331.282 453.438 331.32 452.288C331.334 451.732 331.814 451.19 332.08 450.639Z" fill="white" fill-opacity="0.1"/>
</g>
<g clip-path="url(#clip1_355_555)">
<path d="M14.7453 62.9505C14.3133 61.7717 14.6551 61.2583 15.9134 61.6719C17.6071 62.3062 19.3554 62.7835 21.1362 63.0978L15.4623 59.994L15.8991 59.1099L19.783 60.6071L20.1581 60.1318C19.364 59.5387 18.6017 58.904 17.8743 58.2305C16.9247 57.2799 17.5752 56.9091 18.5533 56.7665L23.3014 61.4294C23.9044 60.2934 24.2842 59.5662 24.816 58.5775L18.5675 56.7523L17.9645 54.9698L23.8711 56.8331L24.0326 56.4956L19.0613 53.715L19.4317 52.8879L24.0278 54.6086C22.7316 53.2159 21.801 52.2319 20.8656 51.2148L21.4449 50.4875L26.9384 54.8937L28.4578 52.5504L21.7772 49.8743L22.0526 48.9237L27.6316 50.5303L27.7408 50.3069L22.6984 47.455L23.083 46.5661L27.7836 48.5434L28.3059 48.0063L24.5074 44.9072L25.0772 44.2228L30.6087 48.6528C31.0835 47.859 31.4966 47.146 32.0331 46.2761L25.4523 43.4622C25.59 43.158 25.7276 42.8538 25.8606 42.5496L31.2544 44.3178L31.3731 44.1325L26.2737 41.0476C26.4446 40.7244 26.6155 40.4059 26.7912 40.097L31.5061 42.4736L31.7007 42.2407L27.9972 38.7518C28.1349 38.5664 28.2774 38.3858 28.4198 38.2004C30.7939 38.7423 32.0663 41.1474 34.2695 42.3262L35.7271 39.9496L29.17 37.3544L29.3789 36.4703L34.787 37.8154L29.8537 34.7781C30.0057 34.4692 30.1624 34.1649 30.3285 33.856L35.9265 36.5938L31.6533 32.3159L32.3275 31.6315L37.7118 35.9712C40.9975 29.9061 39.611 30.5905 46.0257 32.1211C53.3093 33.856 59.0307 38.0768 63.6886 43.8092C63.8856 44.1351 64.0078 44.5008 64.0464 44.8797C64.085 45.2587 64.039 45.6415 63.9118 46.0005C63.3847 47.2886 62.5396 48.4484 61.7229 49.8316L68.0379 52.2795L67.7957 53.2301L62.4779 51.8042L62.3117 51.9848C63.1521 52.5076 64.0162 53.0067 64.8329 53.5676C65.6496 54.1285 66.3618 54.7226 67.1262 55.3073L66.6229 56.1106L62.1692 53.6484L61.4285 54.3757L65.754 56.8854L64.7664 57.9929L59.2729 53.6009L57.801 56.0488L64.3818 58.5347C64.2774 58.8675 64.1682 59.2049 64.059 59.5424L58.4325 57.9406L63.4607 61.4104L62.9052 62.3136L58.3043 59.7135L58.1144 59.9655L61.8606 63.4543L61.2861 64.2101L55.6264 59.9655L54.126 62.3421L60.7258 64.8185C60.6403 65.137 60.5501 65.4554 60.4647 65.7691L55.2418 64.4477L59.7145 67.6989L59.1067 68.45L54.5106 65.7834L54.2589 66.0923C54.9569 66.7103 55.6833 67.3044 56.3433 67.9509C57.0033 68.5973 57.5066 69.182 58.0859 69.7999L57.4259 70.5414L52.0036 66.1114L50.4462 68.5213L57.0318 70.9692L56.7991 71.9198L51.7282 70.6982L55.973 73.9209L55.4032 74.729L50.7311 71.9816L50.5222 72.1622L54.4536 76.2072L53.7651 76.8774L48.3001 72.3904L46.8756 74.8716L53.39 77.2482L53.0814 78.1988L48.2193 77.0058L52.3454 80.1762L51.8706 80.9652C50.9685 80.4661 50.0426 79.9908 49.1642 79.4489C48.2688 78.7957 47.2728 78.2931 46.2157 77.9612L50.9637 82.3721L50.3465 83.1802L44.7057 78.7454L43.1864 81.122L49.7577 83.4654L49.5013 84.3923L44.9052 83.3846L48.7036 86.4837L48.1386 87.3107L42.2937 83.5082L42.0373 83.7791C43.4618 85.0292 44.815 86.3126 46.2536 87.5246C47.3504 88.4468 47.3884 89.1312 45.9877 89.6874C44.4636 88.076 42.9347 86.4742 41.2397 84.6727L39.6348 87.4296L46.0637 89.6208C45.6174 89.9155 45.1426 90.5002 44.739 90.4479C43.6944 90.3243 42.6783 89.9203 41.083 89.464L45.0856 92.6248L44.6108 93.3806C42.327 92.7627 40.7648 90.7236 38.4098 89.9631L44.022 95.1916L42.2225 95.838C40.7126 94.26 39.2027 92.6819 37.5124 90.9232C36.8809 92.1448 36.5058 92.872 36.05 93.7466L42.2842 95.762C41.9186 96.0995 41.515 96.7459 41.1827 96.7126C40.1951 96.6081 39.236 96.2373 37.7261 95.8143L41.4913 98.9989L40.969 99.7737L34.9769 95.9616L34.7253 96.2373L40.1998 101.347L39.5588 102.165L33.9893 97.7156C32.1803 100.905 30.395 103.942 28.7332 107.051C28.0732 108.291 27.3657 108.681 25.9271 108.406C19.8733 107.265 16.1698 109.247 13.4396 114.723C5.93285 129.969 -2.47018 144.757 -11.7253 159.008C-12.4423 160.145 -13.2355 161.231 -14.0993 162.26C-15.6187 163.985 -17.8978 164.484 -19.6593 163.51C-21.663 162.402 -22.3135 160.577 -21.8007 158.462C-21.4008 156.937 -20.8339 155.461 -20.1104 154.06C-12.5832 138.993 -4.03904 124.458 5.46281 110.554C9.31825 104.898 7.99355 100.254 4.89305 96.2658C3.94343 95.0585 3.83897 94.2552 4.65089 92.9719C6.49315 90.0534 8.17396 87.0303 10.059 83.8219L3.34992 81.3597L3.6063 80.4328C4.76484 80.7275 5.92812 80.9937 7.07715 81.3217C8.34015 81.6829 9.5889 82.0965 11.0323 82.0584L4.77908 78.9974L5.10195 78.0942L9.50817 79.5772L6.56437 76.25L7.25283 75.5132L12.4757 80.1381C12.9885 79.2683 13.4254 78.4983 13.9856 77.5809L7.02969 75.1045C7.12465 74.767 7.21961 74.4248 7.30982 74.0873L14.5079 76.1264L14.6456 75.8079L8.38763 72.7279L8.76747 71.7772L12.9553 73.3077L13.4016 72.8039L10.0495 70.1088L10.6905 69.334L16.0985 73.7831C16.5733 72.9798 17.0054 72.1765 17.4945 71.3162L10.6999 68.6876L11.113 67.6419L17.9645 69.8902L18.126 69.5575L11.8727 66.3538C11.9962 66.0306 12.1149 65.7121 12.2383 65.4032L17.2571 67.3472C16.0131 66.1969 15.2866 65.4459 14.5032 64.809C13.5251 63.9914 13.7055 63.383 14.7738 62.9077L19.6548 67.6989L21.1932 64.8803L14.7453 62.9505ZM55.3272 54.5896C57.122 55.5164 57.2265 54.0524 57.0176 53.2206L55.2275 49.0473C53.6986 49.8696 53.6654 50.3972 55.4079 52.1179C56.2436 52.9449 57.8437 53.8528 55.3225 54.5896C54.031 51.7376 49.4966 50.4115 46.9943 51.9373C46.1361 52.402 45.129 52.508 44.193 52.232C43.5995 52.0228 43.0249 50.9106 42.9727 50.1643C42.8785 48.5381 42.2163 46.9968 41.1019 45.8098C39.9874 44.6229 38.4917 43.866 36.8762 43.6714C37.7213 44.8074 38.4003 45.8246 39.179 46.7562C42.0041 50.1358 42.0611 51.4287 38.7042 53.9241C41.9946 53.6912 43.9651 55.0839 45.0144 56.776C46.0495 55.6067 46.8566 53.8956 47.7398 53.8575C50.2515 53.715 52.7965 54.2901 55.3272 54.5896V54.5896ZM54.1687 42.9917L47.0086 38.69C44.6345 37.4066 42.2272 36.0805 39.4116 36.2659C40.7506 38.2955 42.5454 39.4458 43.6564 41.7036C44.72 43.8568 45.3562 45.1639 43.6042 46.9321L49.0218 49.8791C49.3779 49.2754 49.6343 48.263 50.0948 48.1584C52.3597 47.6451 54.6815 47.1317 56.9843 47.1175C58.0384 47.1175 59.0925 48.263 60.1513 48.8857L60.5976 48.2725C59.1257 45.7866 56.7896 44.2323 54.1687 42.9917V42.9917ZM18.0547 89.098L17.974 89.0172C22.404 91.8406 26.8197 94.683 31.2924 97.4351C31.5393 97.5872 32.242 97.0311 33.0587 96.6318C28.643 95.1108 28.8804 91.2227 27.5129 88.3279C29.5878 85.0482 26.5633 84.1784 24.854 82.6954C24.797 82.6478 24.7638 82.4957 24.7353 82.5005C24.1418 82.5765 23.1162 82.5005 23.0165 82.7857C21.7962 86.1129 18.3824 84.6394 16.4024 86.2175C18.7764 82.2105 18.7764 81.9824 16.8772 81.6972C16.3074 83.0091 16.0985 84.6062 15.2201 85.1766C14.4177 85.7042 12.8936 85.1243 11.4217 85.0102C11.4502 85.1195 11.4217 85.9608 11.7065 86.1177C13.7767 87.1729 15.9276 88.1046 18.0547 89.079V89.098ZM26.9052 74.7623C26.7485 77.0723 26.2309 78.4935 23.8949 78.6456C23.0355 78.6979 22.2141 79.3016 21.3784 79.6533C22.385 79.9813 23.3821 80.3473 24.4029 80.604C24.6356 80.6657 24.949 80.314 25.2433 80.2617C26.3259 80.0811 27.7218 79.4727 28.4151 79.9242C29.1083 80.3758 28.9753 81.9206 29.2982 82.9663C29.5594 83.8124 29.735 84.8676 30.338 85.3667C30.8129 85.766 31.9002 85.4475 33.3388 85.4475C32.4747 84.2259 31.8907 83.7173 31.7197 83.0709C31.4728 82.1678 31.1167 80.8606 31.5488 80.3093C32.0806 79.6295 33.3578 79.4489 34.3502 79.2303C35.425 79.0466 36.5093 78.9228 37.5979 78.8595V78.1133C37.2038 77.8994 36.6483 77.7853 36.4488 77.4526C35.8458 76.5019 34.8582 75.3516 34.9864 74.4152C35.1953 72.8372 36.6435 72.7184 38.1629 72.8847C40.0621 73.0891 42.0231 72.9322 43.9603 72.9322L44.0743 71.9246C43.0716 71.6192 42.0502 71.3794 41.0165 71.2068C39.5921 71.05 38.3576 70.4606 38.5807 68.9586C38.7184 68.0079 39.63 66.7531 40.48 66.4584C41.7192 66.0306 43.2148 66.349 44.8102 66.349C42.6926 69.3293 42.6926 69.3293 46.6525 72.5282C46.6426 72.2805 46.5818 72.0374 46.474 71.8141C46.3662 71.5909 46.2136 71.3922 46.0257 71.2306C44.6773 70.356 44.0932 69.0821 45.0191 67.8368C45.6269 67.0192 46.9706 66.7483 48.7036 65.869C47.0608 65.4554 45.8548 64.9706 44.6488 64.885C42.6736 64.7424 41.1447 62.4751 42.5596 61.3058C43.8179 60.2601 45.9403 60.2554 47.8822 59.742C47.7968 60.7735 47.7588 61.2916 47.6496 62.632C49.4396 60.0653 51.1299 59.7801 53.0529 61.4675L53.8743 59.6708C52.9953 59.5847 52.125 59.4257 51.2724 59.1954C50.7073 58.9958 50.2373 58.1782 49.7482 58.202C47.3124 58.3161 44.8767 58.5537 42.4599 58.877C40.7364 59.1051 39.9387 58.4254 39.3404 56.8188C38.4905 54.5373 37.5741 52.1797 36.1497 50.2546C35.4232 49.2659 33.5288 49.1376 32.1613 48.6195L31.7387 49.2374C34.4974 49.9409 34.73 51.7043 34.0795 53.9241L35.2048 52.6692C35.9408 53.7625 36.6293 54.6799 37.2038 55.6685C37.9872 57.0279 37.7973 58.2686 36.4108 59.1336C35.0244 59.9987 33.562 59.5091 33.2534 58.2305C32.5791 55.4927 30.0721 56.2104 28.5338 55.0791C29.8157 56.3102 31.7197 57.2514 30.395 59.3903C29.1748 61.3534 27.4844 60.5168 25.9318 59.5329L24.8493 61.5483C25.6802 61.3867 26.5538 60.9114 27.1283 61.1538C29.4549 62.1044 31.0882 62.0664 31.1595 58.3684C32.1091 59.8371 32.6171 60.7878 33.2581 61.6481C34.279 63.0123 34.3739 64.3527 32.94 65.3508C31.5061 66.349 30.3285 65.8594 29.3504 64.4002C28.7997 63.5874 27.926 62.9742 27.1948 62.2945L26.5396 62.9029C27.5272 64.5903 28.6477 66.2302 29.4549 67.9794C29.8822 68.93 30.2241 70.4178 29.7635 71.0737C29.303 71.7297 27.8026 71.7392 26.739 71.858C26.193 71.915 25.6042 71.5871 25.0344 71.435L24.4789 72.0814C25.0202 72.7184 25.5615 73.8972 26.0885 73.8876C27.5557 73.8876 29.0181 73.0891 30.471 73.1224C30.9832 73.1839 31.4756 73.357 31.9137 73.6297C32.3518 73.9023 32.7248 74.2678 33.0065 74.7005C33.5525 75.6796 33.4528 77.0248 33.6142 78.1133C30.6182 78.4745 28.586 77.0581 26.9052 74.7623ZM27.0714 66.3348H22.0621L21.3262 67.6942C22.5132 67.87 23.6053 67.9936 24.6831 68.2028C26.3829 68.526 27.1378 67.8558 27.0856 66.3348H27.0714ZM23.1827 72.9465L18.4868 72.4712C18.3254 72.7897 18.012 73.4218 17.8838 73.6547C18.9901 73.8781 20.0394 74.0588 21.0793 74.3012C22.7601 74.6719 23.1874 74.3392 23.1969 72.9465H23.1827ZM41.6432 40.1492C40.1808 41.9602 38.5712 42.3928 36.6815 40.6959C36.2826 41.6465 35.9788 42.3975 35.6796 43.1295L36.1782 43.6856C36.653 40.943 38.1202 42.4023 39.1885 42.6304C41.0782 43.0345 41.7619 42.4688 41.6575 40.154L41.6432 40.1492ZM39.5351 84.6775L36.6103 80.3996C36.3824 81.1268 35.7604 82.1202 36.0168 82.472C36.8144 83.5605 37.9445 84.4065 39.0413 85.438L39.5351 84.6775ZM40.4182 74.3059C38.9511 75.3992 38.9511 75.3992 42.6308 79.2065C42.8777 78.8025 43.1056 78.4175 43.0582 78.5078L40.4182 74.3059ZM35.8221 91.8026C35.7793 90.9517 35.9265 90.3766 35.6986 90.0581C34.882 88.9601 33.9323 87.9572 32.9875 86.8639C31.8004 87.6958 31.8004 87.6958 35.8363 91.8073L35.8221 91.8026ZM19.783 79.1732L14.7406 78.7692C19.4507 80.8369 19.4507 80.8369 19.783 79.1732Z" fill="white" fill-opacity="0.1"/>
<path d="M30.0674 67.1332C31.7781 66.9722 33.4962 66.904 35.2143 66.9288C35.7271 66.9621 36.3538 67.7463 36.6387 68.3262C37.0531 69.3033 37.402 70.3068 37.6833 71.3303C33.7519 72.6897 32.0473 69.9376 30.0674 67.1332Z" fill="white" fill-opacity="0.1"/>
<path d="M41.6244 64.7519C36.1166 65.1227 35.8032 64.9326 34.374 60.3457C37.5885 60.3695 40.7934 60.493 41.6244 64.7519Z" fill="white" fill-opacity="0.1"/>
<path d="M18.0548 89.0792C18.354 88.6704 18.5629 88.1285 18.9617 87.8766C19.9615 87.2183 21.0259 86.6641 22.1382 86.2225C22.8884 85.942 23.914 85.6948 24.5455 85.999C24.9104 86.2066 25.2227 86.4956 25.4582 86.8434C25.6937 87.1912 25.846 87.5887 25.9034 88.0049C25.9034 89.5307 25.4951 91.0613 25.1912 92.9388C23.3775 90.315 21.1696 88.6609 17.9741 88.9983L18.0548 89.0792Z" fill="white" fill-opacity="0.1"/>
<path d="M47.0797 38.6387C48.2098 42.1418 51.0064 42.8786 54.2019 42.9499C52.5828 44.0669 51.0681 45.431 49.3019 46.2248C47.9676 46.819 46.6049 45.3455 46.5764 43.8149C46.5527 42.6361 46.2821 41.4383 46.3201 40.288C46.3343 39.7319 46.8138 39.19 47.0797 38.6387Z" fill="white" fill-opacity="0.1"/>
</g>
<g clip-path="url(#clip2_355_555)">
<path d="M265.642 52.0441C265.987 52.8435 268.323 53.1248 266.975 55.1432C265.48 57.376 264.658 54.6565 263.359 54.4243C262.368 55.2289 261.34 55.9742 260.277 56.6571C257.333 58.345 254.317 58.738 251.551 56.2953C248.785 53.8527 248.636 50.5169 249.36 47.1231C250.737 40.7016 256.839 35.6153 262.52 37.1917C263.832 37.5534 265.796 36.6915 266.975 35.7002C271.903 31.574 276.835 27.4121 281.414 22.8349C289.452 14.7969 289.379 14.6897 292.007 3.24001C294.927 -9.4913 297.761 -22.2405 300.685 -34.9673C300.855 -35.7086 301.494 -36.307 301.94 -36.9902L302.697 -36.5749C302.357 -33.6634 302.033 -30.7429 301.673 -27.8314C299.721 -12.0858 297.587 3.63298 295.87 19.4098C294.833 28.9259 294.364 38.5269 295.295 48.1278C295.607 51.352 296.275 54.1162 298.713 56.5365C303.734 61.5335 301.843 72.6438 295.595 75.984C294.42 76.6092 293.894 77.4041 293.862 78.6276C293.801 81.2221 293.894 83.8166 293.862 86.4111C293.862 86.9291 293.708 87.8222 293.481 87.8847C292.784 88.069 292.055 88.049 291.367 87.8267C291.116 87.7374 290.962 86.8442 290.987 86.3396C291.169 83.8345 291.533 81.3382 291.598 78.833C291.598 78.0649 291.056 76.8548 290.46 76.5556C286.456 74.5148 285.196 70.8173 285.196 66.3786C285.216 62.757 286.476 59.6534 288.687 56.9027C289.859 55.5056 290.734 53.8384 291.25 52.0218C293.113 44.4571 292.793 36.8791 290.784 29.3769C290.639 28.8821 290.463 28.3987 290.258 27.9301C288.998 24.8042 288.711 24.5586 285.706 25.7732C278.179 28.8232 272.384 34.3337 267.89 41.5501C267.441 42.3732 267.136 43.2821 266.991 44.2294C266.533 46.6542 266.149 49.1103 265.642 52.0441ZM256.111 55.4469C260.678 55.4469 265.27 49.4005 264.496 44.408C263.982 41.099 261.366 39.2235 258.398 40.0362C254.608 41.0767 251.486 45.2922 251.361 49.5479C251.26 52.9328 253.284 55.4469 256.111 55.4469V55.4469ZM287.577 67.7674C287.861 68.6024 288.197 70.3887 289.023 71.84C290.594 74.5997 293.477 75.015 295.874 73.0993C299.231 70.3976 300.365 63.86 298.142 60.0062C296.425 57.0277 293.283 56.4338 290.853 58.7291C288.577 60.8368 287.695 63.6457 287.577 67.7674V67.7674ZM293.91 11.9479V16.074C295.789 14.5423 295.789 13.7296 293.91 11.9657V11.9479Z" fill="white" fill-opacity="0.1"/>
<path d="M297.417 14.5767C297.871 10.9194 298.284 7.25762 298.806 3.60926C298.942 2.82074 299.269 2.08768 299.753 1.48812C306.945 -7.48171 314.163 -16.4277 321.409 -25.3499C321.785 -25.7965 322.462 -25.9795 323 -26.2832C322.935 -25.6268 323.077 -24.8051 322.773 -24.3318C314.599 -11.5037 306.397 1.30653 298.166 14.0989C298.032 14.3699 297.933 14.6599 297.871 14.9607L297.417 14.5767Z" fill="white" fill-opacity="0.1"/>
</g>
<g clip-path="url(#clip3_355_555)">
<path d="M25.0661 342.415C25.9209 342.578 27.4636 340.801 28.3792 343.049C29.3906 345.538 26.6777 344.694 25.7568 345.64C25.868 346.911 25.9086 348.181 25.8783 349.443C25.6259 352.827 24.2602 355.546 20.6871 356.467C17.1139 357.388 14.2676 355.642 11.8635 353.139C7.31766 348.399 6.52654 340.495 11.0166 336.674C12.0516 335.79 12.4389 333.681 12.2785 332.149C11.6241 325.755 10.9424 319.338 9.71939 312.98C7.56897 301.818 7.43935 301.818 -0.568922 293.223C-9.47506 283.669 -18.4437 274.174 -27.3438 264.619C-27.8624 264.063 -27.9992 263.197 -28.3153 262.445L-27.5469 262.051C-25.3266 263.965 -23.0897 265.871 -20.8807 267.801C-8.93594 278.244 2.88448 288.823 14.9868 299.089C22.2859 305.282 29.9731 311.053 38.4458 315.664C41.2904 317.213 43.954 318.209 47.3248 317.548C54.2775 316.191 62.4178 323.985 61.6814 331.031C61.5408 332.354 61.9039 333.236 62.899 333.949C65.0135 335.453 67.2142 336.831 69.3445 338.312C69.7734 338.602 70.4268 339.23 70.3514 339.453C70.1132 340.134 69.6882 340.726 69.1184 341.171C68.9037 341.329 68.0779 340.956 67.6737 340.653C65.7013 339.097 63.8384 337.396 61.8002 335.938C61.1642 335.508 59.8579 335.279 59.2764 335.604C55.3415 337.776 51.5737 336.746 47.8979 334.258C44.9103 332.211 43.0462 329.428 42.0076 326.055C41.5079 324.301 40.618 322.642 39.4027 321.197C34.1826 315.414 27.7279 311.43 20.3895 308.888C19.8981 308.731 19.3992 308.606 18.8963 308.513C15.6018 307.803 15.2372 307.904 14.5587 311.073C12.8646 319.016 14.1796 326.903 17.6358 334.671C18.0656 335.504 18.6473 336.266 19.3506 336.917C21.1021 338.655 22.9203 340.351 25.0661 342.415ZM22.5404 352.215C25.1009 348.433 22.668 341.241 18.1002 339.083C15.0718 337.654 12.0523 338.768 11.0614 341.682C9.79835 345.404 11.5391 350.352 14.9928 352.842C17.7391 354.823 20.956 354.556 22.5404 352.215V352.215ZM50.3827 333.065C51.2331 333.298 52.9007 334.021 54.5656 334.151C57.7316 334.397 59.6917 332.242 59.4491 329.183C59.0937 324.889 54.3155 320.285 49.878 319.965C46.449 319.717 44.1957 321.987 44.7345 325.285C45.2042 328.351 47.0354 330.657 50.3827 333.065V333.065ZM7.7089 296.529L11.1258 298.842C10.9106 296.427 10.2376 295.972 7.72369 296.539L7.7089 296.529Z" fill="white" fill-opacity="0.1"/>
<path d="M11.8526 295.099C9.0782 292.673 6.27746 290.278 3.54908 287.8C2.97241 287.246 2.54893 286.564 2.32373 285.827C-1.07274 274.843 -4.43436 263.851 -7.76111 252.849C-7.9198 252.287 -7.69232 251.624 -7.64188 251.008C-7.1346 251.43 -6.37474 251.773 -6.15301 252.29C-0.112373 266.25 5.89758 280.223 11.8768 294.211C12.0263 294.473 12.2107 294.718 12.4248 294.938L11.8526 295.099Z" fill="white" fill-opacity="0.1"/>
</g>
<g clip-path="url(#clip4_355_555)">
<path d="M72.4358 504.907C71.7131 502.785 71.1367 500.78 70.3267 498.869C69.9251 498.149 69.313 497.57 68.5727 497.208C61.5044 493.318 54.1713 490.221 45.9062 490.057C45.4603 490.045 44.8545 489.421 44.641 488.937C44.4276 488.453 44.5142 487.734 44.4141 486.363C43.5433 487.101 42.8177 487.397 42.616 487.908C42.1342 489.088 41.4598 489.521 40.2249 489.385C37.7391 489.109 35.2501 488.871 32.7577 488.671C31.3087 488.554 30.6091 487.758 30.5698 486.384C30.4412 484.095 30.4344 481.801 30.5492 479.511C30.6067 478.785 31.471 477.651 32.1315 477.514C34.8551 476.97 37.6124 476.609 40.3846 476.436C41.051 476.395 41.7918 477.234 42.4668 477.711C42.9797 478.076 43.4415 478.511 44.4468 479.348C44.0329 476.29 45.4157 475.978 47.3055 475.922C61.351 475.519 75.2251 476.623 88.7889 480.475C90.1909 480.882 91.4426 481.781 92.7603 482.433C91.8208 483.398 90.9159 484.386 89.9458 485.326C83.395 491.534 84.5451 491.226 87.8057 499.647C88.4471 499.429 89.1161 498.98 89.7302 499.045C90.6081 499.176 91.448 499.492 92.1937 499.974C92.9506 500.432 93.506 501.232 94.2524 501.698C95.6003 502.53 98.1115 510.437 97.3918 511.84C96.1808 514.174 98.1644 518.002 100.715 518.331C124.123 521.288 136.473 547.409 124.017 567.482C122.701 569.6 120.778 570.648 118.752 571.692C109.698 576.362 99.9424 579.523 89.8699 581.049C88.565 581.176 87.2486 580.99 86.0306 580.505C63.6173 572.437 57.3877 544.007 74.3844 527.278C75.5266 526.156 75.7827 525.26 75.1454 523.869C74.4317 522.305 74.4596 520.285 72.1972 519.778C71.8382 519.697 71.5779 518.906 71.3907 518.395C70.7713 516.693 70.2231 514.966 69.638 513.248C69.189 511.929 68.51 510.623 69.8419 509.396C69.9065 509.317 69.9516 509.224 69.9737 509.124C69.9958 509.025 69.9942 508.921 69.9691 508.822C69.1308 506.607 70.0739 505.38 72.4358 504.907ZM48.2167 478.78C47.8541 479.558 46.9823 480.566 47.0059 481.557C47.0407 483.047 48.1833 483.639 49.7943 483.634C53.8018 483.595 57.8236 483.728 61.8192 483.914C63.3408 483.984 64.2561 483.376 64.6349 482.023C64.7434 481.722 64.7838 481.4 64.7532 481.082C64.7227 480.763 64.6219 480.455 64.4581 480.18C64.2943 479.905 64.0716 479.67 63.806 479.491C63.5404 479.312 63.2385 479.194 62.922 479.146C58.2845 478.101 53.5842 478.168 48.2167 478.78ZM79.6837 489.095C79.2464 487.81 78.3168 486.752 77.0995 486.153C75.8822 485.554 74.4768 485.463 73.1926 485.901C71.9083 486.338 70.8504 487.268 70.2515 488.485C69.6526 489.702 69.5619 491.108 69.9992 492.392C70.4365 493.677 71.3661 494.735 72.5834 495.334C73.8008 495.932 75.2061 496.023 76.4904 495.586C77.7746 495.149 78.8325 494.219 79.4314 493.002C80.0303 491.784 80.121 490.379 79.6837 489.095V489.095ZM83.3666 486.935L87.1351 483.274L81.6624 481.93L83.3666 486.935ZM89.2303 515.017C90.1792 513.262 88.1695 506.827 86.3176 505.165C86.7376 508.76 88.253 511.562 89.2461 515.011L89.2303 515.017ZM77.1915 508.701L80.3181 517.883C81.1606 516.037 78.7801 509.331 77.1915 508.701ZM76.0566 518.526L72.9947 509.533C72.2416 511.707 74.6546 518.119 76.0566 518.526ZM75.5039 508.935C74.5092 510.763 76.9459 517.569 78.5766 517.959L75.5039 508.935ZM91.5221 513.52C92.6136 512.146 90.2844 505.188 88.5181 504.698L91.5221 513.52ZM82.5842 517.116C83.4632 515.389 81.2119 508.83 79.4913 508.033L82.5842 517.116ZM82.5072 507.249C81.8147 509.393 84.0399 515.396 85.5084 516.063L82.5072 507.249ZM87.8071 515.223L84.7546 506.258C83.7797 507.885 86.1426 514.733 87.8071 515.223ZM93.9062 512.815C94.6062 510.809 92.4097 504.526 90.7823 503.64L93.9062 512.815ZM95.9762 511.783C96.6513 509.613 94.5572 503.632 92.8954 502.735L95.9762 511.783ZM70.8843 510.446L70.1548 510.743C70.9458 513.611 71.7869 516.458 73.0964 519.136L73.7656 518.908L70.8843 510.446Z" fill="white" fill-opacity="0.15"/>
<path d="M39.7896 529.917C44.5239 517.492 44.8117 504.505 45.3518 491.272L50.2531 491.393L49.5683 504.953L50.1221 505.1L54.163 492.43L57.9187 493.546C58.7236 501.036 44.656 529.546 39.7896 529.917Z" fill="white" fill-opacity="0.15"/>
<path d="M69.3969 499.721L57.0122 503.938C57.7029 501.321 58.2207 498.754 59.1216 496.327C59.3463 495.689 60.9801 494.907 61.5716 495.152C64.1364 496.197 66.5421 497.591 68.9908 498.892C69.1832 498.99 69.2279 499.354 69.3969 499.721Z" fill="white" fill-opacity="0.15"/>
<path d="M49.1489 479.337C53.6596 479.609 58.063 479.837 62.4607 480.218C62.8617 480.254 63.1904 481.18 63.5548 481.692C63.0307 482.047 62.5072 482.703 61.9807 482.701C57.8355 482.707 53.6844 482.627 49.5275 482.461C49.222 482.4 48.9366 482.263 48.6974 482.064C48.4581 481.865 48.2726 481.608 48.1578 481.319C48.0754 480.856 48.6706 480.243 49.1489 479.337Z" fill="white" fill-opacity="0.15"/>
<path d="M76.1964 494.476C75.7099 494.666 75.1902 494.757 74.6679 494.744C74.1456 494.731 73.6312 494.613 73.155 494.398C72.6788 494.183 72.2504 493.875 71.8949 493.492C71.5394 493.11 71.2641 492.659 71.0852 492.168C70.7161 491.144 70.7688 490.014 71.2316 489.028C71.6944 488.042 72.5296 487.28 73.5537 486.909C74.5631 486.614 75.6464 486.706 76.591 487.169C77.5357 487.631 78.2734 488.43 78.6595 489.408C78.9951 490.407 78.9251 491.498 78.4644 492.446C78.0037 493.394 77.1892 494.123 76.1964 494.476V494.476Z" fill="white" fill-opacity="0.15"/>
</g>
<g clip-path="url(#clip5_355_555)">
<path d="M350.436 200.907C349.713 198.785 349.137 196.78 348.327 194.869C347.925 194.149 347.313 193.57 346.573 193.208C339.504 189.318 332.171 186.221 323.906 186.057C323.46 186.045 322.854 185.421 322.641 184.937C322.428 184.453 322.514 183.734 322.414 182.363C321.543 183.101 320.818 183.397 320.616 183.908C320.134 185.088 319.46 185.521 318.225 185.385C315.739 185.109 313.25 184.871 310.758 184.671C309.309 184.554 308.609 183.758 308.57 182.384C308.441 180.095 308.434 177.801 308.549 175.511C308.607 174.785 309.471 173.651 310.131 173.514C312.855 172.97 315.612 172.609 318.385 172.436C319.051 172.395 319.792 173.234 320.467 173.711C320.98 174.076 321.441 174.511 322.447 175.348C322.033 172.29 323.416 171.978 325.305 171.922C339.351 171.519 353.225 172.623 366.789 176.475C368.191 176.882 369.443 177.781 370.76 178.433C369.821 179.398 368.916 180.386 367.946 181.326C361.395 187.534 362.545 187.226 365.806 195.647C366.447 195.429 367.116 194.98 367.73 195.045C368.608 195.176 369.448 195.492 370.194 195.974C370.951 196.432 371.506 197.232 372.252 197.698C373.6 198.53 376.112 206.437 375.392 207.84C374.181 210.174 376.164 214.002 378.715 214.331C402.123 217.288 414.473 243.409 402.017 263.482C400.701 265.6 398.778 266.648 396.752 267.692C387.698 272.362 377.942 275.523 367.87 277.049C366.565 277.176 365.249 276.99 364.031 276.505C341.617 268.437 335.388 240.007 352.384 223.278C353.527 222.156 353.783 221.26 353.145 219.869C352.432 218.305 352.46 216.285 350.197 215.778C349.838 215.697 349.578 214.906 349.391 214.395C348.771 212.693 348.223 210.966 347.638 209.248C347.189 207.929 346.51 206.623 347.842 205.396C347.906 205.317 347.952 205.224 347.974 205.124C347.996 205.025 347.994 204.921 347.969 204.822C347.131 202.607 348.074 201.38 350.436 200.907ZM326.217 174.78C325.854 175.558 324.982 176.566 325.006 177.557C325.041 179.047 326.183 179.639 327.794 179.634C331.802 179.595 335.824 179.728 339.819 179.914C341.341 179.984 342.256 179.376 342.635 178.023C342.743 177.722 342.784 177.4 342.753 177.082C342.723 176.763 342.622 176.455 342.458 176.18C342.294 175.905 342.072 175.67 341.806 175.491C341.54 175.312 341.238 175.194 340.922 175.146C336.285 174.101 331.584 174.168 326.217 174.78ZM357.684 185.095C357.246 183.81 356.317 182.752 355.099 182.153C353.882 181.554 352.477 181.463 351.193 181.901C349.908 182.338 348.85 183.268 348.252 184.485C347.653 185.702 347.562 187.108 347.999 188.392C348.437 189.677 349.366 190.735 350.583 191.334C351.801 191.932 353.206 192.023 354.49 191.586C355.775 191.149 356.833 190.219 357.431 189.002C358.03 187.784 358.121 186.379 357.684 185.095V185.095ZM361.367 182.935L365.135 179.274L359.662 177.93L361.367 182.935ZM367.23 211.017C368.179 209.262 366.169 202.827 364.318 201.165C364.738 204.76 366.253 207.562 367.246 211.011L367.23 211.017ZM355.191 204.701L358.318 213.883C359.161 212.037 356.78 205.331 355.191 204.701ZM354.057 214.526L350.995 205.533C350.242 207.707 352.655 214.119 354.057 214.526ZM353.504 204.935C352.509 206.763 354.946 213.569 356.577 213.959L353.504 204.935ZM369.522 209.52C370.614 208.146 368.284 201.188 366.518 200.698L369.522 209.52ZM360.584 213.116C361.463 211.389 359.212 204.83 357.491 204.033L360.584 213.116ZM360.507 203.249C359.815 205.393 362.04 211.396 363.508 212.063L360.507 203.249ZM365.807 211.223L362.755 202.258C361.78 203.885 364.143 210.733 365.807 211.223ZM371.906 208.815C372.606 206.809 370.41 200.526 368.782 199.64L371.906 208.815ZM373.976 207.783C374.651 205.613 372.557 199.632 370.895 198.735L373.976 207.783ZM348.884 206.446L348.155 206.743C348.946 209.611 349.787 212.458 351.096 215.136L351.766 214.908L348.884 206.446Z" fill="white" fill-opacity="0.15"/>
<path d="M317.79 225.917C322.524 213.492 322.812 200.505 323.352 187.272L328.253 187.393L327.568 200.953L328.122 201.1L332.163 188.43L335.919 189.546C336.724 197.036 322.656 225.546 317.79 225.917Z" fill="white" fill-opacity="0.15"/>
<path d="M347.397 195.721L335.012 199.938C335.703 197.321 336.221 194.754 337.122 192.327C337.346 191.689 338.98 190.907 339.572 191.152C342.136 192.197 344.542 193.591 346.991 194.892C347.183 194.99 347.228 195.354 347.397 195.721Z" fill="white" fill-opacity="0.15"/>
<path d="M327.149 175.337C331.66 175.609 336.063 175.837 340.461 176.218C340.862 176.254 341.19 177.18 341.555 177.692C341.031 178.047 340.507 178.703 339.981 178.701C335.836 178.707 331.684 178.627 327.528 178.461C327.222 178.4 326.937 178.263 326.697 178.064C326.458 177.865 326.273 177.608 326.158 177.319C326.075 176.856 326.671 176.243 327.149 175.337Z" fill="white" fill-opacity="0.15"/>
<path d="M354.196 190.476C353.71 190.666 353.19 190.757 352.668 190.744C352.146 190.731 351.631 190.613 351.155 190.398C350.679 190.183 350.25 189.875 349.895 189.492C349.539 189.11 349.264 188.659 349.085 188.168C348.716 187.144 348.769 186.014 349.232 185.028C349.694 184.042 350.53 183.28 351.554 182.909C352.563 182.614 353.646 182.706 354.591 183.169C355.536 183.631 356.273 184.43 356.66 185.408C356.995 186.407 356.925 187.498 356.464 188.446C356.004 189.394 355.189 190.123 354.196 190.476V190.476Z" fill="white" fill-opacity="0.15"/>
</g>
<defs>
<clipPath id="clip0_355_555">
<rect width="90" height="133" fill="white" transform="translate(263 443)"/>
</clipPath>
<clipPath id="clip1_355_555">
<rect width="90" height="133" fill="white" transform="translate(-22 31)"/>
</clipPath>
<clipPath id="clip2_355_555">
<rect width="74" height="125" fill="white" transform="translate(249 -37)"/>
</clipPath>
<clipPath id="clip3_355_555">
<rect width="74" height="125" fill="white" transform="translate(-58 306.279) rotate(-55.9038)"/>
</clipPath>
<clipPath id="clip4_355_555">
<rect width="79.5227" height="118.079" fill="white" transform="translate(23 480.633) rotate(-18.8036)"/>
</clipPath>
<clipPath id="clip5_355_555">
<rect width="79.5227" height="118.079" fill="white" transform="translate(301 176.633) rotate(-18.8036)"/>
</clipPath>
</defs>
</svg>
