<svg width="24" height="24" viewBox="0 0 24 24" fill="none" xmlns="http://www.w3.org/2000/svg">
    <g id="healthicons:money-bag">
        <path id="Vector" fill-rule="evenodd" clip-rule="evenodd" d="M12.0272 0.75C8.94745 0.75 6.14109 1.6825 4.48086 2.44438C4.33086 2.51313 4.19109 2.58062 4.06086 2.64562C3.80313 2.77437 3.58359 2.89438 3.40904 3L5.29768 5.54875L6.18677 5.87312C9.66131 7.48 14.3209 7.48 17.7961 5.87312L18.8052 5.39312L20.5915 3C20.2215 2.77875 19.8366 2.57898 19.4393 2.40187C17.7879 1.64812 15.049 0.75 12.0272 0.75ZM7.63427 3.635C6.96549 3.52028 6.30495 3.36833 5.65631 3.18C7.21154 2.54687 9.52972 1.875 12.0265 1.875C13.7563 1.875 15.392 2.1975 16.7447 2.60625C15.1595 2.81063 13.4679 3.1575 11.8561 3.58437C10.5879 3.92062 9.10563 3.88438 7.63427 3.635V3.635ZM18.5161 6.8L18.349 6.8775C14.5261 8.645 9.45609 8.645 5.63313 6.8775L5.47495 6.80375C-0.267321 12.5794 -4.65141 23.2481 12.0272 23.2481C28.7045 23.2481 24.2134 12.38 18.5161 6.8ZM11.3181 12C10.9565 12 10.6096 12.1317 10.3539 12.3661C10.0982 12.6005 9.9545 12.9185 9.9545 13.25C9.9545 13.5815 10.0982 13.8995 10.3539 14.1339C10.6096 14.3683 10.9565 14.5 11.3181 14.5V12ZM12.6818 10.75V10.125H11.3181V10.75C10.5948 10.75 9.90112 11.0134 9.38966 11.4822C8.8782 11.9511 8.59086 12.587 8.59086 13.25C8.59086 13.913 8.8782 14.5489 9.38966 15.0178C9.90112 15.4866 10.5948 15.75 11.3181 15.75V18.25C11.0361 18.2501 10.761 18.17 10.5307 18.0208C10.3004 17.8716 10.1263 17.6606 10.0322 17.4169C9.97201 17.2606 9.84652 17.1326 9.68336 17.0611C9.5202 16.9896 9.33275 16.9804 9.16222 17.0356C8.9917 17.0908 8.85208 17.2059 8.77409 17.3554C8.69609 17.505 8.6861 17.6768 8.74632 17.8331C8.93439 18.3206 9.28269 18.7427 9.74327 19.0412C10.2039 19.3397 10.7541 19.5 11.3181 19.5V20.125H12.6818V19.5C13.4051 19.5 14.0988 19.2366 14.6102 18.7678C15.1217 18.2989 15.409 17.663 15.409 17C15.409 16.337 15.1217 15.7011 14.6102 15.2322C14.0988 14.7634 13.4051 14.5 12.6818 14.5V12C13.275 12 13.7802 12.3469 13.9684 12.8331C13.9963 12.9127 14.0413 12.9863 14.1008 13.0496C14.1603 13.1129 14.2331 13.1647 14.3147 13.2018C14.3964 13.2389 14.4854 13.2606 14.5764 13.2656C14.6674 13.2706 14.7586 13.2589 14.8446 13.231C14.9305 13.2032 15.0095 13.1598 15.0769 13.1035C15.1442 13.0472 15.1986 12.9791 15.2367 12.9032C15.2749 12.8273 15.296 12.7451 15.2989 12.6616C15.3018 12.5781 15.2864 12.4948 15.2536 12.4169C15.0655 11.9294 14.7172 11.5073 14.2566 11.2088C13.7961 10.9103 13.2458 10.75 12.6818 10.75ZM12.6818 15.75V18.25C13.0434 18.25 13.3903 18.1183 13.646 17.8839C13.9017 17.6495 14.0454 17.3315 14.0454 17C14.0454 16.6685 13.9017 16.3505 13.646 16.1161C13.3903 15.8817 13.0434 15.75 12.6818 15.75Z" fill="#989898"/>
    </g>
</svg>
