<svg width="230" height="229" viewBox="0 0 230 229" fill="none" xmlns="http://www.w3.org/2000/svg">
<path d="M218.238 91.8558C219.642 89.8321 221.218 87.877 222.76 85.9562C224.233 84.1039 225.878 82.4575 227.419 80.6739C232.147 72.3047 230.605 69.6636 220.91 66.3708C220.91 62.5978 222.143 58.2759 220.567 55.6348C219.026 53.028 214.64 52.1019 211.351 50.3869C210.837 47.5743 211.283 43.0124 209.193 40.5428C207.274 38.2447 202.718 38.1761 198.949 37.0442C197.818 25.8966 196.38 24.6961 185.519 26.6512C182.401 15.0235 180.449 13.8573 170.958 17.5274C168.595 14.4404 166.882 10.2214 163.935 8.91804C161.194 7.71753 157.083 9.70694 153.28 10.3243C147.661 0.960404 146.188 0.617402 138.377 5.86532C135.225 3.77301 132.484 1.88651 129.743 0H125.221C122.754 1.88651 120.288 3.77301 117.615 5.86532C115.56 4.39042 112.511 2.19521 109.427 0H107.166C103.808 2.81261 100.451 5.62522 96.8536 8.64364C84.006 2.12661 83.2523 2.33241 77.3595 14.0974C72.6659 13.7201 67.4926 11.7992 63.9296 13.4114C60.6406 14.9206 59.1331 20.2714 56.5979 24.3188C41.4891 22.5009 42.3799 24.4217 40.3928 37.7988C25.3525 39.4795 24.7701 40.1998 26.5174 53.7483C12.1623 59.545 12.1623 59.545 15.7254 72.6134C2.39818 80.3995 2.39818 80.3995 8.87336 92.7476C5.8242 96.1776 2.91212 99.4704 0 102.763V106.159C2.15839 108.869 4.35103 111.544 6.74925 114.528C4.55659 116.963 2.29543 119.467 0 122.006V126.533C2.39822 129.071 4.79643 131.644 7.02334 133.976C5.82424 137.441 2.98062 141.454 3.66583 144.781C4.31677 148.074 8.53076 150.646 11.2716 153.665C10.7234 156.649 8.46226 161.108 9.66136 164.229C10.8605 167.35 15.5198 169.134 18.9801 171.775C18.9801 174.828 17.5755 179.733 19.3913 182.751C21.07 185.564 26.1748 186.284 30.0119 188.068C28.6415 201.033 31.7592 201.548 43.3049 201.376C45.8059 214.479 46.7994 215.165 59.2359 212.215C64.6147 224.769 66.1222 225.421 77.2568 219.521C78.0105 220.927 78.73 222.368 79.518 223.774C82.6356 229.262 87.1237 230.428 92.1257 226.621C94.6609 224.666 96.6823 224.7 99.7657 225.318C102.644 225.866 106.823 225.078 108.947 223.191C111.688 220.756 114.018 218.766 117.821 218.526C119.5 218.423 121.555 217.326 122.617 216.022C126.831 210.946 131.731 206.075 134.3 200.21C135.773 196.883 135.67 192.698 137.863 189.028C141.769 182.477 135.191 172.77 127.208 172.633C121.727 161.965 127.585 149.24 138.069 149.72C138.548 154.694 141.358 156.786 146.462 155.997C152.321 155.105 155.062 152.396 155.884 146.633C156.09 145.158 157.083 143.752 157.803 142.346C159.344 139.327 160.886 136.309 162.462 133.29C163.113 132.056 163.73 130.821 164.518 129.723C164.929 129.14 166.059 128.9 166.231 128.317C168.183 121.491 174.247 117.444 177.434 111.475C178.05 110.309 179.249 109.417 180.311 108.56C182.573 106.776 184.868 105.027 187.266 103.381C188.637 102.42 190.178 101.666 191.72 101.014C193.57 100.225 195.831 100.054 197.407 98.9216C202.683 95.1486 206.692 95.4573 210.529 99.9849C212.859 97.8926 214.983 95.5945 217.073 93.2621C217.381 92.7819 217.792 92.336 218.238 91.8558Z" fill="#050205"/>
</svg>
