<svg width="421" height="215" viewBox="0 0 421 215" fill="none" xmlns="http://www.w3.org/2000/svg">
<path fill-rule="evenodd" clip-rule="evenodd" d="M332.837 555.93C374.977 486.798 446.481 412.749 411.204 332.138C375.328 250.158 245.439 246.183 171.192 186.556C103.914 132.526 86.3741 22.8426 2.29534 3.75042C-81.2925 -15.2302 -137.632 63.0959 -205.171 101.094C-264.818 134.652 -342.332 152.777 -368.897 212.587C-395.206 271.822 -364.273 342.916 -341.835 408.792C-321.124 469.598 -283.024 521.466 -244.918 576.583C-190.385 655.461 -166.177 769.176 -71.4194 799.924C21.6368 830.119 103.49 759.212 178.459 713.963C244.893 673.866 294.021 619.61 332.837 555.93Z" fill="#893583"/>
</svg>
