<svg width="40" height="31" viewBox="0 0 40 31" fill="none" xmlns="http://www.w3.org/2000/svg">
<path d="M9.42425 31C7.89599 31 6.53754 30.7111 5.3489 30.1332C4.24516 29.4727 3.26877 28.6471 2.41974 27.6565C1.65561 26.6658 1.06129 25.5513 0.636774 24.3129C0.212258 22.992 0 21.6711 0 20.3502C0 17.4607 0.339613 15.0253 1.01884 13.0439C1.78297 11.0626 2.84426 9.3289 4.20271 7.84288C5.56116 6.35686 7.17432 5.03596 9.04219 3.88016C10.9101 2.64181 12.9477 1.40346 15.1552 0.165114C15.7495 -0.165114 16.259 0 16.6835 0.660454C17.108 1.32091 17.0231 1.85753 16.4288 2.27031C15.0703 3.26098 13.7968 4.25166 12.6081 5.24234C11.4195 6.15047 10.4006 7.14114 9.55161 8.21438C8.70257 9.20506 8.10825 10.3196 7.76864 11.5579C7.51393 12.7963 7.59883 14.1997 8.02335 15.7683C8.19315 16.4288 8.49032 16.8828 8.91483 17.1305C9.33935 17.2956 10.061 17.4194 11.0799 17.502C13.0326 17.6671 14.476 18.4101 15.4099 19.731C16.4288 20.9694 16.9382 22.538 16.9382 24.4368C16.9382 26.3356 16.1741 27.9041 14.6458 29.1425C13.1175 30.3808 11.377 31 9.42425 31ZM32.4755 31C30.9472 31 29.5887 30.7111 28.4001 30.1332C27.2964 29.4727 26.32 28.6471 25.4709 27.6565C24.7068 26.6658 24.1125 25.5513 23.688 24.3129C23.2635 22.992 23.0512 21.6711 23.0512 20.3502C23.0512 17.4607 23.3908 15.0253 24.07 13.0439C24.8342 11.0626 25.8955 9.3289 27.2539 7.84288C28.6124 6.35686 30.2255 5.03596 32.0934 3.88016C33.9613 2.64181 35.9989 1.40346 38.2064 0.165114C38.8007 -0.165114 39.3102 0 39.7347 0.660454C40.1592 1.32091 40.0743 1.85753 39.48 2.27031C38.1215 3.26098 36.848 4.25166 35.6593 5.24234C34.4707 6.15047 33.4518 7.14114 32.6028 8.21438C31.7538 9.20506 31.1595 10.3196 30.8198 11.5579C30.5651 12.7963 30.65 14.1997 31.0746 15.7683C31.2444 16.4288 31.5415 16.8828 31.966 17.1305C32.3906 17.2956 33.1122 17.4194 34.1311 17.502C36.0838 17.6671 37.5272 18.4101 38.4611 19.731C39.48 20.9694 39.9894 22.538 39.9894 24.4368C39.9894 26.3356 39.2253 27.9041 37.697 29.1425C36.1687 30.3808 34.4282 31 32.4755 31Z" fill="#EBCCE9"/>
</svg>
