<svg width="377" height="720" viewBox="0 0 377 720" fill="none" xmlns="http://www.w3.org/2000/svg">
<path fill-rule="evenodd" clip-rule="evenodd" d="M1061.55 -281.361C886.724 -340.258 686.223 -462.022 524.773 -342.836C360.58 -221.627 416.988 69.4422 321.753 264.766C235.458 441.755 0.479416 536.138 0.276884 732.887C0.0755375 928.487 202.466 1014.34 320.847 1145.48C425.395 1261.28 504.616 1424.64 650.896 1453.58C795.768 1482.24 938.248 1377.52 1073.4 1294.35C1198.14 1217.57 1294.29 1106.61 1397.66 993.992C1545.58 832.828 1786.17 721.572 1806.92 495.176C1827.29 272.846 1628.57 126.465 1490.34 -17.5442C1367.85 -145.157 1222.58 -227.11 1061.55 -281.361Z" fill="#EADAF0"/>
</svg>
