<svg width="254" height="41" viewBox="0 0 254 41" fill="none" xmlns="http://www.w3.org/2000/svg">
<path d="M41.2592 14.3374L28.4774 12.4798L22.7636 0.896106C22.6075 0.578951 22.3508 0.322207 22.0336 0.166147C21.2382 -0.22652 20.2716 0.100703 19.8739 0.896106L14.1601 12.4798L1.37828 14.3374C1.02589 14.3878 0.703702 14.5539 0.457026 14.8056C0.158809 15.1121 -0.00552205 15.5245 0.000141692 15.9521C0.00580544 16.3797 0.181001 16.7876 0.487232 17.0861L9.73505 26.1023L7.55021 38.8338C7.49898 39.13 7.53175 39.4346 7.64481 39.7131C7.75788 39.9915 7.94671 40.2328 8.1899 40.4094C8.43309 40.586 8.7209 40.691 9.0207 40.7124C9.3205 40.7337 9.62029 40.6707 9.88608 40.5303L21.3187 34.5195L32.7514 40.5303C33.0635 40.6965 33.426 40.7519 33.7733 40.6914C34.6493 40.5404 35.2383 39.7098 35.0873 38.8338L32.9024 26.1023L42.1503 17.0861C42.402 16.8394 42.5681 16.5172 42.6184 16.1648C42.7544 15.2838 42.1402 14.4683 41.2592 14.3374Z" fill="#050205"/>
<path d="M93.8964 14.3374L81.1146 12.4798L75.4008 0.896106C75.2447 0.578951 74.988 0.322207 74.6708 0.166147C73.8754 -0.22652 72.9088 0.100703 72.5111 0.896106L66.7973 12.4798L54.0155 14.3374C53.6631 14.3878 53.3409 14.5539 53.0942 14.8056C52.796 15.1121 52.6317 15.5245 52.6373 15.9521C52.643 16.3797 52.8182 16.7876 53.1244 17.0861L62.3723 26.1023L60.1874 38.8338C60.1362 39.13 60.169 39.4346 60.282 39.7131C60.3951 39.9915 60.5839 40.2328 60.8271 40.4094C61.0703 40.586 61.3581 40.691 61.6579 40.7124C61.9577 40.7337 62.2575 40.6707 62.5233 40.5303L73.9559 34.5195L85.3886 40.5303C85.7007 40.6965 86.0632 40.7519 86.4106 40.6914C87.2865 40.5404 87.8755 39.7098 87.7245 38.8338L85.5396 26.1023L94.7875 17.0861C95.0392 16.8394 95.2053 16.5172 95.2556 16.1648C95.3916 15.2838 94.7774 14.4683 93.8964 14.3374Z" fill="#050205"/>
<path d="M146.534 14.3374L133.752 12.4798L128.038 0.896106C127.882 0.578951 127.625 0.322207 127.308 0.166147C126.513 -0.22652 125.546 0.100703 125.148 0.896106L119.435 12.4798L106.653 14.3374C106.3 14.3878 105.978 14.5539 105.731 14.8056C105.433 15.1121 105.269 15.5245 105.275 15.9521C105.28 16.3797 105.455 16.7876 105.762 17.0861L115.009 26.1023L112.825 38.8338C112.773 39.13 112.806 39.4346 112.919 39.7131C113.032 39.9915 113.221 40.2328 113.464 40.4094C113.708 40.586 113.995 40.691 114.295 40.7124C114.595 40.7337 114.895 40.6707 115.16 40.5303L126.593 34.5195L138.026 40.5303C138.338 40.6965 138.7 40.7519 139.048 40.6914C139.924 40.5404 140.513 39.7098 140.362 38.8338L138.177 26.1023L147.425 17.0861C147.676 16.8394 147.843 16.5172 147.893 16.1648C148.029 15.2838 147.415 14.4683 146.534 14.3374Z" fill="#050205"/>
<path d="M199.171 14.3374L186.389 12.4798L180.675 0.896106C180.519 0.578951 180.262 0.322207 179.945 0.166147C179.15 -0.22652 178.183 0.100703 177.786 0.896106L172.072 12.4798L159.29 14.3374C158.938 14.3878 158.615 14.5539 158.369 14.8056C158.07 15.1121 157.906 15.5245 157.912 15.9521C157.917 16.3797 158.093 16.7876 158.399 17.0861L167.647 26.1023L165.462 38.8338C165.411 39.13 165.443 39.4346 165.556 39.7131C165.669 39.9915 165.858 40.2328 166.102 40.4094C166.345 40.586 166.633 40.691 166.932 40.7124C167.232 40.7337 167.532 40.6707 167.798 40.5303L179.23 34.5195L190.663 40.5303C190.975 40.6965 191.338 40.7519 191.685 40.6914C192.561 40.5404 193.15 39.7098 192.999 38.8338L190.814 26.1023L200.062 17.0861C200.314 16.8394 200.48 16.5172 200.53 16.1648C200.666 15.2838 200.052 14.4683 199.171 14.3374Z" fill="#050205"/>
<path d="M251.808 14.3374L239.026 12.4798L233.312 0.896106C233.156 0.578951 232.9 0.322207 232.582 0.166147C231.787 -0.22652 230.82 0.100703 230.423 0.896106L224.709 12.4798L211.927 14.3374C211.575 14.3878 211.253 14.5539 211.006 14.8056C210.708 15.1121 210.543 15.5245 210.549 15.9521C210.555 16.3797 210.73 16.7876 211.036 17.0861L220.284 26.1023L218.099 38.8338C218.048 39.13 218.081 39.4346 218.194 39.7131C218.307 39.9915 218.496 40.2328 218.739 40.4094C218.982 40.586 219.27 40.691 219.57 40.7124C219.869 40.7337 220.169 40.6707 220.435 40.5303L231.868 34.5195L243.3 40.5303C243.612 40.6965 243.975 40.7519 244.322 40.6914C245.198 40.5404 245.787 39.7098 245.636 38.8338L243.451 26.1023L252.699 17.0861C252.951 16.8394 253.117 16.5172 253.167 16.1648C253.303 15.2838 252.689 14.4683 251.808 14.3374Z" fill="#050205"/>
</svg>
