<svg width="428" height="260" viewBox="0 0 428 260" fill="none" xmlns="http://www.w3.org/2000/svg">
<path fill-rule="evenodd" clip-rule="evenodd" d="M339.427 555.497C381.567 486.365 453.071 412.316 417.794 331.705C381.918 249.725 252.029 245.75 177.782 186.123C110.504 132.093 92.9639 22.4095 8.88519 3.31731C-74.7026 -15.6633 -131.042 62.6628 -198.581 100.661C-258.228 134.219 -335.742 152.344 -362.307 212.154C-388.616 271.388 -357.683 342.483 -335.246 408.358C-314.535 469.165 -276.435 521.033 -238.328 576.15C-183.795 655.028 -159.587 768.743 -64.8295 799.491C28.2266 829.686 110.079 758.779 185.049 713.53C251.483 673.433 300.611 619.177 339.427 555.497Z" fill="#EADAF0"/>
</svg>
