<svg width="580" height="203" viewBox="0 0 580 203" fill="none" xmlns="http://www.w3.org/2000/svg">
<path fill-rule="evenodd" clip-rule="evenodd" d="M500.602 -760.679C402.32 -779.933 285.743 -831.194 207.334 -755.556C127.594 -678.633 178.672 -525.995 141.32 -414.092C107.474 -312.693 -12.2725 -245.17 1.62385 -139.265C15.439 -33.979 130.477 -2.17724 203.524 59.9706C268.036 114.856 322.301 197.137 403.089 202.299C483.099 207.411 552.328 140.911 619.144 86.5254C680.819 36.3246 724.666 -30.2398 772.281 -98.2087C840.422 -195.478 961.988 -272.482 957.036 -395.805C952.174 -516.913 834.805 -581.55 750.159 -649.216C675.15 -709.178 591.132 -742.944 500.602 -760.679Z" fill="#EADAF0"/>
</svg>
