<svg width="689" height="95" viewBox="0 0 689 95" fill="none" xmlns="http://www.w3.org/2000/svg">
<path fill-rule="evenodd" clip-rule="evenodd" d="M231.602 35.3217C133.32 16.0682 16.7426 -35.193 -61.6661 40.4453C-141.406 117.368 -90.3283 270.006 -127.68 381.909C-161.526 483.308 -281.272 550.831 -267.376 656.736C-253.561 762.022 -138.523 793.824 -65.4756 855.972C-0.964248 910.857 53.3012 993.138 134.089 998.3C214.099 1003.41 283.328 936.912 350.144 882.526C411.819 832.326 455.666 765.761 503.281 697.792C571.422 600.523 692.988 523.519 688.036 400.196C683.174 279.088 565.805 214.451 481.159 146.785C406.15 86.823 322.132 53.0567 231.602 35.3217Z" fill="#893583"/>
</svg>
