<svg width="420" height="203" viewBox="0 0 420 203" fill="none" xmlns="http://www.w3.org/2000/svg">
<path fill-rule="evenodd" clip-rule="evenodd" d="M500.602 -760.678C402.32 -779.932 285.743 -831.193 207.334 -755.555C127.594 -678.632 178.672 -525.994 141.32 -414.091C107.474 -312.692 -12.2725 -245.169 1.62385 -139.264C15.439 -33.9781 130.477 -2.17626 203.524 59.9715C268.036 114.857 322.301 197.138 403.089 202.3C483.099 207.412 552.328 140.912 619.144 86.5264C680.819 36.3256 724.666 -30.2389 772.281 -98.2077C840.422 -195.477 961.988 -272.481 957.036 -395.804C952.174 -516.912 834.805 -581.549 750.159 -649.215C675.15 -709.177 591.132 -742.943 500.602 -760.678Z" fill="#EADAF0"/>
</svg>
