<svg width="210" height="720" viewBox="0 0 210 720" fill="none" xmlns="http://www.w3.org/2000/svg">
<path fill-rule="evenodd" clip-rule="evenodd" d="M1123.85 687.292C1057.64 773.991 1008.22 910.329 862.2 872.243C713.703 833.511 602.037 620.343 454.776 512.777C321.338 415.308 147.489 413.708 51.1764 279.836C-44.5735 146.746 23.4355 34.3452 23.6521 -86.4755C23.8436 -193.178 -12.9794 -325.497 52.3677 -384.193C117.085 -442.325 245.718 -409.032 359.834 -388.445C465.169 -369.443 571.676 -319.543 682.916 -270.443C842.11 -200.176 1027.26 -188.587 1149.23 -40.0107C1269.01 105.897 1232.59 258.516 1227.89 393.395C1223.72 512.917 1184.84 607.431 1123.85 687.292Z" fill="#EADAF0"/>
</svg>
