<svg width="262" height="153" viewBox="0 0 262 153" fill="none" xmlns="http://www.w3.org/2000/svg">
<path fill-rule="evenodd" clip-rule="evenodd" d="M93.5148 -301.019C52.6398 -258.343 -9.95996 -216.78 2.62305 -153.741C15.4198 -89.6313 107.498 -66.3672 151.172 -12.1647C190.747 36.9501 186.129 117.933 243.152 144.774C299.842 171.457 352.288 124.458 406.425 107.981C454.237 93.4295 512.389 92.6945 540.692 54.2171C568.722 16.1105 557.753 -39.458 552.031 -89.9683C546.75 -136.592 527.661 -179.575 509.076 -224.878C482.479 -289.709 482.968 -374.616 420.145 -411.448C358.449 -447.619 288.955 -409.924 228.381 -389.444C174.704 -371.297 131.166 -340.329 93.5148 -301.019Z" fill="#893583"/>
</svg>
