<svg width="130" height="13" viewBox="0 0 130 13" fill="none" xmlns="http://www.w3.org/2000/svg">
<path fill-rule="evenodd" clip-rule="evenodd" d="M34.6494 7.65566C29.0643 8.83045 22.616 9.99959 16.4127 10.2915C11.1106 10.5407 5.98927 10.1537 1.7974 8.50706C1.20649 8.27521 0.466518 8.4346 0.146952 8.86366C-0.173102 9.29237 0.0470851 9.82923 0.637991 10.0614C5.21081 11.8572 10.7866 12.3269 16.57 12.0548C22.8849 11.7579 29.4496 10.581 35.1468 9.3892C35.8079 10.3608 37.1767 11.2666 39.5881 11.9349C43.2919 12.9616 48.3489 12.9489 53.6763 12.3704C61.4029 11.5317 69.7146 9.53164 75.0585 8.11051C75.2777 8.05255 75.6041 7.96031 76.0036 7.83873C76.1254 8.03383 76.2618 8.22609 76.4128 8.41482C77.7232 10.0597 80.042 11.3896 82.4047 11.8646C97.3892 14.8765 114.878 11.2677 129.117 8.33069C129.76 8.19745 130.135 7.70832 129.955 7.23933C129.77 6.77033 129.097 6.49784 128.45 6.63108C114.61 9.48606 97.6182 13.0882 83.0526 10.1614C81.2599 9.80095 79.5159 8.77885 78.5221 7.53054C78.4101 7.39129 78.3127 7.24886 78.2201 7.10431C80.1833 6.39852 82.4924 5.41458 83.7346 4.36137C85.0109 3.28165 85.3275 2.12913 84.2168 1.04058C83.262 0.110003 81.8152 0.0308343 80.3099 0.513262C78.6877 1.02997 77.0168 2.23797 76.4761 2.80486C75.4628 3.86373 75.1413 5.01238 75.3265 6.13239C74.8491 6.27871 74.4613 6.38755 74.2221 6.45117C68.9951 7.84085 60.8709 9.80238 53.3158 10.6227C48.4546 11.1507 43.837 11.221 40.4572 10.2844C39.0157 9.88472 38.0633 9.4182 37.5465 8.87675C38.5665 8.65551 39.5501 8.43779 40.4898 8.22998C42.3483 7.81894 46.2176 7.1386 48.9822 5.92599C51.1807 4.96184 52.6713 3.65028 52.5846 2.00614C52.5403 1.16145 51.8666 0.59772 50.7943 0.281757C49.1921 -0.190068 46.4213 0.0382411 45.3895 0.197283C42.2601 0.67865 38.0833 2.67128 36.0168 4.9166C35.1921 5.81254 34.7016 6.74982 34.6494 7.65566ZM37.2201 7.1036C38.1042 6.91063 38.9587 6.72119 39.7795 6.53953C41.5143 6.15571 45.1405 5.54604 47.7219 4.41366C49.0889 3.81425 50.2049 3.0961 50.1508 2.07363C50.1465 1.99411 50.0378 1.9715 49.9418 1.93898C49.7933 1.88915 49.6233 1.85486 49.442 1.828C48.2159 1.64634 46.5689 1.82198 45.8947 1.92589C43.269 2.32986 39.7761 4.01394 38.0424 5.89806C37.676 6.29602 37.3842 6.7014 37.2201 7.1036ZM77.7329 5.3188C78.8777 4.89151 80.0761 4.37479 81.0212 3.81249C81.5229 3.51384 81.9468 3.20672 82.2147 2.88793C82.4388 2.62428 82.5264 2.35424 82.2585 2.09341C82.1513 1.98774 81.9906 1.98563 81.825 2.00542C81.6496 2.02663 81.4693 2.07186 81.2891 2.13017C80.1005 2.50975 78.8729 3.3965 78.4783 3.81249C78.0155 4.29491 77.7865 4.80527 77.7329 5.3188Z" fill="#050205"/>
</svg>
