<svg width="417" height="205" viewBox="0 0 417 205" fill="none" xmlns="http://www.w3.org/2000/svg">
<path fill-rule="evenodd" clip-rule="evenodd" d="M480.287 -427.5C418.703 -462.956 352.17 -524.098 282.181 -491.278C211.004 -457.901 210.318 -343.696 159.587 -277.114C113.619 -216.782 17.7312 -198.886 2.78863 -124.586C-12.0667 -50.7186 57.8932 -2.99605 92.6999 55.4794C123.44 107.122 141.02 174.812 194.086 196.795C246.642 218.567 308.372 189.779 365.704 168.574C418.626 149 463.326 114.351 510.879 79.6233C578.93 29.925 678.212 6.07998 703.154 -77.8669C727.648 -160.306 663.649 -230.612 622.318 -295.452C585.693 -352.909 537.014 -394.841 480.287 -427.5Z" fill="#893583"/>
</svg>
