<svg width="262" height="153" viewBox="0 0 262 153" fill="none" xmlns="http://www.w3.org/2000/svg">
<path fill-rule="evenodd" clip-rule="evenodd" d="M93.5153 -301.019C52.6403 -258.343 -9.95948 -216.78 2.62354 -153.741C15.4203 -89.6313 107.499 -66.3672 151.173 -12.1647C190.747 36.9502 186.13 117.933 243.153 144.774C299.843 171.457 352.288 124.458 406.426 107.981C454.237 93.4294 512.39 92.6945 540.692 54.2171C568.723 16.1105 557.753 -39.458 552.032 -89.9683C546.75 -136.592 527.662 -179.575 509.077 -224.878C482.48 -289.709 482.969 -374.616 420.145 -411.448C358.45 -447.619 288.955 -409.924 228.381 -389.444C174.704 -371.297 131.166 -340.329 93.5153 -301.019Z" fill="#893583"/>
</svg>
